%TF.GenerationSoftware,KiCad,Pcbnew,9.0.1*%
%TF.CreationDate,2025-07-18T21:26:47+09:00*%
%TF.ProjectId,SMU,534d552e-6b69-4636-9164-5f7063625858,rev?*%
%TF.SameCoordinates,Original*%
%TF.FileFunction,Soldermask,Top*%
%TF.FilePolarity,Negative*%
%FSLAX46Y46*%
G04 Gerber Fmt 4.6, Leading zero omitted, Abs format (unit mm)*
G04 Created by KiCad (PCBNEW 9.0.1) date 2025-07-18 21:26:47*
%MOMM*%
%LPD*%
G01*
G04 APERTURE LIST*
G04 Aperture macros list*
%AMRoundRect*
0 Rectangle with rounded corners*
0 $1 Rounding radius*
0 $2 $3 $4 $5 $6 $7 $8 $9 X,Y pos of 4 corners*
0 Add a 4 corners polygon primitive as box body*
4,1,4,$2,$3,$4,$5,$6,$7,$8,$9,$2,$3,0*
0 Add four circle primitives for the rounded corners*
1,1,$1+$1,$2,$3*
1,1,$1+$1,$4,$5*
1,1,$1+$1,$6,$7*
1,1,$1+$1,$8,$9*
0 Add four rect primitives between the rounded corners*
20,1,$1+$1,$2,$3,$4,$5,0*
20,1,$1+$1,$4,$5,$6,$7,0*
20,1,$1+$1,$6,$7,$8,$9,0*
20,1,$1+$1,$8,$9,$2,$3,0*%
%AMFreePoly0*
4,1,19,1.003536,4.453536,1.005000,4.450000,1.005000,1.450000,1.004069,1.447094,0.504069,0.747094,0.500822,0.745068,0.500000,0.745000,0.500000,-0.750000,-0.500000,-0.750000,-0.500000,0.745000,-0.503536,0.746464,-0.504069,0.747094,-1.004069,1.447094,-1.005000,1.450000,-1.005000,4.450000,-1.003536,4.453536,-1.000000,4.455000,1.000000,4.455000,1.003536,4.453536,1.003536,4.453536,
$1*%
%AMFreePoly1*
4,1,37,0.800000,0.796148,0.878414,0.796148,1.032228,0.765552,1.177117,0.705537,1.307515,0.618408,1.418408,0.507515,1.505537,0.377117,1.565552,0.232228,1.596148,0.078414,1.596148,-0.078414,1.565552,-0.232228,1.505537,-0.377117,1.418408,-0.507515,1.307515,-0.618408,1.177117,-0.705537,1.032228,-0.765552,0.878414,-0.796148,0.800000,-0.796148,0.800000,-0.800000,-1.400000,-0.800000,
-1.403843,-0.796157,-1.439018,-0.796157,-1.511114,-0.766294,-1.566294,-0.711114,-1.596157,-0.639018,-1.596157,-0.603843,-1.600000,-0.600000,-1.600000,0.600000,-1.596157,0.603843,-1.596157,0.639018,-1.566294,0.711114,-1.511114,0.766294,-1.439018,0.796157,-1.403843,0.796157,-1.400000,0.800000,0.800000,0.800000,0.800000,0.796148,0.800000,0.796148,$1*%
%AMFreePoly2*
4,1,37,1.403843,0.796157,1.439018,0.796157,1.511114,0.766294,1.566294,0.711114,1.596157,0.639018,1.596157,0.603843,1.600000,0.600000,1.600000,-0.600000,1.596157,-0.603843,1.596157,-0.639018,1.566294,-0.711114,1.511114,-0.766294,1.439018,-0.796157,1.403843,-0.796157,1.400000,-0.800000,-0.800000,-0.800000,-0.800000,-0.796148,-0.878414,-0.796148,-1.032228,-0.765552,-1.177117,-0.705537,
-1.307515,-0.618408,-1.418408,-0.507515,-1.505537,-0.377117,-1.565552,-0.232228,-1.596148,-0.078414,-1.596148,0.078414,-1.565552,0.232228,-1.505537,0.377117,-1.418408,0.507515,-1.307515,0.618408,-1.177117,0.705537,-1.032228,0.765552,-0.878414,0.796148,-0.800000,0.796148,-0.800000,0.800000,1.400000,0.800000,1.403843,0.796157,1.403843,0.796157,$1*%
%AMFreePoly3*
4,1,37,0.603843,0.796157,0.639018,0.796157,0.711114,0.766294,0.766294,0.711114,0.796157,0.639018,0.796157,0.603843,0.800000,0.600000,0.800000,-0.600000,0.796157,-0.603843,0.796157,-0.639018,0.766294,-0.711114,0.711114,-0.766294,0.639018,-0.796157,0.603843,-0.796157,0.600000,-0.800000,0.000000,-0.800000,0.000000,-0.796148,-0.078414,-0.796148,-0.232228,-0.765552,-0.377117,-0.705537,
-0.507515,-0.618408,-0.618408,-0.507515,-0.705537,-0.377117,-0.765552,-0.232228,-0.796148,-0.078414,-0.796148,0.078414,-0.765552,0.232228,-0.705537,0.377117,-0.618408,0.507515,-0.507515,0.618408,-0.377117,0.705537,-0.232228,0.765552,-0.078414,0.796148,0.000000,0.796148,0.000000,0.800000,0.600000,0.800000,0.603843,0.796157,0.603843,0.796157,$1*%
%AMFreePoly4*
4,1,37,0.000000,0.796148,0.078414,0.796148,0.232228,0.765552,0.377117,0.705537,0.507515,0.618408,0.618408,0.507515,0.705537,0.377117,0.765552,0.232228,0.796148,0.078414,0.796148,-0.078414,0.765552,-0.232228,0.705537,-0.377117,0.618408,-0.507515,0.507515,-0.618408,0.377117,-0.705537,0.232228,-0.765552,0.078414,-0.796148,0.000000,-0.796148,0.000000,-0.800000,-0.600000,-0.800000,
-0.603843,-0.796157,-0.639018,-0.796157,-0.711114,-0.766294,-0.766294,-0.711114,-0.796157,-0.639018,-0.796157,-0.603843,-0.800000,-0.600000,-0.800000,0.600000,-0.796157,0.603843,-0.796157,0.639018,-0.766294,0.711114,-0.711114,0.766294,-0.639018,0.796157,-0.603843,0.796157,-0.600000,0.800000,0.000000,0.800000,0.000000,0.796148,0.000000,0.796148,$1*%
G04 Aperture macros list end*
%ADD10RoundRect,0.250001X0.499999X-0.499999X0.499999X0.499999X-0.499999X0.499999X-0.499999X-0.499999X0*%
%ADD11C,1.500000*%
%ADD12RoundRect,0.250001X-0.499999X-0.499999X0.499999X-0.499999X0.499999X0.499999X-0.499999X0.499999X0*%
%ADD13RoundRect,0.200000X-0.200000X-0.275000X0.200000X-0.275000X0.200000X0.275000X-0.200000X0.275000X0*%
%ADD14RoundRect,0.200000X-0.275000X0.200000X-0.275000X-0.200000X0.275000X-0.200000X0.275000X0.200000X0*%
%ADD15RoundRect,0.200000X0.275000X-0.200000X0.275000X0.200000X-0.275000X0.200000X-0.275000X-0.200000X0*%
%ADD16RoundRect,0.200000X0.200000X0.275000X-0.200000X0.275000X-0.200000X-0.275000X0.200000X-0.275000X0*%
%ADD17C,1.270000*%
%ADD18RoundRect,0.250000X-0.550000X-0.550000X0.550000X-0.550000X0.550000X0.550000X-0.550000X0.550000X0*%
%ADD19C,1.600000*%
%ADD20RoundRect,0.250000X-0.650000X0.325000X-0.650000X-0.325000X0.650000X-0.325000X0.650000X0.325000X0*%
%ADD21RoundRect,0.225000X-0.225000X-0.250000X0.225000X-0.250000X0.225000X0.250000X-0.225000X0.250000X0*%
%ADD22RoundRect,0.225000X-0.250000X0.225000X-0.250000X-0.225000X0.250000X-0.225000X0.250000X0.225000X0*%
%ADD23RoundRect,0.250000X0.550000X0.550000X-0.550000X0.550000X-0.550000X-0.550000X0.550000X-0.550000X0*%
%ADD24O,1.600000X2.500000*%
%ADD25O,3.500000X7.000000*%
%ADD26RoundRect,0.250000X0.325000X0.650000X-0.325000X0.650000X-0.325000X-0.650000X0.325000X-0.650000X0*%
%ADD27RoundRect,0.225000X0.225000X0.250000X-0.225000X0.250000X-0.225000X-0.250000X0.225000X-0.250000X0*%
%ADD28RoundRect,0.150000X-0.150000X0.512500X-0.150000X-0.512500X0.150000X-0.512500X0.150000X0.512500X0*%
%ADD29RoundRect,0.250001X-0.499999X0.499999X-0.499999X-0.499999X0.499999X-0.499999X0.499999X0.499999X0*%
%ADD30C,1.700000*%
%ADD31R,1.500000X1.500000*%
%ADD32RoundRect,0.250000X0.550000X-0.550000X0.550000X0.550000X-0.550000X0.550000X-0.550000X-0.550000X0*%
%ADD33R,1.500000X1.000000*%
%ADD34FreePoly0,90.000000*%
%ADD35RoundRect,0.250000X0.650000X-0.325000X0.650000X0.325000X-0.650000X0.325000X-0.650000X-0.325000X0*%
%ADD36RoundRect,0.250000X-0.550000X0.550000X-0.550000X-0.550000X0.550000X-0.550000X0.550000X0.550000X0*%
%ADD37R,1.000000X1.500000*%
%ADD38FreePoly0,180.000000*%
%ADD39FreePoly1,90.000000*%
%ADD40RoundRect,0.200000X0.600000X-0.600000X0.600000X0.600000X-0.600000X0.600000X-0.600000X-0.600000X0*%
%ADD41RoundRect,0.800000X0.000010X-0.800000X0.000010X0.800000X-0.000010X0.800000X-0.000010X-0.800000X0*%
%ADD42FreePoly2,90.000000*%
%ADD43FreePoly3,90.000000*%
%ADD44FreePoly4,90.000000*%
G04 APERTURE END LIST*
D10*
%TO.C,D3*%
X26797000Y-156210000D03*
D11*
X26797000Y-153670000D03*
%TD*%
D12*
%TO.C,D4*%
X26797000Y-151003000D03*
D11*
X29337000Y-151003000D03*
%TD*%
D13*
%TO.C,R6*%
X90591500Y-148082000D03*
X92241500Y-148082000D03*
%TD*%
D12*
%TO.C,D7*%
X57531000Y-156210000D03*
D11*
X60071000Y-156210000D03*
%TD*%
D14*
%TO.C,R14*%
X79125000Y-160915000D03*
X79125000Y-162565000D03*
%TD*%
D15*
%TO.C,R17*%
X51308000Y-164591000D03*
X51308000Y-162941000D03*
%TD*%
D16*
%TO.C,R1*%
X42076500Y-167132000D03*
X40426500Y-167132000D03*
%TD*%
D17*
%TO.C,U10*%
X77220000Y-162565000D03*
X77220000Y-160025000D03*
X69600000Y-160025000D03*
X69600000Y-162565000D03*
%TD*%
D13*
%TO.C,R8*%
X42550000Y-146055000D03*
X44200000Y-146055000D03*
%TD*%
%TO.C,R10*%
X64520000Y-153040000D03*
X66170000Y-153040000D03*
%TD*%
%TO.C,R19*%
X53535000Y-162560000D03*
X55185000Y-162560000D03*
%TD*%
D15*
%TO.C,R20*%
X44200000Y-156210000D03*
X44200000Y-154560000D03*
%TD*%
D18*
%TO.C,C2*%
X109760000Y-139065000D03*
D19*
X111760000Y-139065000D03*
%TD*%
D16*
%TO.C,R7*%
X94066500Y-146304000D03*
X92416500Y-146304000D03*
%TD*%
D20*
%TO.C,C6*%
X59440000Y-142040000D03*
X59440000Y-144990000D03*
%TD*%
D21*
%TO.C,C4*%
X91050000Y-170180000D03*
X92600000Y-170180000D03*
%TD*%
D22*
%TO.C,C3*%
X109855000Y-185775000D03*
X109855000Y-187325000D03*
%TD*%
D23*
%TO.C,C1*%
X120650000Y-139065000D03*
D19*
X118650000Y-139065000D03*
%TD*%
D24*
%TO.C,J2*%
X73410000Y-129540000D03*
D25*
X68330000Y-124460000D03*
D24*
X70870000Y-129540000D03*
D25*
X78490000Y-124460000D03*
%TD*%
D18*
%TO.C,U8*%
X66430000Y-138435000D03*
D19*
X66430000Y-140975000D03*
X66430000Y-143515000D03*
X66430000Y-146055000D03*
X74050000Y-146055000D03*
X74050000Y-143515000D03*
X74050000Y-140975000D03*
X74050000Y-138435000D03*
%TD*%
D26*
%TO.C,C8*%
X69375000Y-149230000D03*
X66425000Y-149230000D03*
%TD*%
D18*
%TO.C,U4*%
X88015000Y-172720000D03*
D19*
X88015000Y-175260000D03*
X88015000Y-177800000D03*
X88015000Y-180340000D03*
X88015000Y-182880000D03*
X88015000Y-185420000D03*
X88015000Y-187960000D03*
X95635000Y-187960000D03*
X95635000Y-185420000D03*
X95635000Y-182880000D03*
X95635000Y-180340000D03*
X95635000Y-177800000D03*
X95635000Y-175260000D03*
X95635000Y-172720000D03*
%TD*%
D15*
%TO.C,R4*%
X98810000Y-180340000D03*
X98810000Y-178690000D03*
%TD*%
D13*
%TO.C,R11*%
X64520000Y-158755000D03*
X66170000Y-158755000D03*
%TD*%
D10*
%TO.C,D1*%
X26797000Y-166497000D03*
D11*
X26797000Y-163957000D03*
%TD*%
D27*
%TO.C,C5*%
X100360000Y-175895000D03*
X98810000Y-175895000D03*
%TD*%
D14*
%TO.C,R15*%
X81030000Y-153930000D03*
X81030000Y-155580000D03*
%TD*%
D28*
%TO.C,U3*%
X104140000Y-184785000D03*
X103190000Y-184785000D03*
X102240000Y-184785000D03*
X102240000Y-187060000D03*
X103190000Y-187060000D03*
X104140000Y-187060000D03*
%TD*%
D15*
%TO.C,R13*%
X79125000Y-155580000D03*
X79125000Y-153930000D03*
%TD*%
D26*
%TO.C,C9*%
X38690000Y-150490000D03*
X35740000Y-150490000D03*
%TD*%
D29*
%TO.C,D5*%
X29337000Y-153670000D03*
D11*
X29337000Y-156210000D03*
%TD*%
D30*
%TO.C,U1*%
X100330000Y-158115000D03*
X100330000Y-160655000D03*
X100330000Y-163195000D03*
X120650000Y-150495000D03*
X120650000Y-153035000D03*
X120650000Y-155575000D03*
X120650000Y-158115000D03*
X120650000Y-160655000D03*
X120650000Y-163195000D03*
%TD*%
D31*
%TO.C,SW2*%
X51185000Y-135890000D03*
D19*
X53725000Y-135890000D03*
X56265000Y-135890000D03*
%TD*%
D16*
%TO.C,R18*%
X45910000Y-158115000D03*
X44260000Y-158115000D03*
%TD*%
D32*
%TO.C,U6*%
X48645000Y-147320000D03*
D19*
X51185000Y-147320000D03*
X53725000Y-147320000D03*
X56265000Y-147320000D03*
X56265000Y-139700000D03*
X53725000Y-139700000D03*
X51185000Y-139700000D03*
X48645000Y-139700000D03*
%TD*%
D24*
%TO.C,J1*%
X40390000Y-129540000D03*
D25*
X35310000Y-124460000D03*
D24*
X37850000Y-129540000D03*
D25*
X45470000Y-124460000D03*
%TD*%
D31*
%TO.C,SW1*%
X53848000Y-167386000D03*
D19*
X51308000Y-167386000D03*
X48768000Y-167386000D03*
%TD*%
D10*
%TO.C,D2*%
X26797000Y-161398670D03*
D11*
X26797000Y-158858670D03*
%TD*%
D14*
%TO.C,R9*%
X44200000Y-142055000D03*
X44200000Y-143705000D03*
%TD*%
D33*
%TO.C,U2*%
X34290000Y-167465000D03*
D34*
X34290000Y-165965000D03*
D33*
X34290000Y-164465000D03*
%TD*%
D23*
%TO.C,U11*%
X41020000Y-161290000D03*
D19*
X41020000Y-158750000D03*
X41020000Y-156210000D03*
X41020000Y-153670000D03*
X33400000Y-153670000D03*
X33400000Y-156210000D03*
X33400000Y-158750000D03*
X33400000Y-161290000D03*
%TD*%
D35*
%TO.C,C7*%
X27690000Y-144990000D03*
X27690000Y-142040000D03*
%TD*%
D14*
%TO.C,R12*%
X64520000Y-160915000D03*
X64520000Y-162565000D03*
%TD*%
D15*
%TO.C,R16*%
X81030000Y-162565000D03*
X81030000Y-160915000D03*
%TD*%
D14*
%TO.C,R5*%
X87122000Y-150582500D03*
X87122000Y-152232500D03*
%TD*%
D12*
%TO.C,D6*%
X52451000Y-156210000D03*
D11*
X54991000Y-156210000D03*
%TD*%
D17*
%TO.C,U9*%
X77220000Y-155580000D03*
X77220000Y-153040000D03*
X69600000Y-153040000D03*
X69600000Y-155580000D03*
%TD*%
D14*
%TO.C,R3*%
X37592000Y-165775500D03*
X37592000Y-167425500D03*
%TD*%
D36*
%TO.C,U7*%
X38485000Y-139705000D03*
D19*
X35945000Y-139705000D03*
X33405000Y-139705000D03*
X30865000Y-139705000D03*
X30865000Y-147325000D03*
X33405000Y-147325000D03*
X35945000Y-147325000D03*
X38485000Y-147325000D03*
%TD*%
D37*
%TO.C,U5*%
X92940000Y-153849500D03*
D38*
X91440000Y-153849500D03*
D37*
X89940000Y-153849500D03*
%TD*%
D16*
%TO.C,R2*%
X42100000Y-165481000D03*
X40450000Y-165481000D03*
%TD*%
D39*
%TO.C,A1*%
X27686000Y-191300000D03*
D40*
X27686000Y-190500000D03*
D41*
X30226000Y-191300000D03*
D19*
X30226000Y-190500000D03*
D42*
X32766000Y-191300000D03*
D43*
X32766000Y-190500000D03*
D41*
X35306000Y-191300000D03*
D19*
X35306000Y-190500000D03*
D41*
X37846000Y-191300000D03*
D19*
X37846000Y-190500000D03*
D41*
X40386000Y-191300000D03*
D19*
X40386000Y-190500000D03*
D41*
X42926000Y-191300000D03*
D19*
X42926000Y-190500000D03*
D42*
X45466000Y-191300000D03*
D43*
X45466000Y-190500000D03*
D41*
X48006000Y-191300000D03*
D19*
X48006000Y-190500000D03*
D41*
X50546000Y-191300000D03*
D19*
X50546000Y-190500000D03*
D41*
X53086000Y-191300000D03*
D19*
X53086000Y-190500000D03*
D41*
X55626000Y-191300000D03*
D19*
X55626000Y-190500000D03*
D42*
X58166000Y-191300000D03*
D43*
X58166000Y-190500000D03*
D41*
X60706000Y-191300000D03*
D19*
X60706000Y-190500000D03*
D41*
X63246000Y-191300000D03*
D19*
X63246000Y-190500000D03*
D41*
X65786000Y-191300000D03*
D19*
X65786000Y-190500000D03*
D41*
X68326000Y-191300000D03*
D19*
X68326000Y-190500000D03*
D42*
X70866000Y-191300000D03*
D43*
X70866000Y-190500000D03*
D41*
X73406000Y-191300000D03*
D19*
X73406000Y-190500000D03*
D41*
X75946000Y-191300000D03*
D19*
X75946000Y-190500000D03*
X75946000Y-172720000D03*
D41*
X75946000Y-171920000D03*
D19*
X73406000Y-172720000D03*
D41*
X73406000Y-171920000D03*
D44*
X70866000Y-172720000D03*
D39*
X70866000Y-171920000D03*
D19*
X68326000Y-172720000D03*
D41*
X68326000Y-171920000D03*
D19*
X65786000Y-172720000D03*
D41*
X65786000Y-171920000D03*
D19*
X63246000Y-172720000D03*
D41*
X63246000Y-171920000D03*
D19*
X60706000Y-172720000D03*
D41*
X60706000Y-171920000D03*
D44*
X58166000Y-172720000D03*
D39*
X58166000Y-171920000D03*
D19*
X55626000Y-172720000D03*
D41*
X55626000Y-171920000D03*
D19*
X53086000Y-172720000D03*
D41*
X53086000Y-171920000D03*
D19*
X50546000Y-172720000D03*
D41*
X50546000Y-171920000D03*
D19*
X48006000Y-172720000D03*
D41*
X48006000Y-171920000D03*
D44*
X45466000Y-172720000D03*
D39*
X45466000Y-171920000D03*
D19*
X42926000Y-172720000D03*
D41*
X42926000Y-171920000D03*
D19*
X40386000Y-172720000D03*
D41*
X40386000Y-171920000D03*
D19*
X37846000Y-172720000D03*
D41*
X37846000Y-171920000D03*
D19*
X35306000Y-172720000D03*
D41*
X35306000Y-171920000D03*
D44*
X32766000Y-172720000D03*
D39*
X32766000Y-171920000D03*
D19*
X30226000Y-172720000D03*
D41*
X30226000Y-171920000D03*
D19*
X27686000Y-172720000D03*
D41*
X27686000Y-171920000D03*
%TD*%
D11*
X89408000Y-142748000D03*
X78105000Y-141605000D03*
X101931250Y-181913750D03*
X44200000Y-139700000D03*
X96774000Y-137564000D03*
X89408000Y-132620000D03*
X83570000Y-150495000D03*
M02*
