%TF.GenerationSoftware,KiCad,Pcbnew,9.0.1*%
%TF.CreationDate,2025-06-24T23:50:42+09:00*%
%TF.ProjectId,SMU,534d552e-6b69-4636-9164-5f7063625858,rev?*%
%TF.SameCoordinates,Original*%
%TF.FileFunction,Legend,Bot*%
%TF.FilePolarity,Positive*%
%FSLAX46Y46*%
G04 Gerber Fmt 4.6, Leading zero omitted, Abs format (unit mm)*
G04 Created by KiCad (PCBNEW 9.0.1) date 2025-06-24 23:50:42*
%MOMM*%
%LPD*%
G01*
G04 APERTURE LIST*
G04 Aperture macros list*
%AMRoundRect*
0 Rectangle with rounded corners*
0 $1 Rounding radius*
0 $2 $3 $4 $5 $6 $7 $8 $9 X,Y pos of 4 corners*
0 Add a 4 corners polygon primitive as box body*
4,1,4,$2,$3,$4,$5,$6,$7,$8,$9,$2,$3,0*
0 Add four circle primitives for the rounded corners*
1,1,$1+$1,$2,$3*
1,1,$1+$1,$4,$5*
1,1,$1+$1,$6,$7*
1,1,$1+$1,$8,$9*
0 Add four rect primitives between the rounded corners*
20,1,$1+$1,$2,$3,$4,$5,0*
20,1,$1+$1,$4,$5,$6,$7,0*
20,1,$1+$1,$6,$7,$8,$9,0*
20,1,$1+$1,$8,$9,$2,$3,0*%
%AMFreePoly0*
4,1,19,0.500000,-0.745000,0.503536,-0.746464,0.504069,-0.747094,1.004069,-1.447094,1.005000,-1.450000,1.005000,-4.450000,1.003536,-4.453536,1.000000,-4.455000,-1.000000,-4.455000,-1.003536,-4.453536,-1.005000,-4.450000,-1.005000,-1.450000,-1.004069,-1.447094,-0.504069,-0.747094,-0.500822,-0.745068,-0.500000,-0.745000,-0.500000,0.750000,0.500000,0.750000,0.500000,-0.745000,0.500000,-0.745000,
$1*%
%AMFreePoly1*
4,1,37,0.603843,0.796157,0.639018,0.796157,0.711114,0.766294,0.766294,0.711114,0.796157,0.639018,0.796157,0.603843,0.800000,0.600000,0.800000,-0.600000,0.796157,-0.603843,0.796157,-0.639018,0.766294,-0.711114,0.711114,-0.766294,0.639018,-0.796157,0.603843,-0.796157,0.600000,-0.800000,0.000000,-0.800000,0.000000,-0.796148,-0.078414,-0.796148,-0.232228,-0.765552,-0.377117,-0.705537,
-0.507515,-0.618408,-0.618408,-0.507515,-0.705537,-0.377117,-0.765552,-0.232228,-0.796148,-0.078414,-0.796148,0.078414,-0.765552,0.232228,-0.705537,0.377117,-0.618408,0.507515,-0.507515,0.618408,-0.377117,0.705537,-0.232228,0.765552,-0.078414,0.796148,0.000000,0.796148,0.000000,0.800000,0.600000,0.800000,0.603843,0.796157,0.603843,0.796157,$1*%
%AMFreePoly2*
4,1,37,0.000000,0.796148,0.078414,0.796148,0.232228,0.765552,0.377117,0.705537,0.507515,0.618408,0.618408,0.507515,0.705537,0.377117,0.765552,0.232228,0.796148,0.078414,0.796148,-0.078414,0.765552,-0.232228,0.705537,-0.377117,0.618408,-0.507515,0.507515,-0.618408,0.377117,-0.705537,0.232228,-0.765552,0.078414,-0.796148,0.000000,-0.796148,0.000000,-0.800000,-0.600000,-0.800000,
-0.603843,-0.796157,-0.639018,-0.796157,-0.711114,-0.766294,-0.766294,-0.711114,-0.796157,-0.639018,-0.796157,-0.603843,-0.800000,-0.600000,-0.800000,0.600000,-0.796157,0.603843,-0.796157,0.639018,-0.766294,0.711114,-0.711114,0.766294,-0.639018,0.796157,-0.603843,0.796157,-0.600000,0.800000,0.000000,0.800000,0.000000,0.796148,0.000000,0.796148,$1*%
G04 Aperture macros list end*
%ADD10C,0.150000*%
%ADD11C,0.100000*%
%ADD12C,0.120000*%
%ADD13C,1.500000*%
%ADD14RoundRect,0.250001X0.499999X-0.499999X0.499999X0.499999X-0.499999X0.499999X-0.499999X-0.499999X0*%
%ADD15RoundRect,0.250001X-0.499999X0.499999X-0.499999X-0.499999X0.499999X-0.499999X0.499999X0.499999X0*%
%ADD16RoundRect,0.237500X0.237500X-0.250000X0.237500X0.250000X-0.237500X0.250000X-0.237500X-0.250000X0*%
%ADD17RoundRect,0.237500X0.250000X0.237500X-0.250000X0.237500X-0.250000X-0.237500X0.250000X-0.237500X0*%
%ADD18RoundRect,0.237500X-0.250000X-0.237500X0.250000X-0.237500X0.250000X0.237500X-0.250000X0.237500X0*%
%ADD19RoundRect,0.237500X-0.237500X0.250000X-0.237500X-0.250000X0.237500X-0.250000X0.237500X0.250000X0*%
%ADD20C,1.600000*%
%ADD21RoundRect,0.250000X-0.550000X-0.550000X0.550000X-0.550000X0.550000X0.550000X-0.550000X0.550000X0*%
%ADD22R,1.500000X1.000000*%
%ADD23FreePoly0,270.000000*%
%ADD24R,1.000000X1.500000*%
%ADD25FreePoly0,180.000000*%
%ADD26C,1.270000*%
%ADD27RoundRect,0.250000X0.550000X0.550000X-0.550000X0.550000X-0.550000X-0.550000X0.550000X-0.550000X0*%
%ADD28O,1.600000X2.500000*%
%ADD29O,3.500000X7.000000*%
%ADD30C,1.700000*%
%ADD31R,1.500000X1.500000*%
%ADD32RoundRect,0.250000X0.550000X-0.550000X0.550000X0.550000X-0.550000X0.550000X-0.550000X-0.550000X0*%
%ADD33RoundRect,0.250000X-0.550000X0.550000X-0.550000X-0.550000X0.550000X-0.550000X0.550000X0.550000X0*%
%ADD34C,2.200000*%
%ADD35C,1.850000*%
%ADD36RoundRect,0.200000X0.600000X-0.600000X0.600000X0.600000X-0.600000X0.600000X-0.600000X-0.600000X0*%
%ADD37FreePoly1,90.000000*%
%ADD38FreePoly2,90.000000*%
G04 APERTURE END LIST*
D10*
X94340819Y-157630333D02*
X93864628Y-157297000D01*
X94340819Y-157058905D02*
X93340819Y-157058905D01*
X93340819Y-157058905D02*
X93340819Y-157439857D01*
X93340819Y-157439857D02*
X93388438Y-157535095D01*
X93388438Y-157535095D02*
X93436057Y-157582714D01*
X93436057Y-157582714D02*
X93531295Y-157630333D01*
X93531295Y-157630333D02*
X93674152Y-157630333D01*
X93674152Y-157630333D02*
X93769390Y-157582714D01*
X93769390Y-157582714D02*
X93817009Y-157535095D01*
X93817009Y-157535095D02*
X93864628Y-157439857D01*
X93864628Y-157439857D02*
X93864628Y-157058905D01*
X93340819Y-158487476D02*
X93340819Y-158297000D01*
X93340819Y-158297000D02*
X93388438Y-158201762D01*
X93388438Y-158201762D02*
X93436057Y-158154143D01*
X93436057Y-158154143D02*
X93578914Y-158058905D01*
X93578914Y-158058905D02*
X93769390Y-158011286D01*
X93769390Y-158011286D02*
X94150342Y-158011286D01*
X94150342Y-158011286D02*
X94245580Y-158058905D01*
X94245580Y-158058905D02*
X94293200Y-158106524D01*
X94293200Y-158106524D02*
X94340819Y-158201762D01*
X94340819Y-158201762D02*
X94340819Y-158392238D01*
X94340819Y-158392238D02*
X94293200Y-158487476D01*
X94293200Y-158487476D02*
X94245580Y-158535095D01*
X94245580Y-158535095D02*
X94150342Y-158582714D01*
X94150342Y-158582714D02*
X93912247Y-158582714D01*
X93912247Y-158582714D02*
X93817009Y-158535095D01*
X93817009Y-158535095D02*
X93769390Y-158487476D01*
X93769390Y-158487476D02*
X93721771Y-158392238D01*
X93721771Y-158392238D02*
X93721771Y-158201762D01*
X93721771Y-158201762D02*
X93769390Y-158106524D01*
X93769390Y-158106524D02*
X93817009Y-158058905D01*
X93817009Y-158058905D02*
X93912247Y-158011286D01*
X45124666Y-163108819D02*
X45457999Y-162632628D01*
X45696094Y-163108819D02*
X45696094Y-162108819D01*
X45696094Y-162108819D02*
X45315142Y-162108819D01*
X45315142Y-162108819D02*
X45219904Y-162156438D01*
X45219904Y-162156438D02*
X45172285Y-162204057D01*
X45172285Y-162204057D02*
X45124666Y-162299295D01*
X45124666Y-162299295D02*
X45124666Y-162442152D01*
X45124666Y-162442152D02*
X45172285Y-162537390D01*
X45172285Y-162537390D02*
X45219904Y-162585009D01*
X45219904Y-162585009D02*
X45315142Y-162632628D01*
X45315142Y-162632628D02*
X45696094Y-162632628D01*
X44219904Y-162108819D02*
X44696094Y-162108819D01*
X44696094Y-162108819D02*
X44743713Y-162585009D01*
X44743713Y-162585009D02*
X44696094Y-162537390D01*
X44696094Y-162537390D02*
X44600856Y-162489771D01*
X44600856Y-162489771D02*
X44362761Y-162489771D01*
X44362761Y-162489771D02*
X44267523Y-162537390D01*
X44267523Y-162537390D02*
X44219904Y-162585009D01*
X44219904Y-162585009D02*
X44172285Y-162680247D01*
X44172285Y-162680247D02*
X44172285Y-162918342D01*
X44172285Y-162918342D02*
X44219904Y-163013580D01*
X44219904Y-163013580D02*
X44267523Y-163061200D01*
X44267523Y-163061200D02*
X44362761Y-163108819D01*
X44362761Y-163108819D02*
X44600856Y-163108819D01*
X44600856Y-163108819D02*
X44696094Y-163061200D01*
X44696094Y-163061200D02*
X44743713Y-163013580D01*
X91860666Y-155808819D02*
X92193999Y-155332628D01*
X92432094Y-155808819D02*
X92432094Y-154808819D01*
X92432094Y-154808819D02*
X92051142Y-154808819D01*
X92051142Y-154808819D02*
X91955904Y-154856438D01*
X91955904Y-154856438D02*
X91908285Y-154904057D01*
X91908285Y-154904057D02*
X91860666Y-154999295D01*
X91860666Y-154999295D02*
X91860666Y-155142152D01*
X91860666Y-155142152D02*
X91908285Y-155237390D01*
X91908285Y-155237390D02*
X91955904Y-155285009D01*
X91955904Y-155285009D02*
X92051142Y-155332628D01*
X92051142Y-155332628D02*
X92432094Y-155332628D01*
X91003523Y-155142152D02*
X91003523Y-155808819D01*
X91241618Y-154761200D02*
X91479713Y-155475485D01*
X91479713Y-155475485D02*
X90860666Y-155475485D01*
X86019819Y-151153333D02*
X85543628Y-150820000D01*
X86019819Y-150581905D02*
X85019819Y-150581905D01*
X85019819Y-150581905D02*
X85019819Y-150962857D01*
X85019819Y-150962857D02*
X85067438Y-151058095D01*
X85067438Y-151058095D02*
X85115057Y-151105714D01*
X85115057Y-151105714D02*
X85210295Y-151153333D01*
X85210295Y-151153333D02*
X85353152Y-151153333D01*
X85353152Y-151153333D02*
X85448390Y-151105714D01*
X85448390Y-151105714D02*
X85496009Y-151058095D01*
X85496009Y-151058095D02*
X85543628Y-150962857D01*
X85543628Y-150962857D02*
X85543628Y-150581905D01*
X85019819Y-151486667D02*
X85019819Y-152105714D01*
X85019819Y-152105714D02*
X85400771Y-151772381D01*
X85400771Y-151772381D02*
X85400771Y-151915238D01*
X85400771Y-151915238D02*
X85448390Y-152010476D01*
X85448390Y-152010476D02*
X85496009Y-152058095D01*
X85496009Y-152058095D02*
X85591247Y-152105714D01*
X85591247Y-152105714D02*
X85829342Y-152105714D01*
X85829342Y-152105714D02*
X85924580Y-152058095D01*
X85924580Y-152058095D02*
X85972200Y-152010476D01*
X85972200Y-152010476D02*
X86019819Y-151915238D01*
X86019819Y-151915238D02*
X86019819Y-151629524D01*
X86019819Y-151629524D02*
X85972200Y-151534286D01*
X85972200Y-151534286D02*
X85924580Y-151486667D01*
X45318819Y-168743333D02*
X44842628Y-168410000D01*
X45318819Y-168171905D02*
X44318819Y-168171905D01*
X44318819Y-168171905D02*
X44318819Y-168552857D01*
X44318819Y-168552857D02*
X44366438Y-168648095D01*
X44366438Y-168648095D02*
X44414057Y-168695714D01*
X44414057Y-168695714D02*
X44509295Y-168743333D01*
X44509295Y-168743333D02*
X44652152Y-168743333D01*
X44652152Y-168743333D02*
X44747390Y-168695714D01*
X44747390Y-168695714D02*
X44795009Y-168648095D01*
X44795009Y-168648095D02*
X44842628Y-168552857D01*
X44842628Y-168552857D02*
X44842628Y-168171905D01*
X44414057Y-169124286D02*
X44366438Y-169171905D01*
X44366438Y-169171905D02*
X44318819Y-169267143D01*
X44318819Y-169267143D02*
X44318819Y-169505238D01*
X44318819Y-169505238D02*
X44366438Y-169600476D01*
X44366438Y-169600476D02*
X44414057Y-169648095D01*
X44414057Y-169648095D02*
X44509295Y-169695714D01*
X44509295Y-169695714D02*
X44604533Y-169695714D01*
X44604533Y-169695714D02*
X44747390Y-169648095D01*
X44747390Y-169648095D02*
X45318819Y-169076667D01*
X45318819Y-169076667D02*
X45318819Y-169695714D01*
D11*
X34293419Y-168172095D02*
X35102942Y-168172095D01*
X35102942Y-168172095D02*
X35198180Y-168219714D01*
X35198180Y-168219714D02*
X35245800Y-168267333D01*
X35245800Y-168267333D02*
X35293419Y-168362571D01*
X35293419Y-168362571D02*
X35293419Y-168553047D01*
X35293419Y-168553047D02*
X35245800Y-168648285D01*
X35245800Y-168648285D02*
X35198180Y-168695904D01*
X35198180Y-168695904D02*
X35102942Y-168743523D01*
X35102942Y-168743523D02*
X34293419Y-168743523D01*
X34626752Y-169648285D02*
X35293419Y-169648285D01*
X34245800Y-169410190D02*
X34960085Y-169172095D01*
X34960085Y-169172095D02*
X34960085Y-169791142D01*
X92455904Y-144402419D02*
X92455904Y-145211942D01*
X92455904Y-145211942D02*
X92408285Y-145307180D01*
X92408285Y-145307180D02*
X92360666Y-145354800D01*
X92360666Y-145354800D02*
X92265428Y-145402419D01*
X92265428Y-145402419D02*
X92074952Y-145402419D01*
X92074952Y-145402419D02*
X91979714Y-145354800D01*
X91979714Y-145354800D02*
X91932095Y-145307180D01*
X91932095Y-145307180D02*
X91884476Y-145211942D01*
X91884476Y-145211942D02*
X91884476Y-144402419D01*
X90932095Y-144402419D02*
X91408285Y-144402419D01*
X91408285Y-144402419D02*
X91455904Y-144878609D01*
X91455904Y-144878609D02*
X91408285Y-144830990D01*
X91408285Y-144830990D02*
X91313047Y-144783371D01*
X91313047Y-144783371D02*
X91074952Y-144783371D01*
X91074952Y-144783371D02*
X90979714Y-144830990D01*
X90979714Y-144830990D02*
X90932095Y-144878609D01*
X90932095Y-144878609D02*
X90884476Y-144973847D01*
X90884476Y-144973847D02*
X90884476Y-145211942D01*
X90884476Y-145211942D02*
X90932095Y-145307180D01*
X90932095Y-145307180D02*
X90979714Y-145354800D01*
X90979714Y-145354800D02*
X91074952Y-145402419D01*
X91074952Y-145402419D02*
X91313047Y-145402419D01*
X91313047Y-145402419D02*
X91408285Y-145354800D01*
X91408285Y-145354800D02*
X91455904Y-145307180D01*
D12*
%TO.C,R6*%
X92978500Y-158051724D02*
X92978500Y-157542276D01*
X91933500Y-158051724D02*
X91933500Y-157542276D01*
%TO.C,R5*%
X45212724Y-163561500D02*
X44703276Y-163561500D01*
X45212724Y-164606500D02*
X44703276Y-164606500D01*
%TO.C,R4*%
X91439276Y-154446500D02*
X91948724Y-154446500D01*
X91439276Y-153401500D02*
X91948724Y-153401500D01*
%TO.C,R3*%
X86472500Y-151065276D02*
X86472500Y-151574724D01*
X87517500Y-151065276D02*
X87517500Y-151574724D01*
%TO.C,R2*%
X43956500Y-169164724D02*
X43956500Y-168655276D01*
X42911500Y-169164724D02*
X42911500Y-168655276D01*
%TD*%
%LPC*%
D13*
%TO.C,D2*%
X56900000Y-151770000D03*
D14*
X56900000Y-159390000D03*
%TD*%
D13*
%TO.C,D1*%
X53725000Y-159380000D03*
D15*
X53725000Y-151760000D03*
%TD*%
D16*
%TO.C,R6*%
X92456000Y-158709500D03*
X92456000Y-156884500D03*
%TD*%
D17*
%TO.C,R5*%
X45870500Y-164084000D03*
X44045500Y-164084000D03*
%TD*%
D18*
%TO.C,R4*%
X90781500Y-153924000D03*
X92606500Y-153924000D03*
%TD*%
D19*
%TO.C,R3*%
X86995000Y-150407500D03*
X86995000Y-152232500D03*
%TD*%
D16*
%TO.C,R2*%
X43434000Y-169822500D03*
X43434000Y-167997500D03*
%TD*%
D20*
%TO.C,C2*%
X111760000Y-139065000D03*
D21*
X109760000Y-139065000D03*
%TD*%
D22*
%TO.C,U4*%
X40386000Y-167434000D03*
D23*
X40386000Y-168934000D03*
D22*
X40386000Y-170434000D03*
%TD*%
D24*
%TO.C,U5*%
X93194000Y-150495000D03*
D25*
X91694000Y-150495000D03*
D24*
X90194000Y-150495000D03*
%TD*%
D15*
%TO.C,D3*%
X60075000Y-154935000D03*
D13*
X60075000Y-162555000D03*
%TD*%
D26*
%TO.C,U7*%
X77220000Y-162565000D03*
X77220000Y-160025000D03*
X69600000Y-160025000D03*
X69600000Y-162565000D03*
%TD*%
D27*
%TO.C,C1*%
X120650000Y-139065000D03*
D20*
X118650000Y-139065000D03*
%TD*%
D28*
%TO.C,J2*%
X73410000Y-129540000D03*
D29*
X68330000Y-124460000D03*
D28*
X70870000Y-129540000D03*
D29*
X78490000Y-124460000D03*
%TD*%
D21*
%TO.C,U10*%
X66430000Y-138435000D03*
D20*
X66430000Y-140975000D03*
X66430000Y-143515000D03*
X66430000Y-146055000D03*
X74050000Y-146055000D03*
X74050000Y-143515000D03*
X74050000Y-140975000D03*
X74050000Y-138435000D03*
%TD*%
D21*
%TO.C,U3*%
X88015000Y-172720000D03*
D20*
X88015000Y-175260000D03*
X88015000Y-177800000D03*
X88015000Y-180340000D03*
X88015000Y-182880000D03*
X88015000Y-185420000D03*
X88015000Y-187960000D03*
X95635000Y-187960000D03*
X95635000Y-185420000D03*
X95635000Y-182880000D03*
X95635000Y-180340000D03*
X95635000Y-177800000D03*
X95635000Y-175260000D03*
X95635000Y-172720000D03*
%TD*%
D30*
%TO.C,U1*%
X100330000Y-158115000D03*
X100330000Y-160655000D03*
X100330000Y-163195000D03*
X120650000Y-150495000D03*
X120650000Y-153035000D03*
X120650000Y-155575000D03*
X120650000Y-158115000D03*
X120650000Y-160655000D03*
X120650000Y-163195000D03*
%TD*%
D31*
%TO.C,SW1*%
X51185000Y-135890000D03*
D20*
X53725000Y-135890000D03*
X56265000Y-135890000D03*
%TD*%
D32*
%TO.C,U9*%
X48645000Y-147320000D03*
D20*
X51185000Y-147320000D03*
X53725000Y-147320000D03*
X56265000Y-147320000D03*
X56265000Y-139700000D03*
X53725000Y-139700000D03*
X51185000Y-139700000D03*
X48645000Y-139700000D03*
%TD*%
D28*
%TO.C,J1*%
X40390000Y-129540000D03*
D29*
X35310000Y-124460000D03*
D28*
X37850000Y-129540000D03*
D29*
X45470000Y-124460000D03*
%TD*%
D31*
%TO.C,SW2*%
X50550000Y-167005000D03*
D20*
X48010000Y-167005000D03*
X45470000Y-167005000D03*
%TD*%
D27*
%TO.C,U11*%
X41020000Y-163200000D03*
D20*
X41020000Y-160660000D03*
X41020000Y-158120000D03*
X41020000Y-155580000D03*
X33400000Y-155580000D03*
X33400000Y-158120000D03*
X33400000Y-160660000D03*
X33400000Y-163200000D03*
%TD*%
D26*
%TO.C,U6*%
X77220000Y-155580000D03*
X77220000Y-153040000D03*
X69600000Y-153040000D03*
X69600000Y-155580000D03*
%TD*%
D33*
%TO.C,U8*%
X38485000Y-139705000D03*
D20*
X35945000Y-139705000D03*
X33405000Y-139705000D03*
X30865000Y-139705000D03*
X30865000Y-147325000D03*
X33405000Y-147325000D03*
X35945000Y-147325000D03*
X38485000Y-147325000D03*
%TD*%
D14*
%TO.C,D4*%
X29595000Y-165740000D03*
D13*
X29595000Y-158120000D03*
%TD*%
D34*
%TO.C,A1*%
X27820000Y-184335000D03*
D35*
X30850000Y-184035000D03*
X30850000Y-179185000D03*
D34*
X27820000Y-178885000D03*
D36*
X27690000Y-190500000D03*
D20*
X30230000Y-190500000D03*
D37*
X32770000Y-190500000D03*
D20*
X35310000Y-190500000D03*
X37850000Y-190500000D03*
X40390000Y-190500000D03*
X42930000Y-190500000D03*
D37*
X45470000Y-190500000D03*
D20*
X48010000Y-190500000D03*
X50550000Y-190500000D03*
X53090000Y-190500000D03*
X55630000Y-190500000D03*
D37*
X58170000Y-190500000D03*
D20*
X60710000Y-190500000D03*
X63250000Y-190500000D03*
X65790000Y-190500000D03*
X68330000Y-190500000D03*
D37*
X70870000Y-190500000D03*
D20*
X73410000Y-190500000D03*
X75950000Y-190500000D03*
X75950000Y-172720000D03*
X73410000Y-172720000D03*
D38*
X70870000Y-172720000D03*
D20*
X68330000Y-172720000D03*
X65790000Y-172720000D03*
X63250000Y-172720000D03*
X60710000Y-172720000D03*
D38*
X58170000Y-172720000D03*
D20*
X55630000Y-172720000D03*
X53090000Y-172720000D03*
X50550000Y-172720000D03*
X48010000Y-172720000D03*
D38*
X45470000Y-172720000D03*
D20*
X42930000Y-172720000D03*
X40390000Y-172720000D03*
X37850000Y-172720000D03*
X35310000Y-172720000D03*
D38*
X32770000Y-172720000D03*
D20*
X30230000Y-172720000D03*
X27690000Y-172720000D03*
%TD*%
D13*
X89408000Y-142748000D03*
X78105000Y-141605000D03*
X101931250Y-181913750D03*
X44200000Y-139700000D03*
X96774000Y-137564000D03*
X89408000Y-132620000D03*
X83570000Y-150495000D03*
%LPD*%
M02*
