M48
; DRILL file {KiCad 9.0.1} date 2025-06-29T21:29:10+0900
; FORMAT={-:-/ absolute / inch / decimal}
; #@! TF.CreationDate,2025-06-29T21:29:10+09:00
; #@! TF.GenerationSoftware,Kicad,Pcbnew,9.0.1
; #@! TF.FileFunction,Plated,1,2,PTH
FMAT,2
INCH
; #@! TA.AperFunction,Plated,PTH,ViaDrill
T1C0.0197
; #@! TA.AperFunction,Plated,PTH,ComponentDrill
T2C0.0295
; #@! TA.AperFunction,Plated,PTH,ComponentDrill
T3C0.0300
; #@! TA.AperFunction,Plated,PTH,ComponentDrill
T4C0.0315
; #@! TA.AperFunction,Plated,PTH,ComponentDrill
T5C0.0350
; #@! TA.AperFunction,Plated,PTH,ViaDrill
T6C0.0354
; #@! TA.AperFunction,Plated,PTH,ViaDrill
T7C0.0394
; #@! TA.AperFunction,Plated,PTH,ComponentDrill
T8C0.0394
; #@! TA.AperFunction,Plated,PTH,ComponentDrill
T9C0.0791
; #@! TA.AperFunction,Plated,PTH,ComponentDrill
T10C0.0866
%
G90
G05
T1
X1.927Y-7.1632
X1.9902Y-7.2
T2
X1.1652Y-6.2252
X1.1652Y-6.5252
X2.1152Y-5.9748
X2.1152Y-6.2748
X2.2402Y-5.9752
X2.2402Y-6.2752
X2.3652Y-6.0998
X2.3652Y-6.3998
T3
X2.7402Y-6.0252
X2.7402Y-6.1252
X2.7402Y-6.3002
X2.7402Y-6.4002
X3.0402Y-6.0252
X3.0402Y-6.1252
X3.0402Y-6.3002
X3.0402Y-6.4002
T4
X1.2152Y-5.5002
X1.2152Y-5.8002
X1.315Y-6.1252
X1.315Y-6.2252
X1.315Y-6.3252
X1.315Y-6.4252
X1.3152Y-5.5002
X1.3152Y-5.8002
X1.4152Y-5.5002
X1.4152Y-5.8002
X1.5152Y-5.5002
X1.5152Y-5.8002
X1.615Y-6.1252
X1.615Y-6.2252
X1.615Y-6.3252
X1.615Y-6.4252
X1.7902Y-6.575
X1.8902Y-6.575
X1.9152Y-5.5
X1.9152Y-5.8
X1.9902Y-6.575
X2.0152Y-5.35
X2.0152Y-5.5
X2.0152Y-5.8
X2.1152Y-5.35
X2.1152Y-5.5
X2.1152Y-5.8
X2.2152Y-5.35
X2.2152Y-5.5
X2.2152Y-5.8
X2.6154Y-5.4502
X2.6154Y-5.5502
X2.6154Y-5.6502
X2.6154Y-5.7502
X2.9154Y-5.4502
X2.9154Y-5.5502
X2.9154Y-5.6502
X2.9154Y-5.7502
X3.4652Y-6.8
X3.4652Y-6.9
X3.4652Y-7.0
X3.4652Y-7.1
X3.4652Y-7.2
X3.4652Y-7.3
X3.4652Y-7.4
X3.7652Y-6.8
X3.7652Y-6.9
X3.7652Y-7.0
X3.7652Y-7.1
X3.7652Y-7.2
X3.7652Y-7.3
X3.7652Y-7.4
X4.3213Y-5.475
X4.4Y-5.475
X4.6713Y-5.475
X4.75Y-5.475
T5
X1.4902Y-5.1
X1.5902Y-5.1
X2.7902Y-5.1
X2.8902Y-5.1
T6
X1.85Y-6.125
X1.9652Y-6.225
X3.0902Y-6.625
X3.1902Y-5.975
X3.1902Y-6.25
X3.43Y-6.09
T7
X1.7402Y-5.5
X1.9152Y-5.975
X2.275Y-4.75
X3.075Y-5.575
X3.2902Y-5.925
X3.52Y-5.2213
X3.52Y-5.62
X3.81Y-5.4159
X4.013Y-7.162
T8
X1.09Y-6.8
X1.09Y-7.5
X1.19Y-6.8
X1.19Y-7.5
X1.29Y-6.8
X1.29Y-7.5
X1.39Y-6.8
X1.39Y-7.5
X1.49Y-6.8
X1.49Y-7.5
X1.59Y-6.8
X1.59Y-7.5
X1.69Y-6.8
X1.69Y-7.5
X1.79Y-6.8
X1.79Y-7.5
X1.89Y-6.8
X1.89Y-7.5
X1.99Y-6.8
X1.99Y-7.5
X2.09Y-6.8
X2.09Y-7.5
X2.19Y-6.8
X2.19Y-7.5
X2.29Y-6.8
X2.29Y-7.5
X2.39Y-6.8
X2.39Y-7.5
X2.49Y-6.8
X2.49Y-7.5
X2.59Y-6.8
X2.59Y-7.5
X2.69Y-6.8
X2.69Y-7.5
X2.79Y-6.8
X2.79Y-7.5
X2.89Y-6.8
X2.89Y-7.5
X2.99Y-6.8
X2.99Y-7.5
X3.95Y-6.225
X3.95Y-6.325
X3.95Y-6.425
X4.75Y-5.925
X4.75Y-6.025
X4.75Y-6.125
X4.75Y-6.225
X4.75Y-6.325
X4.75Y-6.425
T9
X1.3902Y-4.9
X1.7902Y-4.9
X2.6902Y-4.9
X3.0902Y-4.9
T10
X1.1024Y-4.685
X3.2677Y-7.7165
X4.8031Y-4.685
X4.8031Y-7.7165
M30
