  0
SECTION
  2
HEADER
  9
$ACADVER
  1
AC1006
  9
$EXTMIN
 10
0.000000
 20
0.000000
 30
0.000000
  9
$EXTMAX
 10
1024.000000
 20
1024.000000
 30
0.000000
  0
ENDSEC
  0
SECTION
  2
ENTITIES
  0
POLYLINE
  8
0
 66
1
 70
1
  0
VERTEX
  8
0
 10
578.000000
 20
682.722258
 42
0.078175
  0
VERTEX
  8
0
 10
578.413015
 20
680.096792
 42
0.005146
  0
VERTEX
  8
0
 10
580.849586
 20
672.801809
 42
0.007934
  0
VERTEX
  8
0
 10
583.468790
 20
665.593271
 42
0.026166
  0
VERTEX
  8
0
 10
585.514895
 20
660.970606
 42
0.018959
  0
VERTEX
  8
0
 10
587.922553
 20
656.635174
 42
0.119442
  0
VERTEX
  8
0
 10
589.692698
 20
654.855127
 42
0.236963
  0
VERTEX
  8
0
 10
591.446606
 20
654.705533
 42
0.093756
  0
VERTEX
  8
0
 10
593.545186
 20
656.042450
 42
0.029102
  0
VERTEX
  8
0
 10
594.671168
 20
657.230885
 42
0.012941
  0
VERTEX
  8
0
 10
596.019285
 20
658.917370
 42
0.012759
  0
VERTEX
  8
0
 10
597.358241
 20
660.781220
 42
0.016839
  0
VERTEX
  8
0
 10
598.475892
 20
662.549075
 42
0.035255
  0
VERTEX
  8
0
 10
600.458641
 20
666.554926
 42
0.008855
  0
VERTEX
  8
0
 10
603.104633
 20
673.348261
 42
0.006274
  0
VERTEX
  8
0
 10
605.557293
 20
680.256238
 42
0.082340
  0
VERTEX
  8
0
 10
606.000000
 20
682.926317
 42
0.379360
  0
VERTEX
  8
0
 10
605.555428
 20
683.427940
 42
0.010976
  0
VERTEX
  8
0
 10
602.490193
 20
683.730827
 42
0.014164
  0
VERTEX
  8
0
 10
598.187030
 20
683.938469
 42
0.004972
  0
VERTEX
  8
0
 10
592.000000
 20
684.000000
 42
0.004048
  0
VERTEX
  8
0
 10
585.020720
 20
683.943494
 42
0.018708
  0
VERTEX
  8
0
 10
580.989206
 20
683.727183
 42
0.026253
  0
VERTEX
  8
0
 10
578.533715
 20
683.372361
 42
0.357904
  0
SEQEND
  0
POLYLINE
  8
0
 66
1
 70
1
  0
VERTEX
  8
0
 10
700.633551
 20
676.487432
 42
0.072289
  0
VERTEX
  8
0
 10
699.403295
 20
671.039139
 42
0.026422
  0
VERTEX
  8
0
 10
699.205852
 20
663.118807
 42
0.024019
  0
VERTEX
  8
0
 10
699.789668
 20
655.445306
 42
0.127537
  0
VERTEX
  8
0
 10
701.329284
 20
651.564355
 42
0.105820
  0
VERTEX
  8
0
 10
702.216565
 20
650.772595
 42
0.199223
  0
VERTEX
  8
0
 10
703.153486
 20
650.655420
 42
0.076141
  0
VERTEX
  8
0
 10
704.529054
 20
651.271144
 42
0.007635
  0
VERTEX
  8
0
 10
707.531705
 20
653.273447
 42
0.033521
  0
VERTEX
  8
0
 10
709.775450
 20
655.052575
 42
0.017973
  0
VERTEX
  8
0
 10
712.306063
 20
657.523051
 42
0.017602
  0
VERTEX
  8
0
 10
714.766450
 20
660.293014
 42
0.022740
  0
VERTEX
  8
0
 10
716.812566
 20
663.009241
 42
0.000000
  0
VERTEX
  8
0
 10
721.138242
 20
669.330248
 42
0.000000
  0
VERTEX
  8
0
 10
715.819121
 20
671.505332
 42
-0.005780
  0
VERTEX
  8
0
 10
713.475614
 20
672.495408
 42
-0.003908
  0
VERTEX
  8
0
 10
710.825757
 20
673.675924
 42
-0.003936
  0
VERTEX
  8
0
 10
708.281999
 20
674.857339
 42
-0.007831
  0
VERTEX
  8
0
 10
706.289838
 20
675.840208
 42
0.004052
  0
VERTEX
  8
0
 10
702.925061
 20
677.532018
 42
0.086175
  0
VERTEX
  8
0
 10
701.857346
 20
677.845825
 42
0.271530
  0
VERTEX
  8
0
 10
701.213580
 20
677.561154
 42
0.064531
  0
SEQEND
  0
POLYLINE
  8
0
 66
1
 70
1
  0
VERTEX
  8
0
 10
468.000000
 20
671.347677
 42
0.005371
  0
VERTEX
  8
0
 10
465.074432
 20
670.355072
 42
0.007584
  0
VERTEX
  8
0
 10
462.491806
 20
669.403520
 42
0.004714
  0
VERTEX
  8
0
 10
460.350162
 20
668.554058
 42
0.099266
  0
VERTEX
  8
0
 10
459.780616
 20
668.176892
 42
0.310217
  0
VERTEX
  8
0
 10
459.464109
 20
666.498479
 42
0.019630
  0
VERTEX
  8
0
 10
461.784978
 20
661.748313
 42
0.027412
  0
VERTEX
  8
0
 10
464.786293
 20
656.836974
 42
0.045543
  0
VERTEX
  8
0
 10
467.888845
 20
653.111155
 42
0.035217
  0
VERTEX
  8
0
 10
470.785572
 20
650.596079
 42
0.048353
  0
VERTEX
  8
0
 10
473.728841
 20
648.799811
 42
0.059034
  0
VERTEX
  8
0
 10
476.234298
 20
647.932116
 42
0.255571
  0
VERTEX
  8
0
 10
477.692663
 20
648.359329
 42
0.161088
  0
VERTEX
  8
0
 10
478.622234
 20
650.207745
 42
0.014012
  0
VERTEX
  8
0
 10
479.252821
 20
655.503690
 42
0.019190
  0
VERTEX
  8
0
 10
479.559715
 20
661.387155
 42
0.025358
  0
VERTEX
  8
0
 10
479.361385
 20
666.750000
 42
0.017776
  0
VERTEX
  8
0
 10
478.695761
 20
672.124537
 42
0.262677
  0
VERTEX
  8
0
 10
477.554317
 20
673.557864
 42
0.169792
  0
VERTEX
  8
0
 10
475.417614
 20
673.660834
 42
0.007033
  0
SEQEND
  0
POLYLINE
  8
0
 66
1
 70
1
  0
VERTEX
  8
0
 10
223.000000
 20
647.825921
 42
0.127214
  0
VERTEX
  8
0
 10
217.850470
 20
642.024959
 42
0.144258
  0
VERTEX
  8
0
 10
216.475928
 20
634.735223
 42
0.146320
  0
VERTEX
  8
0
 10
219.274726
 20
627.940843
 42
0.131923
  0
VERTEX
  8
0
 10
225.448254
 20
623.466612
 42
0.019113
  0
VERTEX
  8
0
 10
228.102307
 20
622.567637
 42
0.057407
  0
VERTEX
  8
0
 10
229.983907
 20
622.237514
 42
0.062196
  0
VERTEX
  8
0
 10
231.806813
 20
622.356610
 42
0.025411
  0
VERTEX
  8
0
 10
234.222168
 20
622.948417
 42
0.088859
  0
VERTEX
  8
0
 10
239.596147
 20
625.667063
 42
0.112448
  0
VERTEX
  8
0
 10
243.178100
 20
629.909018
 42
0.116065
  0
VERTEX
  8
0
 10
244.501079
 20
635.173833
 42
0.099250
  0
VERTEX
  8
0
 10
243.459443
 20
640.809759
 42
0.109125
  0
VERTEX
  8
0
 10
239.968479
 20
645.934441
 42
0.106662
  0
VERTEX
  8
0
 10
234.617079
 20
649.163245
 42
0.109784
  0
VERTEX
  8
0
 10
228.540819
 20
649.844617
 42
0.121778
  0
SEQEND
  0
POLYLINE
  8
0
 66
1
 70
1
  0
VERTEX
  8
0
 10
793.212567
 20
644.493393
 42
0.142136
  0
VERTEX
  8
0
 10
789.755379
 20
641.626931
 42
0.108376
  0
VERTEX
  8
0
 10
787.921430
 20
637.038696
 42
0.037599
  0
VERTEX
  8
0
 10
787.149849
 20
628.409837
 42
0.003505
  0
VERTEX
  8
0
 10
787.000000
 20
607.032119
 42
0.000000
  0
VERTEX
  8
0
 10
787.000000
 20
578.000000
 42
0.000000
  0
VERTEX
  8
0
 10
782.565100
 20
578.000000
 42
0.034171
  0
VERTEX
  8
0
 10
778.512488
 20
577.722710
 42
0.067189
  0
VERTEX
  8
0
 10
775.405463
 20
576.860110
 42
0.081999
  0
VERTEX
  8
0
 10
773.051869
 20
575.356121
 42
0.079549
  0
VERTEX
  8
0
 10
771.277813
 20
573.161341
 42
0.000000
  0
VERTEX
  8
0
 10
769.638269
 20
570.304601
 42
0.000000
  0
VERTEX
  8
0
 10
765.069135
 20
571.709005
 42
0.124524
  0
VERTEX
  8
0
 10
754.101844
 20
572.262560
 42
0.081096
  0
VERTEX
  8
0
 10
742.169583
 20
567.782391
 42
0.072965
  0
VERTEX
  8
0
 10
731.134464
 20
559.099057
 42
0.068862
  0
VERTEX
  8
0
 10
722.803162
 20
547.451922
 42
0.027871
  0
VERTEX
  8
0
 10
718.859049
 20
538.799359
 42
0.038142
  0
VERTEX
  8
0
 10
716.364905
 20
530.612461
 42
0.035111
  0
VERTEX
  8
0
 10
715.014700
 20
521.634812
 42
0.019163
  0
VERTEX
  8
0
 10
714.560545
 20
510.500000
 42
0.014185
  0
VERTEX
  8
0
 10
714.821733
 20
500.427181
 42
0.035249
  0
VERTEX
  8
0
 10
715.738893
 20
493.114058
 42
0.041306
  0
VERTEX
  8
0
 10
717.563702
 20
486.715015
 42
0.027173
  0
VERTEX
  8
0
 10
720.650756
 20
479.702498
 42
0.081223
  0
VERTEX
  8
0
 10
728.224848
 20
469.338695
 42
0.097094
  0
VERTEX
  8
0
 10
738.298343
 20
462.680948
 42
0.106352
  0
VERTEX
  8
0
 10
749.385390
 20
460.680358
 42
0.116788
  0
VERTEX
  8
0
 10
759.907382
 20
463.546107
 42
0.136397
  0
VERTEX
  8
0
 10
767.683016
 20
471.079143
 42
0.239224
  0
VERTEX
  8
0
 10
768.212053
 20
479.812668
 42
0.260266
  0
VERTEX
  8
0
 10
761.604916
 20
484.860941
 42
0.146427
  0
VERTEX
  8
0
 10
751.328000
 20
483.333149
 42
-0.143101
  0
VERTEX
  8
0
 10
747.573852
 20
482.750022
 42
-0.145881
  0
VERTEX
  8
0
 10
744.128513
 20
484.288176
 42
-0.091945
  0
VERTEX
  8
0
 10
740.944687
 20
488.243015
 42
-0.033223
  0
VERTEX
  8
0
 10
737.938224
 20
494.832994
 42
-0.054081
  0
VERTEX
  8
0
 10
736.429223
 20
500.656785
 42
-0.027591
  0
VERTEX
  8
0
 10
735.746922
 20
508.191370
 42
-0.027175
  0
VERTEX
  8
0
 10
735.898099
 20
516.066053
 42
-0.038389
  0
VERTEX
  8
0
 10
736.948001
 20
523.000000
 42
-0.036014
  0
VERTEX
  8
0
 10
738.933415
 20
529.440862
 42
-0.024374
  0
VERTEX
  8
0
 10
742.065329
 20
536.458866
 42
-0.024591
  0
VERTEX
  8
0
 10
745.696820
 20
542.835978
 42
-0.054696
  0
VERTEX
  8
0
 10
749.189284
 20
547.189284
 42
-0.024571
  0
VERTEX
  8
0
 10
752.136785
 20
549.860498
 42
-0.138795
  0
VERTEX
  8
0
 10
754.062547
 20
550.700481
 42
-0.070131
  0
VERTEX
  8
0
 10
756.681574
 20
550.688548
 42
-0.003443
  0
VERTEX
  8
0
 10
765.257259
 20
549.379521
 42
0.074364
  0
VERTEX
  8
0
 10
768.445179
 20
549.347942
 42
0.091300
  0
VERTEX
  8
0
 10
771.265984
 20
550.284744
 42
0.099525
  0
VERTEX
  8
0
 10
773.390906
 20
552.078669
 42
0.106743
  0
VERTEX
  8
0
 10
774.592531
 20
554.512650
 42
-0.074501
  0
VERTEX
  8
0
 10
775.170729
 20
555.900947
 42
-0.168340
  0
VERTEX
  8
0
 10
776.034918
 20
556.619855
 42
-0.081029
  0
VERTEX
  8
0
 10
777.593233
 20
556.933516
 42
-0.009231
  0
VERTEX
  8
0
 10
781.194082
 20
557.000000
 42
0.000000
  0
VERTEX
  8
0
 10
787.171348
 20
557.000000
 42
0.000000
  0
VERTEX
  8
0
 10
786.757686
 20
520.750000
 42
-0.004064
  0
VERTEX
  8
0
 10
786.256933
 20
495.124457
 42
-0.020229
  0
VERTEX
  8
0
 10
785.277354
 20
480.766106
 42
-0.035785
  0
VERTEX
  8
0
 10
783.484505
 20
470.919748
 42
-0.047593
  0
VERTEX
  8
0
 10
780.394132
 20
462.367797
 42
-0.053608
  0
VERTEX
  8
0
 10
777.529375
 20
457.684665
 42
-0.039908
  0
VERTEX
  8
0
 10
773.459229
 20
453.190051
 42
-0.038553
  0
VERTEX
  8
0
 10
768.549445
 20
449.235289
 42
-0.040684
  0
VERTEX
  8
0
 10
763.175146
 20
446.160407
 42
0.000000
  0
VERTEX
  8
0
 10
757.500000
 20
443.500000
 42
0.000000
  0
VERTEX
  8
0
 10
734.000000
 20
443.748452
 42
-0.004628
  0
VERTEX
  8
0
 10
710.770930
 20
444.209113
 42
-0.001520
  0
VERTEX
  8
0
 10
676.591596
 20
445.307530
 42
-0.001489
  0
VERTEX
  8
0
 10
637.973117
 20
446.781314
 42
-0.001505
  0
VERTEX
  8
0
 10
599.500000
 20
448.480287
 42
0.000200
  0
VERTEX
  8
0
 10
586.678126
 20
449.080034
 42
0.000197
  0
VERTEX
  8
0
 10
573.787500
 20
449.672758
 42
0.000193
  0
VERTEX
  8
0
 10
562.489588
 20
450.183426
 42
0.000752
  0
VERTEX
  8
0
 10
555.500000
 20
450.486117
 42
-0.002824
  0
VERTEX
  8
0
 10
507.522418
 20
452.762996
 42
-0.002220
  0
VERTEX
  8
0
 10
455.555910
 20
455.754773
 42
-0.001886
  0
VERTEX
  8
0
 10
408.729504
 20
458.836619
 42
-0.012000
  0
VERTEX
  8
0
 10
385.000000
 20
461.061605
 42
-0.007417
  0
VERTEX
  8
0
 10
373.059347
 20
462.650922
 42
-0.006887
  0
VERTEX
  8
0
 10
360.871523
 20
464.629424
 42
-0.007147
  0
VERTEX
  8
0
 10
349.366164
 20
466.830168
 42
-0.011121
  0
VERTEX
  8
0
 10
339.524508
 20
469.088189
 42
-0.001689
  0
VERTEX
  8
0
 10
334.911571
 20
470.271727
 42
-0.002692
  0
VERTEX
  8
0
 10
330.976339
 20
471.318224
 42
-0.000568
  0
VERTEX
  8
0
 10
327.526384
 20
472.259797
 42
-0.130185
  0
VERTEX
  8
0
 10
327.241007
 20
472.425660
 42
-0.567222
  0
VERTEX
  8
0
 10
327.278162
 20
472.573301
 42
-0.010617
  0
VERTEX
  8
0
 10
328.215437
 20
472.833794
 42
-0.014755
  0
VERTEX
  8
0
 10
329.455822
 20
473.111616
 42
-0.008068
  0
VERTEX
  8
0
 10
330.990741
 20
473.382529
 42
0.134645
  0
VERTEX
  8
0
 10
335.534426
 20
475.445735
 42
0.148641
  0
VERTEX
  8
0
 10
338.181350
 20
479.470395
 42
0.092299
  0
VERTEX
  8
0
 10
338.846729
 20
485.935649
 42
0.030552
  0
VERTEX
  8
0
 10
337.485380
 20
495.417063
 42
-0.011765
  0
VERTEX
  8
0
 10
336.694781
 20
499.757747
 42
-0.039581
  0
VERTEX
  8
0
 10
336.471378
 20
502.634161
 42
-0.042039
  0
VERTEX
  8
0
 10
336.710460
 20
505.419113
 42
-0.014556
  0
VERTEX
  8
0
 10
337.507840
 20
509.377575
 42
-0.010130
  0
VERTEX
  8
0
 10
338.282816
 20
512.436275
 42
-0.005404
  0
VERTEX
  8
0
 10
339.358252
 20
516.187337
 42
-0.005377
  0
VERTEX
  8
0
 10
340.539597
 20
519.995849
 42
-0.008345
  0
VERTEX
  8
0
 10
341.648659
 20
523.252670
 42
-0.016928
  0
VERTEX
  8
0
 10
344.123736
 20
529.471816
 42
-0.007920
  0
VERTEX
  8
0
 10
347.724936
 20
537.356190
 42
-0.001974
  0
VERTEX
  8
0
 10
351.625134
 20
545.466603
 42
-0.287178
  0
VERTEX
  8
0
 10
352.477234
 20
546.000000
 42
-0.096654
  0
VERTEX
  8
0
 10
352.783983
 20
545.940144
 42
-0.003752
  0
VERTEX
  8
0
 10
353.854418
 20
545.496475
 42
-0.006564
  0
VERTEX
  8
0
 10
355.116474
 20
544.942606
 42
-0.004572
  0
VERTEX
  8
0
 10
356.526709
 20
544.285873
 42
-0.022464
  0
VERTEX
  8
0
 10
358.332394
 20
543.322994
 42
-0.090328
  0
VERTEX
  8
0
 10
359.272823
 20
542.506493
 42
-0.144842
  0
VERTEX
  8
0
 10
359.631643
 20
541.628499
 42
-0.095763
  0
VERTEX
  8
0
 10
359.532315
 20
540.535873
 42
0.009100
  0
VERTEX
  8
0
 10
357.581470
 20
533.301597
 42
0.021229
  0
VERTEX
  8
0
 10
356.452094
 20
527.807848
 42
0.023791
  0
VERTEX
  8
0
 10
355.866029
 20
522.630844
 42
0.014639
  0
VERTEX
  8
0
 10
355.645971
 20
516.499556
 42
0.008300
  0
VERTEX
  8
0
 10
355.701896
 20
510.907712
 42
0.031461
  0
VERTEX
  8
0
 10
356.014281
 20
507.426801
 42
0.044097
  0
VERTEX
  8
0
 10
356.696087
 20
504.647195
 42
0.030551
  0
VERTEX
  8
0
 10
357.926495
 20
501.651841
 42
0.108632
  0
VERTEX
  8
0
 10
363.053486
 20
495.143821
 42
0.193711
  0
VERTEX
  8
0
 10
369.458738
 20
493.131217
 42
0.173073
  0
VERTEX
  8
0
 10
376.021315
 20
496.069687
 42
0.086063
  0
VERTEX
  8
0
 10
381.500000
 20
503.500000
 42
0.020454
  0
VERTEX
  8
0
 10
383.202259
 20
507.283904
 42
0.051543
  0
VERTEX
  8
0
 10
384.032891
 20
510.185103
 42
0.038246
  0
VERTEX
  8
0
 10
384.379719
 20
513.662883
 42
0.007359
  0
VERTEX
  8
0
 10
384.431857
 20
520.000000
 42
0.009794
  0
VERTEX
  8
0
 10
384.287956
 20
525.517099
 42
0.022574
  0
VERTEX
  8
0
 10
383.911745
 20
529.648858
 42
0.027273
  0
VERTEX
  8
0
 10
383.223592
 20
533.217896
 42
0.023025
  0
VERTEX
  8
0
 10
382.119811
 20
536.902636
 42
-0.015851
  0
VERTEX
  8
0
 10
380.643353
 20
541.586073
 42
-0.180636
  0
VERTEX
  8
0
 10
380.802728
 20
543.485108
 42
-0.197927
  0
VERTEX
  8
0
 10
382.162752
 20
544.724064
 42
-0.019581
  0
VERTEX
  8
0
 10
386.460490
 20
546.095486
 42
-0.027098
  0
VERTEX
  8
0
 10
388.501717
 20
546.542418
 42
-0.040261
  0
VERTEX
  8
0
 10
390.324680
 20
546.690201
 42
-0.041927
  0
VERTEX
  8
0
 10
392.091504
 20
546.542517
 42
-0.033017
  0
VERTEX
  8
0
 10
393.960490
 20
546.098577
 42
-0.022168
  0
VERTEX
  8
0
 10
398.054844
 20
544.633891
 42
-0.212755
  0
VERTEX
  8
0
 10
399.305350
 20
543.327808
 42
-0.170580
  0
VERTEX
  8
0
 10
399.318136
 20
541.359518
 42
-0.013354
  0
VERTEX
  8
0
 10
397.450447
 20
536.369117
 42
0.020598
  0
VERTEX
  8
0
 10
396.002604
 20
532.322953
 42
0.031108
  0
VERTEX
  8
0
 10
395.112379
 20
528.689084
 42
0.025338
  0
VERTEX
  8
0
 10
394.571737
 20
524.468021
 42
0.008957
  0
VERTEX
  8
0
 10
394.213348
 20
518.381095
 42
0.008689
  0
VERTEX
  8
0
 10
394.098951
 20
513.518043
 42
0.013337
  0
VERTEX
  8
0
 10
394.185431
 20
509.306217
 42
0.014713
  0
VERTEX
  8
0
 10
394.446057
 20
505.911554
 42
0.053232
  0
VERTEX
  8
0
 10
394.902298
 20
503.796041
 42
0.093877
  0
VERTEX
  8
0
 10
397.421213
 20
499.250018
 42
0.090309
  0
VERTEX
  8
0
 10
401.457989
 20
495.867228
 42
0.091535
  0
VERTEX
  8
0
 10
406.377684
 20
494.155729
 42
0.099864
  0
VERTEX
  8
0
 10
411.427374
 20
494.392416
 42
0.088997
  0
VERTEX
  8
0
 10
414.336684
 20
495.703626
 42
0.036506
  0
VERTEX
  8
0
 10
417.732509
 20
498.415811
 42
0.035969
  0
VERTEX
  8
0
 10
420.885355
 20
501.786800
 42
0.052128
  0
VERTEX
  8
0
 10
423.103424
 20
505.202727
 42
0.058082
  0
VERTEX
  8
0
 10
425.155092
 20
510.725194
 42
0.034351
  0
VERTEX
  8
0
 10
426.352959
 20
517.661834
 42
0.033691
  0
VERTEX
  8
0
 10
426.607346
 20
524.933566
 42
0.044726
  0
VERTEX
  8
0
 10
425.803716
 20
531.500000
 42
0.004638
  0
VERTEX
  8
0
 10
425.175501
 20
534.303438
 42
0.005508
  0
VERTEX
  8
0
 10
424.528733
 20
536.937957
 42
0.004818
  0
VERTEX
  8
0
 10
423.937804
 20
539.146963
 42
0.034933
  0
VERTEX
  8
0
 10
423.570525
 20
540.182407
 42
-0.114008
  0
VERTEX
  8
0
 10
423.407337
 20
541.060905
 42
-0.144045
  0
VERTEX
  8
0
 10
423.673526
 20
541.839325
 42
-0.091854
  0
VERTEX
  8
0
 10
424.449503
 20
542.594760
 42
-0.027892
  0
VERTEX
  8
0
 10
425.869289
 20
543.432407
 42
-0.083498
  0
VERTEX
  8
0
 10
430.637242
 20
544.963084
 42
-0.167621
  0
VERTEX
  8
0
 10
434.474374
 20
544.232601
 42
-0.138271
  0
VERTEX
  8
0
 10
437.536681
 20
541.110454
 42
-0.050380
  0
VERTEX
  8
0
 10
439.972991
 20
535.352021
 42
-0.029416
  0
VERTEX
  8
0
 10
441.739158
 20
528.158462
 42
-0.018561
  0
VERTEX
  8
0
 10
442.987343
 20
519.600255
 42
-0.016110
  0
VERTEX
  8
0
 10
443.740222
 20
509.646105
 42
-0.010665
  0
VERTEX
  8
0
 10
443.991795
 20
498.184259
 42
0.008459
  0
VERTEX
  8
0
 10
444.148727
 20
489.234730
 42
0.046843
  0
VERTEX
  8
0
 10
444.762904
 20
484.465244
 42
0.086934
  0
VERTEX
  8
0
 10
446.060806
 20
481.353122
 42
0.080529
  0
VERTEX
  8
0
 10
448.367040
 20
478.772236
 42
0.113447
  0
VERTEX
  8
0
 10
450.759118
 20
477.602242
 42
0.042654
  0
VERTEX
  8
0
 10
454.472485
 20
477.064872
 42
0.042768
  0
VERTEX
  8
0
 10
458.289230
 20
477.168047
 42
0.095006
  0
VERTEX
  8
0
 10
461.055391
 20
478.029644
 42
0.098150
  0
VERTEX
  8
0
 10
462.693565
 20
479.373641
 42
0.047493
  0
VERTEX
  8
0
 10
464.215305
 20
481.631057
 42
0.042287
  0
VERTEX
  8
0
 10
465.475216
 20
484.500797
 42
0.035368
  0
VERTEX
  8
0
 10
466.325773
 20
487.717958
 42
0.057620
  0
VERTEX
  8
0
 10
466.759010
 20
493.670904
 42
0.004792
  0
VERTEX
  8
0
 10
465.951941
 20
509.163450
 42
0.006437
  0
VERTEX
  8
0
 10
464.804807
 20
524.531752
 42
0.028523
  0
VERTEX
  8
0
 10
463.500636
 20
533.500000
 42
0.039306
  0
VERTEX
  8
0
 10
460.296084
 20
544.643783
 42
0.057942
  0
VERTEX
  8
0
 10
455.650583
 20
553.691750
 42
0.068970
  0
VERTEX
  8
0
 10
449.848309
 20
560.203969
 42
0.103913
  0
VERTEX
  8
0
 10
443.193157
 20
563.823983
 42
0.060183
  0
VERTEX
  8
0
 10
436.338071
 20
565.006891
 42
0.047896
  0
VERTEX
  8
0
 10
428.832450
 20
564.668441
 42
0.048777
  0
VERTEX
  8
0
 10
421.695369
 20
562.935050
 42
0.070879
  0
VERTEX
  8
0
 10
415.947766
 20
559.962806
 42
0.000000
  0
VERTEX
  8
0
 10
413.027672
 20
557.883516
 42
0.000000
  0
VERTEX
  8
0
 10
409.263836
 20
560.853980
 42
0.048437
  0
VERTEX
  8
0
 10
405.241308
 20
563.439847
 42
0.040696
  0
VERTEX
  8
0
 10
400.558143
 20
565.382340
 42
0.039426
  0
VERTEX
  8
0
 10
395.463347
 20
566.591518
 42
0.038817
  0
VERTEX
  8
0
 10
390.215053
 20
566.994423
 42
0.025778
  0
VERTEX
  8
0
 10
385.200118
 20
566.730795
 42
0.041759
  0
VERTEX
  8
0
 10
381.007372
 20
565.935163
 42
0.043180
  0
VERTEX
  8
0
 10
377.105022
 20
564.478277
 42
0.030026
  0
VERTEX
  8
0
 10
372.982504
 20
562.206553
 42
0.000000
  0
VERTEX
  8
0
 10
368.515536
 20
559.383010
 42
0.000000
  0
VERTEX
  8
0
 10
364.234920
 20
562.650478
 42
0.115722
  0
VERTEX
  8
0
 10
355.985759
 20
566.349676
 42
0.143421
  0
VERTEX
  8
0
 10
347.642141
 20
565.565006
 42
0.116994
  0
VERTEX
  8
0
 10
339.798871
 20
560.064529
 42
0.062525
  0
VERTEX
  8
0
 10
333.063244
 20
550.248247
 42
0.000000
  0
VERTEX
  8
0
 10
330.096199
 20
544.500000
 42
0.000000
  0
VERTEX
  8
0
 10
330.048099
 20
551.113510
 42
0.019021
  0
VERTEX
  8
0
 10
329.714086
 20
558.480030
 42
0.040721
  0
VERTEX
  8
0
 10
328.781257
 20
564.090888
 42
0.054085
  0
VERTEX
  8
0
 10
327.230267
 20
568.284956
 42
0.092759
  0
VERTEX
  8
0
 10
324.989012
 20
571.250000
 42
0.062300
  0
VERTEX
  8
0
 10
322.431771
 20
573.052976
 42
0.093897
  0
VERTEX
  8
0
 10
319.835996
 20
573.862831
 42
0.091625
  0
VERTEX
  8
0
 10
317.077204
 20
573.676147
 42
0.056797
  0
VERTEX
  8
0
 10
314.033632
 20
572.517392
 42
0.120231
  0
VERTEX
  8
0
 10
311.417852
 20
570.239031
 42
0.091919
  0
VERTEX
  8
0
 10
309.825027
 20
566.780537
 42
0.059024
  0
VERTEX
  8
0
 10
309.152796
 20
561.653145
 42
0.019625
  0
VERTEX
  8
0
 10
309.356140
 20
554.066041
 42
0.010119
  0
VERTEX
  8
0
 10
310.703816
 20
538.484809
 42
0.002275
  0
VERTEX
  8
0
 10
313.655251
 20
512.020467
 42
0.000713
  0
VERTEX
  8
0
 10
316.993302
 20
483.630459
 42
0.061290
  0
VERTEX
  8
0
 10
318.022632
 20
479.440472
 42
-0.019785
  0
VERTEX
  8
0
 10
318.383645
 20
478.364632
 42
-0.027994
  0
VERTEX
  8
0
 10
318.612168
 20
477.380742
 42
-0.027208
  0
VERTEX
  8
0
 10
318.706478
 20
476.584143
 42
-0.215454
  0
VERTEX
  8
0
 10
318.578512
 20
476.245179
 42
-0.331063
  0
VERTEX
  8
0
 10
317.419802
 20
476.074811
 42
-0.002084
  0
VERTEX
  8
0
 10
307.651714
 20
481.380657
 42
-0.008401
  0
VERTEX
  8
0
 10
298.269287
 20
486.734791
 42
-0.016421
  0
VERTEX
  8
0
 10
291.013798
 20
491.366959
 42
-0.031480
  0
VERTEX
  8
0
 10
282.680337
 20
497.887932
 42
-0.014264
  0
VERTEX
  8
0
 10
272.588427
 20
507.392747
 42
-0.014277
  0
VERTEX
  8
0
 10
262.792329
 20
517.735304
 42
-0.024175
  0
VERTEX
  8
0
 10
255.279177
 20
527.000000
 42
-0.004045
  0
VERTEX
  8
0
 10
248.905032
 20
535.835702
 42
-0.055635
  0
VERTEX
  8
0
 10
246.993776
 20
539.287288
 42
-0.128308
  0
VERTEX
  8
0
 10
246.605565
 20
542.055553
 42
-0.051242
  0
VERTEX
  8
0
 10
247.441387
 20
545.823534
 42
0.033322
  0
VERTEX
  8
0
 10
250.158124
 20
556.285631
 42
0.027506
  0
VERTEX
  8
0
 10
251.680242
 20
567.710744
 42
0.027591
  0
VERTEX
  8
0
 10
251.911447
 20
578.086178
 42
0.090973
  0
VERTEX
  8
0
 10
250.461862
 20
584.745520
 42
0.033122
  0
VERTEX
  8
0
 10
248.869961
 20
587.942485
 42
0.055620
  0
VERTEX
  8
0
 10
247.082152
 20
590.346991
 42
0.055165
  0
VERTEX
  8
0
 10
244.797347
 20
592.311278
 42
0.032005
  0
VERTEX
  8
0
 10
241.681608
 20
594.161625
 42
0.092534
  0
VERTEX
  8
0
 10
233.055886
 20
596.710956
 42
0.098046
  0
VERTEX
  8
0
 10
224.276252
 20
595.895267
 42
0.105555
  0
VERTEX
  8
0
 10
216.964296
 20
591.915524
 42
0.124948
  0
VERTEX
  8
0
 10
212.445893
 20
585.497496
 42
0.093314
  0
VERTEX
  8
0
 10
211.218308
 20
578.702062
 42
0.034990
  0
VERTEX
  8
0
 10
211.969093
 20
569.011139
 42
0.032359
  0
VERTEX
  8
0
 10
214.328048
 20
558.049294
 42
0.029377
  0
VERTEX
  8
0
 10
218.139946
 20
547.113345
 42
0.000000
  0
VERTEX
  8
0
 10
220.380233
 20
541.726690
 42
0.000000
  0
VERTEX
  8
0
 10
216.952654
 20
535.113345
 42
-0.035652
  0
VERTEX
  8
0
 10
203.256324
 20
512.745948
 42
-0.028191
  0
VERTEX
  8
0
 10
185.478941
 20
490.630508
 42
-0.028191
  0
VERTEX
  8
0
 10
165.326443
 20
470.655304
 42
-0.035651
  0
VERTEX
  8
0
 10
144.500000
 20
454.712909
 42
-0.038542
  0
VERTEX
  8
0
 10
119.691247
 20
440.997618
 42
-0.044935
  0
VERTEX
  8
0
 10
94.291459
 20
432.065163
 42
-0.049876
  0
VERTEX
  8
0
 10
70.549160
 20
428.508770
 42
-0.085913
  0
VERTEX
  8
0
 10
50.764461
 20
430.942372
 42
0.007055
  0
VERTEX
  8
0
 10
45.841903
 20
432.356196
 42
0.053767
  0
VERTEX
  8
0
 10
43.465044
 20
432.735247
 42
0.079480
  0
VERTEX
  8
0
 10
41.444678
 20
432.516370
 42
0.024572
  0
VERTEX
  8
0
 10
38.527099
 20
431.563499
 42
0.060773
  0
VERTEX
  8
0
 10
34.792249
 20
429.589540
 42
0.081624
  0
VERTEX
  8
0
 10
32.050254
 20
426.928113
 42
0.084694
  0
VERTEX
  8
0
 10
30.372162
 20
423.611725
 42
0.071204
  0
VERTEX
  8
0
 10
29.754546
 20
419.717391
 42
0.090049
  0
VERTEX
  8
0
 10
30.744657
 20
413.752759
 42
0.121560
  0
VERTEX
  8
0
 10
33.757859
 20
409.213723
 42
0.090567
  0
VERTEX
  8
0
 10
39.304726
 20
405.719274
 42
0.033475
  0
VERTEX
  8
0
 10
48.123913
 20
402.849343
 42
0.017332
  0
VERTEX
  8
0
 10
53.252726
 20
401.739946
 42
0.028412
  0
VERTEX
  8
0
 10
57.662580
 20
401.201256
 42
0.020271
  0
VERTEX
  8
0
 10
63.034823
 20
401.071184
 42
0.004844
  0
VERTEX
  8
0
 10
71.965418
 20
401.303584
 42
0.012070
  0
VERTEX
  8
0
 10
83.694653
 20
402.006345
 42
0.023269
  0
VERTEX
  8
0
 10
93.022085
 20
403.230652
 42
0.023659
  0
VERTEX
  8
0
 10
102.093842
 20
405.300763
 42
0.012950
  0
VERTEX
  8
0
 10
113.000000
 20
408.645295
 42
0.027967
  0
VERTEX
  8
0
 10
129.509201
 20
415.227377
 42
0.020102
  0
VERTEX
  8
0
 10
147.160627
 20
424.316083
 42
0.019683
  0
VERTEX
  8
0
 10
164.511137
 20
435.074843
 42
0.022674
  0
VERTEX
  8
0
 10
180.133298
 20
446.700357
 42
0.022476
  0
VERTEX
  8
0
 10
192.413900
 20
457.691431
 42
0.016045
  0
VERTEX
  8
0
 10
205.175124
 20
471.018251
 42
0.016015
  0
VERTEX
  8
0
 10
217.092740
 20
485.178666
 42
0.021940
  0
VERTEX
  8
0
 10
226.820609
 20
498.698634
 42
-0.003652
  0
VERTEX
  8
0
 10
229.424535
 20
502.611864
 42
-0.005813
  0
VERTEX
  8
0
 10
231.714908
 20
505.916508
 42
-0.001710
  0
VERTEX
  8
0
 10
233.736006
 20
508.740909
 42
-0.218694
  0
VERTEX
  8
0
 10
234.102483
 20
508.948634
 42
-0.233676
  0
VERTEX
  8
0
 10
234.473498
 20
508.802994
 42
-0.004095
  0
VERTEX
  8
0
 10
235.952017
 20
507.148974
 42
-0.009383
  0
VERTEX
  8
0
 10
237.651081
 20
505.141880
 42
-0.006000
  0
VERTEX
  8
0
 10
239.552727
 20
502.750000
 42
0.051106
  0
VERTEX
  8
0
 10
263.362096
 20
477.791267
 42
0.053836
  0
VERTEX
  8
0
 10
291.350995
 20
458.673008
 42
0.050074
  0
VERTEX
  8
0
 10
324.566913
 20
444.955801
 42
0.035333
  0
VERTEX
  8
0
 10
364.000000
 20
436.098964
 42
0.014897
  0
VERTEX
  8
0
 10
398.544127
 20
431.915776
 42
0.005908
  0
VERTEX
  8
0
 10
446.193696
 20
428.148305
 42
0.004655
  0
VERTEX
  8
0
 10
508.030042
 20
424.571708
 42
0.002151
  0
VERTEX
  8
0
 10
588.500000
 20
421.015646
 42
-0.000150
  0
VERTEX
  8
0
 10
600.476972
 20
420.534393
 42
-0.000100
  0
VERTEX
  8
0
 10
614.178125
 20
419.976983
 42
-0.000101
  0
VERTEX
  8
0
 10
627.453141
 20
419.431546
 42
-0.000200
  0
VERTEX
  8
0
 10
638.000000
 20
418.991849
 42
0.002389
  0
VERTEX
  8
0
 10
670.870065
 20
417.765650
 42
0.001954
  0
VERTEX
  8
0
 10
706.030655
 20
416.759726
 42
0.001668
  0
VERTEX
  8
0
 10
737.551477
 20
416.086422
 42
0.010602
  0
VERTEX
  8
0
 10
753.570819
 20
416.137398
 42
0.003959
  0
VERTEX
  8
0
 10
763.114981
 20
416.445809
 42
0.032231
  0
VERTEX
  8
0
 10
767.457628
 20
416.901973
 42
0.052353
  0
VERTEX
  8
0
 10
770.852691
 20
417.855151
 42
0.019790
  0
VERTEX
  8
0
 10
775.363000
 20
419.857940
 42
0.026095
  0
VERTEX
  8
0
 10
778.752255
 20
421.752169
 42
0.018655
  0
VERTEX
  8
0
 10
782.340522
 20
424.202445
 42
0.017448
  0
VERTEX
  8
0
 10
786.003726
 20
427.112549
 42
0.015339
  0
VERTEX
  8
0
 10
789.620658
 20
430.394580
 42
0.000000
  0
VERTEX
  8
0
 10
797.062817
 20
437.575960
 42
0.000000
  0
VERTEX
  8
0
 10
800.459542
 20
433.216114
 42
0.033425
  0
VERTEX
  8
0
 10
804.126134
 20
429.108138
 42
0.031353
  0
VERTEX
  8
0
 10
808.382705
 20
425.430201
 42
0.031362
  0
VERTEX
  8
0
 10
813.064443
 20
422.314381
 42
0.033493
  0
VERTEX
  8
0
 10
818.000000
 20
419.884114
 42
0.035226
  0
VERTEX
  8
0
 10
821.718574
 20
418.651132
 42
0.034040
  0
VERTEX
  8
0
 10
825.616167
 20
417.935075
 42
0.019176
  0
VERTEX
  8
0
 10
831.163556
 20
417.516617
 42
0.003519
  0
VERTEX
  8
0
 10
841.436187
 20
417.209329
 42
0.010360
  0
VERTEX
  8
0
 10
856.174279
 20
417.177680
 42
0.003931
  0
VERTEX
  8
0
 10
876.739519
 20
417.721392
 42
0.003931
  0
VERTEX
  8
0
 10
897.294584
 20
418.588401
 42
0.010354
  0
VERTEX
  8
0
 10
912.000000
 20
419.630146
 42
0.000000
  0
VERTEX
  8
0
 10
918.500000
 20
420.226096
 42
0.000000
  0
VERTEX
  8
0
 10
913.681941
 20
415.863048
 42
0.049830
  0
VERTEX
  8
0
 10
909.874039
 20
411.653462
 42
0.091760
  0
VERTEX
  8
0
 10
907.860418
 20
407.514083
 42
0.101046
  0
VERTEX
  8
0
 10
907.565815
 20
403.209667
 42
0.070968
  0
VERTEX
  8
0
 10
908.887358
 20
398.521741
 42
0.049492
  0
VERTEX
  8
0
 10
910.725101
 20
395.277347
 42
0.072611
  0
VERTEX
  8
0
 10
912.978879
 20
392.902482
 42
0.073743
  0
VERTEX
  8
0
 10
915.789534
 20
391.295570
 42
0.052867
  0
VERTEX
  8
0
 10
919.285983
 20
390.341017
 42
0.107389
  0
VERTEX
  8
0
 10
924.385762
 20
390.611982
 42
0.090866
  0
VERTEX
  8
0
 10
929.261110
 20
392.956678
 42
0.037339
  0
VERTEX
  8
0
 10
935.950655
 20
398.638866
 42
0.004299
  0
VERTEX
  8
0
 10
949.882123
 20
412.626113
 42
0.000000
  0
VERTEX
  8
0
 10
970.000000
 20
433.174927
 42
0.000000
  0
VERTEX
  8
0
 10
969.993411
 20
438.837463
 42
0.058852
  0
VERTEX
  8
0
 10
969.319808
 20
444.484085
 42
0.108629
  0
VERTEX
  8
0
 10
967.307101
 20
448.622046
 42
0.096027
  0
VERTEX
  8
0
 10
963.546014
 20
451.856196
 42
0.038926
  0
VERTEX
  8
0
 10
957.406729
 20
454.753457
 42
-0.025014
  0
VERTEX
  8
0
 10
954.713304
 20
455.934168
 42
-0.005197
  0
VERTEX
  8
0
 10
950.114211
 20
458.290931
 42
-0.005446
  0
VERTEX
  8
0
 10
944.827636
 20
461.143658
 42
-0.005116
  0
VERTEX
  8
0
 10
939.492500
 20
464.169809
 42
0.002742
  0
VERTEX
  8
0
 10
927.622509
 20
470.977302
 42
0.019211
  0
VERTEX
  8
0
 10
921.693662
 20
474.039915
 42
0.040605
  0
VERTEX
  8
0
 10
917.751684
 20
475.511219
 42
0.070102
  0
VERTEX
  8
0
 10
914.289838
 20
475.985258
 42
0.094222
  0
VERTEX
  8
0
 10
908.994296
 20
474.957045
 42
0.107362
  0
VERTEX
  8
0
 10
904.719593
 20
472.072720
 42
0.105026
  0
VERTEX
  8
0
 10
901.962562
 20
467.616336
 42
0.086762
  0
VERTEX
  8
0
 10
901.006589
 20
462.102117
 42
0.055620
  0
VERTEX
  8
0
 10
901.423139
 20
458.417002
 42
0.070027
  0
VERTEX
  8
0
 10
902.642878
 20
455.210672
 42
0.065799
  0
VERTEX
  8
0
 10
904.772464
 20
452.318823
 42
0.042277
  0
VERTEX
  8
0
 10
907.908815
 20
449.567274
 42
0.000000
  0
VERTEX
  8
0
 10
911.150890
 20
447.175347
 42
0.000000
  0
VERTEX
  8
0
 10
904.825445
 20
446.540927
 42
-0.018423
  0
VERTEX
  8
0
 10
900.723541
 20
446.281665
 42
-0.001523
  0
VERTEX
  8
0
 10
890.030366
 20
446.033162
 42
-0.002035
  0
VERTEX
  8
0
 10
877.268569
 20
445.827422
 42
-0.001567
  0
VERTEX
  8
0
 10
863.341757
 20
445.703253
 42
0.000000
  0
VERTEX
  8
0
 10
828.183514
 20
445.500000
 42
0.000000
  0
VERTEX
  8
0
 10
825.492772
 20
448.000000
 42
-0.054529
  0
VERTEX
  8
0
 10
823.291358
 20
450.544784
 42
-0.023488
  0
VERTEX
  8
0
 10
820.915401
 20
454.357669
 42
-0.020525
  0
VERTEX
  8
0
 10
818.490922
 20
459.139470
 42
-0.014179
  0
VERTEX
  8
0
 10
816.128279
 20
464.729979
 42
-0.062702
  0
VERTEX
  8
0
 10
815.060755
 20
468.977042
 42
-0.017032
  0
VERTEX
  8
0
 10
814.458128
 20
475.889980
 42
-0.008148
  0
VERTEX
  8
0
 10
814.026977
 20
487.665585
 42
-0.001016
  0
VERTEX
  8
0
 10
813.559505
 20
513.250000
 42
0.000000
  0
VERTEX
  8
0
 10
812.849051
 20
557.000000
 42
0.000000
  0
VERTEX
  8
0
 10
821.674526
 20
557.003738
 42
0.026410
  0
VERTEX
  8
0
 10
828.568632
 20
557.371067
 42
0.080509
  0
VERTEX
  8
0
 10
833.076835
 20
558.602800
 42
0.115335
  0
VERTEX
  8
0
 10
836.032819
 20
560.882954
 42
0.091587
  0
VERTEX
  8
0
 10
837.976421
 20
564.428555
 42
0.029334
  0
VERTEX
  8
0
 10
838.524038
 20
566.486074
 42
0.072509
  0
VERTEX
  8
0
 10
838.612313
 20
568.041068
 42
0.068131
  0
VERTEX
  8
0
 10
838.253852
 20
569.613684
 42
0.023594
  0
VERTEX
  8
0
 10
837.329516
 20
571.755949
 42
0.091706
  0
VERTEX
  8
0
 10
835.143257
 20
574.708173
 42
0.099137
  0
VERTEX
  8
0
 10
832.099527
 20
576.586238
 42
0.066421
  0
VERTEX
  8
0
 10
827.593192
 20
577.606114
 42
0.020687
  0
VERTEX
  8
0
 10
820.649204
 20
577.943558
 42
0.000000
  0
VERTEX
  8
0
 10
812.798407
 20
578.000000
 42
0.000000
  0
VERTEX
  8
0
 10
813.532369
 20
607.972291
 42
0.001334
  0
VERTEX
  8
0
 10
813.922766
 20
625.865608
 42
0.012281
  0
VERTEX
  8
0
 10
813.880729
 20
633.629293
 42
0.027611
  0
VERTEX
  8
0
 10
813.504431
 20
638.036106
 42
0.110357
  0
VERTEX
  8
0
 10
812.555385
 20
640.555816
 42
0.121081
  0
VERTEX
  8
0
 10
809.214264
 20
643.666937
 42
0.077141
  0
VERTEX
  8
0
 10
804.208854
 20
645.521332
 42
0.072254
  0
VERTEX
  8
0
 10
798.525634
 20
645.843152
 42
0.080720
  0
SEQEND
  0
POLYLINE
  8
0
 66
1
 70
1
  0
VERTEX
  8
0
 10
234.498363
 20
573.115571
 42
-0.009824
  0
VERTEX
  8
0
 10
233.672174
 20
568.235401
 42
-0.202730
  0
VERTEX
  8
0
 10
232.864518
 20
567.022311
 42
-0.501893
  0
VERTEX
  8
0
 10
232.037059
 20
567.321504
 42
-0.020568
  0
VERTEX
  8
0
 10
231.118156
 20
570.884662
 42
-0.006314
  0
VERTEX
  8
0
 10
230.121406
 20
575.836520
 42
-0.096369
  0
VERTEX
  8
0
 10
230.132081
 20
577.575391
 42
-0.318385
  0
VERTEX
  8
0
 10
230.868142
 20
578.269452
 42
-0.082297
  0
VERTEX
  8
0
 10
232.593385
 20
578.226899
 42
-0.048118
  0
VERTEX
  8
0
 10
234.090787
 20
577.788122
 42
-0.211271
  0
VERTEX
  8
0
 10
234.719188
 20
577.144161
 42
-0.116039
  0
VERTEX
  8
0
 10
234.864776
 20
575.992105
 42
-0.010680
  0
SEQEND
  0
POLYLINE
  8
0
 66
1
 70
1
  0
VERTEX
  8
0
 10
652.215231
 20
625.335487
 42
0.129775
  0
VERTEX
  8
0
 10
640.331809
 20
614.995947
 42
0.022841
  0
VERTEX
  8
0
 10
624.701331
 20
589.557795
 42
0.024096
  0
VERTEX
  8
0
 10
609.192794
 20
558.027943
 42
0.022723
  0
VERTEX
  8
0
 10
596.452506
 20
524.536654
 42
0.015113
  0
VERTEX
  8
0
 10
589.284965
 20
500.327063
 42
0.064925
  0
VERTEX
  8
0
 10
587.370529
 20
485.446174
 42
0.158395
  0
VERTEX
  8
0
 10
590.029941
 20
477.309551
 42
0.239613
  0
VERTEX
  8
0
 10
596.539455
 20
474.000000
 42
0.123065
  0
VERTEX
  8
0
 10
601.845305
 20
475.326008
 42
0.132538
  0
VERTEX
  8
0
 10
605.731571
 20
478.970738
 42
0.059353
  0
VERTEX
  8
0
 10
609.238272
 20
486.510166
 42
0.008894
  0
VERTEX
  8
0
 10
614.166982
 20
502.500000
 42
-0.003729
  0
VERTEX
  8
0
 10
616.236899
 20
509.470233
 42
-0.018628
  0
VERTEX
  8
0
 10
617.571022
 20
513.322670
 42
-0.081592
  0
VERTEX
  8
0
 10
618.351662
 20
514.644511
 42
-0.660802
  0
VERTEX
  8
0
 10
618.830077
 20
514.500000
 42
0.049960
  0
VERTEX
  8
0
 10
619.109259
 20
513.186431
 42
0.031056
  0
VERTEX
  8
0
 10
619.681476
 20
511.717012
 42
0.030986
  0
VERTEX
  8
0
 10
620.434594
 20
510.323220
 42
0.048096
  0
VERTEX
  8
0
 10
621.264947
 20
509.238764
 42
0.112202
  0
VERTEX
  8
0
 10
624.813279
 20
506.822945
 42
0.076036
  0
VERTEX
  8
0
 10
629.601814
 20
505.739575
 42
0.034892
  0
VERTEX
  8
0
 10
637.421203
 20
505.732061
 42
0.005176
  0
VERTEX
  8
0
 10
653.154079
 20
506.979886
 42
0.000704
  0
VERTEX
  8
0
 10
661.974990
 20
507.783999
 42
0.000937
  0
VERTEX
  8
0
 10
669.991569
 20
508.541324
 42
0.000659
  0
VERTEX
  8
0
 10
676.712228
 20
509.197869
 42
0.009492
  0
VERTEX
  8
0
 10
679.093815
 20
509.479444
 42
0.000000
  0
VERTEX
  8
0
 10
682.687629
 20
509.973685
 42
0.000000
  0
VERTEX
  8
0
 10
683.950137
 20
504.236843
 42
0.016146
  0
VERTEX
  8
0
 10
686.143170
 20
495.608877
 42
0.016936
  0
VERTEX
  8
0
 10
688.858182
 20
487.278590
 42
0.016296
  0
VERTEX
  8
0
 10
691.659307
 20
480.296343
 42
0.078939
  0
VERTEX
  8
0
 10
693.962977
 20
476.715406
 42
0.181120
  0
VERTEX
  8
0
 10
699.860522
 20
473.620828
 42
0.183737
  0
VERTEX
  8
0
 10
706.297417
 20
475.186127
 42
0.154044
  0
VERTEX
  8
0
 10
710.859233
 20
481.025961
 42
0.130434
  0
VERTEX
  8
0
 10
711.629153
 20
488.852577
 42
0.030564
  0
VERTEX
  8
0
 10
710.246236
 20
494.966316
 42
0.000645
  0
VERTEX
  8
0
 10
701.531792
 20
524.727220
 42
0.001624
  0
VERTEX
  8
0
 10
693.084031
 20
553.099506
 42
0.005811
  0
VERTEX
  8
0
 10
687.415419
 20
571.151961
 42
0.005997
  0
VERTEX
  8
0
 10
682.120066
 20
586.719602
 42
0.006522
  0
VERTEX
  8
0
 10
676.593416
 20
601.724167
 42
0.004891
  0
VERTEX
  8
0
 10
671.535118
 20
614.546958
 42
0.053855
  0
VERTEX
  8
0
 10
668.923290
 20
619.407000
 42
0.058391
  0
VERTEX
  8
0
 10
666.573559
 20
622.100269
 42
0.039259
  0
VERTEX
  8
0
 10
663.340367
 20
624.600701
 42
0.039709
  0
VERTEX
  8
0
 10
659.990334
 20
626.432716
 42
0.108744
  0
VERTEX
  8
0
 10
657.363845
 20
626.977230
 42
0.055889
  0
VERTEX
  8
0
 10
656.426189
 20
626.860477
 42
0.018286
  0
VERTEX
  8
0
 10
655.082604
 20
626.485575
 42
0.017963
  0
VERTEX
  8
0
 10
653.609594
 20
625.956879
 42
0.019354
  0
SEQEND
  0
POLYLINE
  8
0
 66
1
 70
1
  0
VERTEX
  8
0
 10
655.812811
 20
588.750000
 42
-0.007826
  0
VERTEX
  8
0
 10
656.643568
 20
586.487248
 42
-0.000354
  0
VERTEX
  8
0
 10
659.369242
 20
578.670313
 42
-0.000592
  0
VERTEX
  8
0
 10
662.586092
 20
569.388275
 42
-0.000424
  0
VERTEX
  8
0
 10
666.162686
 20
559.000000
 42
0.000149
  0
VERTEX
  8
0
 10
669.684489
 20
548.752535
 42
0.000231
  0
VERTEX
  8
0
 10
672.728492
 20
539.917187
 42
0.000064
  0
VERTEX
  8
0
 10
675.386149
 20
532.217984
 42
0.007896
  0
VERTEX
  8
0
 10
675.737626
 20
531.250000
 42
-0.359045
  0
VERTEX
  8
0
 10
675.540866
 20
530.666684
 42
-0.092313
  0
VERTEX
  8
0
 10
674.543023
 20
530.277425
 42
-0.038501
  0
VERTEX
  8
0
 10
672.570390
 20
530.057807
 42
-0.008478
  0
VERTEX
  8
0
 10
669.161457
 20
530.000000
 42
0.014812
  0
VERTEX
  8
0
 10
660.736961
 20
529.750373
 42
0.005801
  0
VERTEX
  8
0
 10
649.135510
 20
528.927076
 42
0.005415
  0
VERTEX
  8
0
 10
637.826405
 20
527.869113
 42
0.022605
  0
VERTEX
  8
0
 10
631.063452
 20
526.851764
 42
0.025672
  0
VERTEX
  8
0
 10
628.489855
 20
526.205996
 42
0.035734
  0
VERTEX
  8
0
 10
626.274789
 20
525.350381
 42
0.039538
  0
VERTEX
  8
0
 10
624.391391
 20
524.274303
 42
0.046854
  0
VERTEX
  8
0
 10
622.813452
 20
522.967298
 42
-0.014614
  0
VERTEX
  8
0
 10
621.732836
 20
521.948070
 42
-0.030829
  0
VERTEX
  8
0
 10
620.826451
 20
521.236878
 42
-0.050852
  0
VERTEX
  8
0
 10
620.201501
 20
520.893796
 42
-0.537001
  0
VERTEX
  8
0
 10
620.000000
 20
521.027310
 42
-0.108077
  0
VERTEX
  8
0
 10
621.736618
 20
528.967639
 42
-0.003459
  0
VERTEX
  8
0
 10
635.751298
 20
558.926651
 42
-0.001754
  0
VERTEX
  8
0
 10
650.716634
 20
590.067751
 42
-0.287367
  0
VERTEX
  8
0
 10
653.800990
 20
592.000000
 42
-0.231647
  0
VERTEX
  8
0
 10
654.166707
 20
591.820958
 42
-0.026501
  0
VERTEX
  8
0
 10
654.705683
 20
591.045313
 42
-0.027639
  0
VERTEX
  8
0
 10
655.278124
 20
589.995032
 42
-0.019063
  0
SEQEND
  0
POLYLINE
  8
0
 66
1
 70
1
  0
VERTEX
  8
0
 10
529.000000
 20
624.898556
 42
0.013363
  0
VERTEX
  8
0
 10
525.973778
 20
624.420982
 42
0.006851
  0
VERTEX
  8
0
 10
522.206250
 20
623.669234
 42
0.006803
  0
VERTEX
  8
0
 10
518.345097
 20
622.788544
 42
0.010178
  0
VERTEX
  8
0
 10
515.000000
 20
621.905073
 42
-0.011478
  0
VERTEX
  8
0
 10
509.817113
 20
620.550633
 42
-0.038859
  0
VERTEX
  8
0
 10
506.364334
 20
620.011202
 42
-0.039817
  0
VERTEX
  8
0
 10
502.913112
 20
620.019120
 42
-0.012499
  0
VERTEX
  8
0
 10
497.772019
 20
620.570720
 42
0.019721
  0
VERTEX
  8
0
 10
494.969619
 20
620.830522
 42
0.086723
  0
VERTEX
  8
0
 10
493.327223
 20
620.632470
 42
0.096146
  0
VERTEX
  8
0
 10
491.934788
 20
619.899171
 42
0.027249
  0
VERTEX
  8
0
 10
490.103113
 20
618.256959
 42
0.117570
  0
VERTEX
  8
0
 10
486.693863
 20
612.712925
 42
0.043634
  0
VERTEX
  8
0
 10
484.591769
 20
603.737330
 42
0.022494
  0
VERTEX
  8
0
 10
483.142798
 20
588.978412
 42
0.003969
  0
VERTEX
  8
0
 10
481.891799
 20
561.163313
 42
0.006698
  0
VERTEX
  8
0
 10
481.304827
 20
536.309711
 42
0.006045
  0
VERTEX
  8
0
 10
481.352972
 20
510.583595
 42
0.003795
  0
VERTEX
  8
0
 10
481.851444
 20
487.456990
 42
0.061540
  0
VERTEX
  8
0
 10
483.028020
 20
479.779483
 42
0.068178
  0
VERTEX
  8
0
 10
484.352442
 20
476.741714
 42
0.102015
  0
VERTEX
  8
0
 10
486.320714
 20
474.631505
 42
0.097255
  0
VERTEX
  8
0
 10
489.038165
 20
473.408307
 42
0.057327
  0
VERTEX
  8
0
 10
492.587648
 20
473.000000
 42
0.069859
  0
VERTEX
  8
0
 10
496.092645
 20
473.492113
 42
0.084598
  0
VERTEX
  8
0
 10
499.081748
 20
474.927831
 42
0.086825
  0
VERTEX
  8
0
 10
501.369844
 20
477.236105
 42
0.078288
  0
VERTEX
  8
0
 10
502.839020
 20
480.265637
 42
0.063724
  0
VERTEX
  8
0
 10
503.250142
 20
482.689659
 42
0.001372
  0
VERTEX
  8
0
 10
503.708101
 20
494.740531
 42
0.003131
  0
VERTEX
  8
0
 10
504.117437
 20
508.862832
 42
0.002105
  0
VERTEX
  8
0
 10
504.416082
 20
525.000000
 42
-0.001002
  0
VERTEX
  8
0
 10
504.691044
 20
541.869172
 42
-0.001096
  0
VERTEX
  8
0
 10
505.026572
 20
558.238521
 42
-0.001024
  0
VERTEX
  8
0
 10
505.373008
 20
572.241864
 42
-0.005480
  0
VERTEX
  8
0
 10
505.661257
 20
579.875815
 42
0.000000
  0
VERTEX
  8
0
 10
506.313174
 20
593.251630
 42
0.000000
  0
VERTEX
  8
0
 10
512.406587
 20
596.087264
 42
-0.072758
  0
VERTEX
  8
0
 10
533.019217
 20
602.244937
 42
-0.082514
  0
VERTEX
  8
0
 10
553.626170
 20
601.840551
 42
-0.100655
  0
VERTEX
  8
0
 10
569.806445
 20
595.285618
 42
-0.182542
  0
VERTEX
  8
0
 10
578.039340
 20
583.853902
 42
-0.129167
  0
VERTEX
  8
0
 10
578.094361
 20
574.865000
 42
-0.078071
  0
VERTEX
  8
0
 10
573.857529
 20
565.025962
 42
-0.069691
  0
VERTEX
  8
0
 10
566.155365
 20
555.911232
 42
-0.065735
  0
VERTEX
  8
0
 10
556.101171
 20
549.051071
 42
-0.027286
  0
VERTEX
  8
0
 10
550.073851
 20
546.410460
 42
-0.028134
  0
VERTEX
  8
0
 10
543.855410
 20
544.472504
 42
-0.022620
  0
VERTEX
  8
0
 10
536.380738
 20
542.952477
 42
-0.009776
  0
VERTEX
  8
0
 10
526.313836
 20
541.576546
 42
0.013167
  0
VERTEX
  8
0
 10
517.606896
 20
540.326293
 42
0.048819
  0
VERTEX
  8
0
 10
512.262137
 20
538.867139
 42
0.080515
  0
VERTEX
  8
0
 10
508.822048
 20
536.875689
 42
0.102382
  0
VERTEX
  8
0
 10
506.516927
 20
534.032733
 42
0.094983
  0
VERTEX
  8
0
 10
505.130860
 20
529.351268
 42
0.122272
  0
VERTEX
  8
0
 10
505.776510
 20
524.926075
 42
0.122153
  0
VERTEX
  8
0
 10
508.417725
 20
521.313589
 42
0.094682
  0
VERTEX
  8
0
 10
512.690615
 20
518.937091
 42
0.077849
  0
VERTEX
  8
0
 10
517.479311
 20
518.147626
 42
0.018985
  0
VERTEX
  8
0
 10
525.502826
 20
518.388078
 42
0.019898
  0
VERTEX
  8
0
 10
534.328629
 20
519.342446
 42
0.025727
  0
VERTEX
  8
0
 10
542.313672
 20
520.952345
 42
0.039217
  0
VERTEX
  8
0
 10
557.726810
 20
526.210798
 42
0.039518
  0
VERTEX
  8
0
 10
572.088417
 20
533.800669
 42
0.041729
  0
VERTEX
  8
0
 10
584.261409
 20
543.027376
 42
0.060638
  0
VERTEX
  8
0
 10
593.114842
 20
553.169112
 42
0.023480
  0
VERTEX
  8
0
 10
597.320903
 20
560.035534
 42
0.049789
  0
VERTEX
  8
0
 10
599.764958
 20
565.765852
 42
0.051021
  0
VERTEX
  8
0
 10
600.993969
 20
571.776207
 42
0.025846
  0
VERTEX
  8
0
 10
601.365513
 20
579.500000
 42
0.009920
  0
VERTEX
  8
0
 10
601.242193
 20
584.757025
 42
0.024510
  0
VERTEX
  8
0
 10
600.886821
 20
588.596154
 42
0.030624
  0
VERTEX
  8
0
 10
600.222150
 20
591.832823
 42
0.026882
  0
VERTEX
  8
0
 10
599.144584
 20
595.111691
 42
0.115209
  0
VERTEX
  8
0
 10
589.360951
 20
609.391563
 42
0.084988
  0
VERTEX
  8
0
 10
573.182776
 20
619.787346
 42
0.074269
  0
VERTEX
  8
0
 10
552.323300
 20
625.187230
 42
0.058778
  0
SEQEND
  0
ENDSEC
  0
EOF
