<?xml version="1.0" encoding="UTF-8"?>
<svg version="1.1" xmlns="http://www.w3.org/2000/svg" width="1024" height="1024">
<path d="M0 0 C337.92 0 675.84 0 1024 0 C1024 337.92 1024 675.84 1024 1024 C686.08 1024 348.16 1024 0 1024 C0 686.08 0 348.16 0 0 Z " fill="#FEFEFE" transform="translate(0,0)"/>
<path d="M0 0 C2.61575022 1.786366 3.91444413 3.0732402 5.5625 5.75 C5.91894531 8.14306641 5.91894531 8.14306641 5.890625 10.8515625 C5.88611328 11.88369873 5.88160156 12.91583496 5.87695312 13.97924805 C5.84504883 15.66014526 5.84504883 15.66014526 5.8125 17.375 C5.80154297 18.53749268 5.79058594 19.69998535 5.77929688 20.89770508 C5.59485514 36.18531855 5.08339926 51.47075004 4.5625 66.75 C5.79226563 66.70359375 7.02203125 66.6571875 8.2890625 66.609375 C9.9218506 66.57183964 11.55466511 66.53544138 13.1875 66.5 C13.99574219 66.46648437 14.80398438 66.43296875 15.63671875 66.3984375 C21.12050755 66.3092702 24.22736302 67.05761203 28.5625 70.75 C30.29881636 74.22263273 30.16440402 77.96193013 29.5625 81.75 C27.38090855 84.50569447 25.69072506 86.18588747 22.5625 87.75 C21.18701844 87.83308638 19.80764204 87.85736016 18.4296875 87.84765625 C17.62402344 87.84443359 16.81835938 87.84121094 15.98828125 87.83789062 C14.72564453 87.82532227 14.72564453 87.82532227 13.4375 87.8125 C12.58800781 87.80798828 11.73851562 87.80347656 10.86328125 87.79882812 C8.76299091 87.78702874 6.6627367 87.76909306 4.5625 87.75 C4.62305722 91.62761443 4.68443473 95.50521544 4.74609375 99.3828125 C4.76523834 100.58996918 4.78438293 101.79712585 4.80410767 103.04086304 C4.91085677 109.67263146 5.02457372 116.30415017 5.15209961 122.93554688 C5.17763309 124.27069081 5.20316106 125.60583486 5.22868347 126.940979 C5.27926883 129.58531075 5.33005957 132.22963858 5.38105774 134.8739624 C5.50922054 141.80009017 5.58518155 148.72126998 5.5703125 155.6484375 C5.59337992 170.59823564 6.47890538 184.88487809 17.00439453 196.42797852 C21.42236483 199.9691387 26.37468033 199.39101366 31.79296875 199.2734375 C33.43768661 199.26692673 33.43768661 199.26692673 35.1156311 199.26028442 C38.66110945 199.23971468 42.20495589 199.18311793 45.75 199.125 C48.16689519 199.1030273 50.58380733 199.08284501 53.00073242 199.06445312 C68.85946845 198.92027731 84.72581944 198.63781749 100.5625 197.75 C100.15257812 197.29109375 99.74265625 196.8321875 99.3203125 196.359375 C98.78148437 195.74578125 98.24265625 195.1321875 97.6875 194.5 C97.15382813 193.89671875 96.62015625 193.2934375 96.0703125 192.671875 C92.67226551 188.34068557 92.02135969 184.71858528 92.1015625 179.296875 C92.8673845 175.06538397 95.34978461 172.47165267 98.5625 169.75 C102.25509529 167.90370236 105.60949215 168.03845859 109.5625 168.75 C118.9958196 172.55442669 127.70110679 177.92279824 136.38964844 183.16625977 C141.71297957 186.34927614 147.08415631 188.94218271 152.828125 191.30078125 C156.60022407 193.29999376 159.63360984 195.89221969 161.5625 199.75 C161.71042873 201.51661038 161.7837169 203.28994064 161.8125 205.0625 C161.83828125 206.00738281 161.8640625 206.95226562 161.890625 207.92578125 C161.24475813 213.4848497 158.05856168 216.45095099 153.9375 219.9375 C150.58710394 222.87509655 147.49120937 225.83048136 144.5625 229.1875 C139.980602 234.39682907 135.13781591 239.32772868 130.25 244.25 C129.06567383 245.45354126 129.06567383 245.45354126 127.85742188 246.68139648 C127.10396484 247.43622314 126.35050781 248.1910498 125.57421875 248.96875 C124.89834717 249.64873047 124.22247559 250.32871094 123.52612305 251.02929688 C119.46991637 254.58370999 116.07571528 255.19625531 110.8125 255.06640625 C106.30628033 254.43271911 103.64896435 251.94511078 100.6875 248.6875 C98.90512959 244.03353282 98.67882571 239.65228834 99.5625 234.75 C101.83230639 230.73144341 104.75805353 228.28629764 108.5625 225.75 C107.30179688 225.81058594 106.04109375 225.87117187 104.7421875 225.93359375 C102.97395899 226.01824299 101.20572979 226.10287757 99.4375 226.1875 C98.62023437 226.22681641 97.80296875 226.26613281 96.9609375 226.30664062 C95.05695497 226.39763979 93.15289212 226.48696447 91.2487793 226.57519531 C88.42950029 226.70888653 85.61093081 226.85003606 82.79223633 226.99511719 C69.75699589 227.64897738 56.73361309 228.02556815 43.68188477 228.10009766 C41.54440553 228.11682618 39.40698586 228.14433076 37.26977539 228.18212891 C21.65531219 228.45434345 8.97029029 228.09607658 -3.55859375 217.59765625 C-6.32051169 214.88167457 -8.36822833 212.02078426 -10.4375 208.75 C-13.69138975 210.15882699 -15.62517516 211.82673144 -18 214.4375 C-26.7870527 223.43727464 -37.13201248 229.03252313 -49.75238037 229.19192505 C-50.82409485 229.18917572 -51.89580933 229.18642639 -53 229.18359375 C-54.16726624 229.19051239 -55.33453247 229.19743103 -56.53717041 229.20455933 C-59.80590837 229.21622074 -63.07407652 229.21184962 -66.3427887 229.19662857 C-68.46693375 229.18737173 -70.59104846 229.1829541 -72.71520996 229.17929077 C-116.6253303 229.07544131 -160.5047222 226.96683256 -204.36499023 225.05718994 C-210.316615 224.79815652 -216.2683926 224.54284417 -222.2202301 224.28875065 C-465.13433294 213.91637215 -465.13433294 213.91637215 -520.4375 184.75 C-521.48035156 184.19828125 -522.52320313 183.6465625 -523.59765625 183.078125 C-542.60893999 172.55804704 -558.99402275 156.63735783 -571.65234375 139.09375 C-573.22412447 136.67312099 -573.22412447 136.67312099 -575.4375 135.75 C-575.66308594 136.41773438 -575.88867188 137.08546875 -576.12109375 137.7734375 C-577.82855751 141.63423092 -580.09078057 144.92036315 -582.5 148.375 C-582.99242187 149.08430664 -583.48484375 149.79361328 -583.9921875 150.52441406 C-590.60212392 159.94827044 -598.01735589 168.52198007 -605.859375 176.92578125 C-607.65269166 178.89027814 -609.36179101 180.84831263 -611.04296875 182.90234375 C-614.18739824 186.64180394 -617.70806676 189.61303525 -621.4375 192.75 C-622.29085937 193.49121094 -623.14421875 194.23242188 -624.0234375 194.99609375 C-657.36012588 223.53777901 -697.74347438 243.56157308 -742.125 244.0625 C-743.25389648 244.08046631 -744.38279297 244.09843262 -745.54589844 244.11694336 C-756.73714385 244.10467584 -767.88287659 242.59493492 -776.4375 234.75 C-779.43281116 230.19943112 -779.06052154 224.99116867 -778.4375 219.75 C-776.07373077 215.38611834 -773.12317425 213.31189142 -768.4375 211.75 C-763.05212575 211.68949018 -758.35894679 212.56269031 -753.4375 214.75 C-729.48442504 219.53358031 -704.86696045 211.11010558 -683.4375 200.75 C-682.45765137 200.284729 -682.45765137 200.284729 -681.45800781 199.81005859 C-664.70902685 191.75094333 -650.01087662 180.34617941 -636.4375 167.75 C-635.81101562 167.16879395 -635.18453125 166.58758789 -634.5390625 165.98876953 C-617.38366895 149.87932982 -597.559219 127.20231972 -589.4375 104.75 C-589.72506033 100.09277288 -591.32081723 95.93911557 -592.875 91.5625 C-596.29656974 81.56710932 -600.45711963 68.69432118 -596.52734375 58.35546875 C-593.42080198 52.97146227 -589.37712828 49.72987609 -583.4375 47.75 C-575.33310863 46.80606091 -569.20091726 48.14029661 -562.4375 52.75 C-559.9375 55.3125 -559.9375 55.3125 -558.4375 57.75 C-558.08429688 58.28367187 -557.73109375 58.81734375 -557.3671875 59.3671875 C-555.96834607 62.95245334 -556.0559864 66.51698749 -556.0625 70.3125 C-556.06193604 71.14152832 -556.06137207 71.97055664 -556.06079102 72.82470703 C-556.19659885 80.7074983 -557.63924399 88.12760061 -559.46484375 95.7734375 C-559.7131897 96.81842407 -559.7131897 96.81842407 -559.96655273 97.88452148 C-560.35290758 99.41491928 -560.80782884 100.92785144 -561.28125 102.43359375 C-561.51731076 105.93319457 -559.99439875 107.61367265 -558 110.4375 C-557.2575 111.49066406 -556.515 112.54382813 -555.75 113.62890625 C-549.74178367 121.73796849 -543.30506905 129.35512218 -536.4375 136.75 C-535.88707031 137.35457031 -535.33664062 137.95914063 -534.76953125 138.58203125 C-522.21738388 151.81602366 -505.7560004 161.00099143 -489.4375 168.75 C-489.7483252 168.04738037 -490.05915039 167.34476074 -490.37939453 166.62084961 C-491.48142869 163.63081276 -491.96385388 160.97420732 -492.3671875 157.81640625 C-492.5209082 156.62869629 -492.67462891 155.44098633 -492.83300781 154.21728516 C-492.99124023 152.92870605 -493.14947266 151.64012695 -493.3125 150.3125 C-493.48274305 148.95100857 -493.65299055 147.5895177 -493.82324219 146.22802734 C-494.37904589 141.73741248 -494.9115498 137.2441993 -495.4375 132.75 C-495.53156128 131.9476593 -495.62562256 131.1453186 -495.72253418 130.31866455 C-496.30530831 125.32312277 -496.87067557 120.3259333 -497.41802979 115.3263855 C-497.59469619 113.7192414 -497.77408413 112.11239362 -497.95648193 110.50588989 C-498.89885687 102.15382012 -499.61389622 93.83803614 -499.734375 85.4296875 C-499.75292542 84.73062286 -499.77147583 84.03155823 -499.79058838 83.31130981 C-499.79366919 78.94078377 -499.12959037 76.21002135 -496.4375 72.75 C-492.66874125 70.23749417 -490.90599866 70.21983914 -486.4375 70.75 C-482.12891238 73.59529371 -479.92285367 75.84766682 -478.4375 80.75 C-478.07254854 83.6828892 -477.93127033 86.61056242 -477.8125 89.5625 C-477.77382813 90.35076172 -477.73515625 91.13902344 -477.6953125 91.95117188 C-477.60161156 93.8837538 -477.51849221 95.81684376 -477.4375 97.75 C-477.0971875 97.03714844 -476.756875 96.32429688 -476.40625 95.58984375 C-472.43322694 87.73889658 -467.78285072 81.25278744 -459.4375 77.75 C-455.24525948 76.91636135 -451.75736053 77.0057336 -447.9921875 79.12890625 C-446.45657809 80.2210641 -444.94957329 81.35505588 -443.48046875 82.53515625 C-441.54293042 83.95940487 -441.54293042 83.95940487 -439.4296875 83.55859375 C-437.34832474 82.71380533 -435.36484082 81.79284529 -433.375 80.75 C-426.20255637 77.00546129 -418.394021 76.63102638 -410.4375 77.75 C-405.33619631 79.55798659 -400.89417356 82.16310917 -396.36328125 85.08984375 C-394.40132119 86.00197575 -394.40132119 86.00197575 -392.40234375 84.88671875 C-391.73332031 84.40847656 -391.06429688 83.93023437 -390.375 83.4375 C-383.32608526 78.49920081 -374.78417395 78.8320071 -366.4375 79.75 C-358.53370312 82.1158345 -353.29692238 88.20322293 -349.3125 95.1875 C-343.84119731 106.90844969 -342.32997477 120.50962955 -342.19921875 133.29296875 C-342.191147 134.0650618 -342.18307526 134.83715485 -342.17475891 135.63264465 C-342.16105264 137.24848266 -342.15027162 138.86434797 -342.14233398 140.48022461 C-342.13073949 142.12386634 -342.11017182 143.76746831 -342.08081055 145.41088867 C-342.03810466 147.80933705 -342.02197257 150.20668741 -342.01171875 152.60546875 C-341.99421066 153.3337236 -341.97670258 154.06197845 -341.95866394 154.81230164 C-341.98031055 159.92690032 -343.20689501 162.81877282 -346.4375 166.75 C-350.15460563 168.60855282 -354.39027281 168.32908439 -358.4375 167.75 C-361.78375024 165.22323961 -363.11727847 163.71066458 -364.4375 159.75 C-364.55553445 157.26871845 -364.62265809 154.81041578 -364.6484375 152.328125 C-364.67656424 150.8111882 -364.70522886 149.2942613 -364.734375 147.77734375 C-364.77514397 145.40837518 -364.81205202 143.03957969 -364.83886719 140.67041016 C-365.00155175 127.41722775 -365.25018238 113.34244778 -372.4375 101.75 C-375.2173816 100.3600592 -377.3561326 100.56511796 -380.4375 100.75 C-381.79135826 101.37393112 -383.13000208 102.03398924 -384.4375 102.75 C-384.2209375 103.47703125 -384.004375 104.2040625 -383.78125 104.953125 C-380.26622674 117.64626456 -379.9588522 130.25601279 -386.25 142.1875 C-390.58624181 147.26709755 -394.34873213 150.38964375 -401.1875 151.1875 C-405.61540796 151.14665214 -407.81726873 149.37700368 -410.9921875 146.453125 C-414.94782501 141.79188728 -414.82240455 137.35468908 -414.8125 131.5 C-414.81233887 130.61699219 -414.81217773 129.73398437 -414.81201172 128.82421875 C-414.64884168 119.27447769 -413.13279582 109.20999246 -408.4375 100.75 C-415.58624771 98.41571503 -421.24971969 97.94501256 -428.4375 100.75 C-428.02177734 101.85408203 -428.02177734 101.85408203 -427.59765625 102.98046875 C-427.23542969 103.95628906 -426.87320312 104.93210937 -426.5 105.9375 C-426.14035156 106.90042969 -425.78070313 107.86335938 -425.41015625 108.85546875 C-421.69273531 119.91815517 -421.85922571 132.80858416 -426.93359375 143.34765625 C-429.43079927 147.33669884 -432.2115744 149.6370372 -436.4375 151.75 C-440.15304927 152.17222151 -442.16623183 151.88020872 -445.5625 150.25 C-449.78448261 146.57871077 -452.01921946 142.66890551 -452.82080078 137.07519531 C-452.97548018 134.08064297 -452.99046189 131.12302102 -452.9375 128.125 C-452.92976563 127.06990234 -452.92203125 126.01480469 -452.9140625 124.92773438 C-452.7317757 116.6691295 -451.48455406 109.4764585 -448.4375 101.75 C-451.0775 101.09 -453.7175 100.43 -456.4375 99.75 C-461.79307895 109.8631404 -466.24419439 119.74082138 -469.4375 130.75 C-469.6953125 131.61496094 -469.953125 132.47992188 -470.21875 133.37109375 C-471.84418534 139.54133186 -471.24745163 144.99641821 -469.9140625 151.17578125 C-468.81085068 157.13493361 -468.5239672 162.74725502 -471.0625 168.3125 C-473.7627471 171.08380624 -475.78622517 171.66462104 -479.4375 172.75 C-450.62806215 179.65192774 -422.35212981 184.12768709 -392.74121094 185.51635742 C-389.27137675 185.76174844 -385.87911731 186.25178351 -382.4375 186.75 C-380.70100263 186.87242409 -378.96231683 186.96806905 -377.22265625 187.03125 C-376.28873047 187.06863281 -375.35480469 187.10601563 -374.39257812 187.14453125 C-373.43802734 187.17933594 -372.48347656 187.21414063 -371.5 187.25 C-369.59493332 187.31974481 -367.68997804 187.39260964 -365.78515625 187.46875 C-364.94992432 187.49904297 -364.11469238 187.52933594 -363.25415039 187.56054688 C-360.34478408 187.75623624 -357.47429146 188.11991758 -354.58338928 188.49478149 C-350.881418 188.93507056 -347.16804211 189.18186832 -343.44921875 189.43359375 C-342.57728378 189.49338913 -341.70534882 189.55318451 -340.80699158 189.61479187 C-337.91327139 189.8101662 -335.01922348 189.9997337 -332.125 190.1875 C-331.12160583 190.25314148 -330.11821167 190.31878296 -329.08441162 190.38641357 C-308.24765579 191.73036494 -287.39916944 192.47552408 -266.5300293 193.10327148 C-264.13720238 193.17546456 -261.74437999 193.24780756 -259.3515625 193.3203125 C-258.20855179 193.35485535 -257.06554108 193.38939819 -255.88789368 193.42498779 C-248.30291981 193.66415817 -240.7401718 194.04635904 -233.16748047 194.53125 C-227.0116018 194.89227024 -220.85128752 195.02851825 -214.6875 195.1875 C-204.54080177 195.46991431 -194.43530924 195.97410472 -184.3125 196.75 C-171.21251159 197.75128466 -158.13034449 198.14731625 -144.99755859 198.40820312 C-144.23758072 198.4244725 -143.47760284 198.44074188 -142.69459534 198.45750427 C-140.63281627 198.50086647 -138.57092592 198.53884425 -136.5090332 198.57641602 C-133.64095431 198.6626532 -130.83271215 198.9159588 -127.98291016 199.24609375 C-120.56496646 200.02621733 -113.11144078 199.99689861 -105.66015625 200.05859375 C-104.4698924 200.06845149 -104.4698924 200.06845149 -103.25558281 200.07850838 C-99.06078749 200.11089032 -94.86601544 200.13539999 -90.67114258 200.1550293 C-87.22512741 200.17286404 -83.77992712 200.20774887 -80.33422852 200.25756836 C-76.14044977 200.31808765 -71.94742744 200.34854424 -67.75323296 200.35820198 C-66.16852394 200.36669462 -64.58383182 200.38535743 -62.9993763 200.4149456 C-51.942748 200.61043917 -43.58770054 199.26653425 -35.04335022 191.6025238 C-18.39606044 174.98233452 -21.91877629 144.12264021 -21.76794434 122.38671875 C-21.73770953 118.47059125 -21.69133202 114.55465445 -21.64648438 110.63867188 C-21.56140123 103.00919507 -21.49514425 95.3797425 -21.4375 87.75 C-25.3975 87.75 -29.3575 87.75 -33.4375 87.75 C-33.7675 89.4 -34.0975 91.05 -34.4375 92.75 C-36.27778172 94.8847268 -37.60018435 95.65880721 -40.41015625 95.96484375 C-45.83073374 96.05338313 -45.83073374 96.05338313 -48.4375 94.75 C-52.19732322 94.3952997 -54.63782012 94.32090348 -58 96.125 C-69.69449285 108.71906922 -72.01764798 123.78676675 -71.78515625 140.24609375 C-71.52116243 146.7487364 -70.25868916 152.33428993 -66.4375 157.75 C-64.00408328 160.07790271 -64.00408328 160.07790271 -61.4375 161.75 C-59.00611295 161.5415954 -57.60899089 160.83574545 -55.4375 159.75 C-50.12559099 159.15123409 -45.85828551 158.85852674 -41.25 161.75 C-38.968448 165.52636193 -38.57650702 168.50354921 -39.4375 172.75 C-41.71917992 178.03934891 -45.29197915 180.51035835 -50.39453125 182.82421875 C-57.24990378 184.90987124 -64.55163037 185.14117271 -71.33984375 182.7109375 C-81.9477795 176.85941054 -88.71647344 167.09960167 -92.40625 155.77734375 C-97.39417287 136.40295816 -95.80831801 114.11628546 -86.12109375 96.45703125 C-78.98950493 84.99023066 -68.94774203 75.04467559 -55.4375 71.75 C-49.0588992 70.99188761 -43.9724625 71.15975406 -38.4375 74.75 C-38.19 73.986875 -37.9425 73.22375 -37.6875 72.4375 C-36.26477136 69.37863342 -35.31740561 68.44638276 -32.4375 66.75 C-29.640625 66.45703125 -29.640625 66.45703125 -26.6875 66.5625 C-25.70265625 66.58957031 -24.7178125 66.61664063 -23.703125 66.64453125 C-22.58164063 66.69673828 -22.58164063 66.69673828 -21.4375 66.75 C-21.44638245 66.0116391 -21.45526489 65.2732782 -21.4644165 64.51254272 C-21.54471259 57.53904911 -21.60554057 50.56562499 -21.64474869 43.59178734 C-21.66558423 40.00679099 -21.69382651 36.42217806 -21.73925781 32.83740234 C-21.78286192 29.3749581 -21.80666743 25.91288159 -21.81700897 22.45018387 C-21.82794821 20.49257518 -21.85915128 18.53511352 -21.89068604 16.57772827 C-21.89347739 5.48350334 -21.89347739 5.48350334 -17.4375 0.75 C-12.36400388 -2.78514689 -5.54334926 -2.01576337 0 0 Z " fill="#030303" transform="translate(808.4375,379.25)"/>
<path d="M0 0 C7.07397374 2.77906111 9.59807866 7.40620593 13 14 C14.88844562 18.41817305 16.52195878 22.90903496 18.125 27.4375 C18.54136719 28.58798828 18.95773437 29.73847656 19.38671875 30.92382812 C20.20792066 33.19564845 21.02452257 35.46913759 21.83618164 37.74438477 C22.94011214 40.83247228 24.06302507 43.9129664 25.19140625 46.9921875 C29.1285613 57.81149743 32.15119597 68.93320877 35.3581543 79.98535156 C37.05656019 85.82171663 38.79197457 91.64201332 40.625 97.4375 C43.19984844 105.59259375 45.64207817 113.77991584 48 122 C48.20044922 122.69109863 48.40089844 123.38219727 48.60742188 124.09423828 C49.1862684 126.10169702 49.7514881 128.11249316 50.3125 130.125 C50.63863281 131.28257812 50.96476563 132.44015625 51.30078125 133.6328125 C52.30609585 138.47404818 52.52854534 142.50245487 50.875 147.1875 C48.58345625 150.62481562 46.72741577 152.20797319 43 154 C39.4375 154.125 39.4375 154.125 36 153 C32.05165165 148.92467567 30.10917524 145.47385926 28.375 140 C27.99085938 138.824375 27.60671875 137.64875 27.2109375 136.4375 C25.44559138 130.38317204 24.27113889 124.17255509 23 118 C18.05606102 118.40783852 13.11221832 118.81681986 8.16845703 119.22680664 C6.49074791 119.3657837 4.81301402 119.50446217 3.13525391 119.64282227 C-8.94067355 120.62595994 -8.94067355 120.62595994 -20.99731445 121.81787109 C-32.05836883 122.82378924 -32.05836883 122.82378924 -37 120 C-40.03641064 117.4696578 -41.20151105 115.81677719 -42 112 C-42.27094482 113.08716309 -42.27094482 113.08716309 -42.54736328 114.19628906 C-43.39225759 117.55131472 -44.25849709 120.90049295 -45.125 124.25 C-45.40859375 125.38953125 -45.6921875 126.5290625 -45.984375 127.703125 C-51.37633984 148.33325133 -51.37633984 148.33325133 -59 153 C-62.05801912 153.59760585 -64.93028792 153.51914248 -68 153 C-71.03215675 150.80168636 -71.81654398 149.55036806 -73 146 C-77.50496698 115.20655482 -54.83377891 73.13797428 -40.93847656 46.79150391 C-39.97793163 44.95787261 -39.0461688 43.11151553 -38.1171875 41.26171875 C-15.99184536 -2.23885835 -15.99184536 -2.23885835 0 0 Z " fill="#040404" transform="translate(660,397)"/>
<path d="M0 0 C8.23320865 6.94725987 13.12183687 16.71364272 14.29296875 27.36328125 C15.06418637 42.07519235 9.32779997 54.31074832 0.17578125 65.671875 C-15.32290489 82.48172981 -39.76799515 92.45735866 -62.26953125 93.97265625 C-63.97089727 94.03694972 -65.67281999 94.0880785 -67.375 94.125 C-68.55437134 94.16560547 -68.55437134 94.16560547 -69.75756836 94.20703125 C-73.84691223 94.17873435 -76.37991128 93.76260292 -79.609375 91.15234375 C-82.53772867 88.13759455 -83.03915744 87.45526257 -83.4375 83.3125 C-83.05867189 78.76656264 -82.18796454 76.93176099 -79.125 73.5625 C-73.53440341 71.07175956 -68.62117385 70.08106501 -62.5625 69.625 C-47.43874519 68.16911234 -29.23257024 64.52277497 -18.5859375 52.66015625 C-13.53228381 45.40397435 -8.73106165 36.62309929 -10.125 27.5625 C-12.64685056 21.2578736 -17.20026241 16.73613123 -23.125 13.5625 C-38.38035877 7.15803387 -53.87738473 8.39629173 -69.25 13.5 C-70.22195313 13.81839844 -71.19390625 14.13679688 -72.1953125 14.46484375 C-75.29841289 15.62747203 -78.17278848 17.06234259 -81.125 18.5625 C-81.91664361 30.87740433 -82.32446132 43.1672995 -82.50942612 55.50547028 C-82.55591562 58.53310644 -82.6087072 61.56057442 -82.6633606 64.58807373 C-82.81842774 73.18015402 -82.97074303 81.77221981 -83.09912109 90.36474609 C-83.17864789 95.65716828 -83.2721788 100.94918344 -83.37494278 106.24120331 C-83.41122664 108.24573825 -83.44230244 110.25037473 -83.46798325 112.25507355 C-83.50429416 115.04709435 -83.55845915 117.83824542 -83.61669922 120.62988281 C-83.62621613 121.85953514 -83.62621613 121.85953514 -83.63592529 123.11402893 C-83.78111513 128.80600278 -84.91354171 133.01081736 -88.75 137.4375 C-92.48428693 139.20637276 -96.07573859 139.2336483 -100.125 138.5625 C-103.6189407 136.14361798 -104.77756535 133.50939836 -106.125 129.5625 C-107.38983084 120.162115 -107.27319387 110.57802633 -107.2578125 101.109375 C-107.25849019 99.75677473 -107.25946403 98.40417457 -107.26071167 97.05157471 C-107.26217288 94.23131132 -107.26008961 91.41107992 -107.25537109 88.59082031 C-107.24973987 85.06165246 -107.25301691 81.53256112 -107.258811 78.00339603 C-107.3632297 2.97449668 -107.3632297 2.97449668 -97.8125 -8.125 C-93.5577735 -10.20288969 -89.8958929 -9.84213279 -85.35546875 -8.8046875 C-81.40645252 -8.35582713 -78.67733314 -9.12441394 -74.875 -10.25 C-73.53171046 -10.62794248 -72.18795921 -11.00424784 -70.84375 -11.37890625 C-69.6165625 -11.72824219 -68.389375 -12.07757813 -67.125 -12.4375 C-44.1629402 -18.92215578 -19.13827567 -13.72963255 0 0 Z " fill="#040404" transform="translate(588.125,412.4375)"/>
<path d="M0 0 C0.66 0 1.32 0 2 0 C6.38710912 11.32444833 10.3780063 22.77724939 14.30810547 34.26635742 C14.71303223 35.4494751 15.11795898 36.63259277 15.53515625 37.8515625 C15.93492676 39.02106445 16.33469727 40.19056641 16.74658203 41.39550781 C17.62038801 43.90833825 18.50808241 46.4109075 19.42138672 48.90917969 C19.65337265 49.54616791 19.88535858 50.18315613 20.12437439 50.83944702 C20.77209419 52.61110317 21.42578725 54.38057216 22.07983398 56.14990234 C23 59 23 59 23 62 C21.45844238 62.07516846 21.45844238 62.07516846 19.88574219 62.15185547 C16.01622688 62.34241147 12.14723269 62.54222956 8.27832031 62.74462891 C6.61438316 62.83042868 4.95032016 62.9138271 3.28613281 62.99462891 C-14.93775662 63.01374846 -14.93775662 63.01374846 -31 70 C-31.99 70.495 -31.99 70.495 -33 71 C-32.36865909 65.3819809 -30.44763424 60.55824833 -28.3125 55.375 C-27.92457275 54.43076172 -27.53664551 53.48652344 -27.13696289 52.51367188 C-8.7419436 8.7419436 -8.7419436 8.7419436 0 0 Z " fill="#F9F9F9" transform="translate(653,432)"/>
<path d="M0 0 C4.02050528 2.66893116 6.51455024 5.39299142 7.9609375 10.09375 C8.14389332 14.58809948 7.55660773 18.0398719 5.3359375 21.96875 C1.62315728 25.29071125 -2.09150281 26.76225048 -6.9765625 27.59375 C-11.41933375 26.86839959 -14.6071206 24.97264166 -18.0390625 22.09375 C-21.03842196 17.78217077 -21.68911221 14.29414771 -21.0390625 9.09375 C-16.48879563 0.93465078 -9.4981698 -4.2214088 0 0 Z " fill="#080808" transform="translate(237.0390625,374.90625)"/>
<path d="M0 0 C9.24 0 18.48 0 28 0 C26.1734773 10.95913622 22.69281424 22.54901636 14 30 C8.86940686 28.10919951 7.69337997 24.14465384 5.4609375 19.453125 C0 6.54545455 0 6.54545455 0 0 Z " fill="#070708" transform="translate(578,340)"/>
<path d="M0 0 C4.46797338 1.39878802 8.63822079 3.13630772 12.875 5.125 C14.02742187 5.66382813 15.17984375 6.20265625 16.3671875 6.7578125 C17.23601563 7.16773438 18.10484375 7.57765625 19 8 C18.12506074 14.99951408 13.15858039 20.19652628 8.01953125 24.7578125 C5.21006949 26.85442576 3.56656154 28 0 28 C-2.82740607 19.3410689 -4.04286655 8.39055241 0 0 Z " fill="#0A0A0A" transform="translate(701,346)"/>
<path d="M0 0 C0.02899599 3.77081722 0.04679729 7.54160583 0.0625 11.3125 C0.07087891 12.38435547 0.07925781 13.45621094 0.08789062 14.56054688 C0.09272461 16.10258789 0.09272461 16.10258789 0.09765625 17.67578125 C0.10551147 19.0975769 0.10551147 19.0975769 0.11352539 20.5480957 C0 23 0 23 -1 26 C-6.26680261 25.62379981 -9.55011941 23.91104715 -13 20 C-16.37353141 15.21100086 -19.11131869 10.85484154 -20 5 C-17.41877492 4.15960114 -14.83536099 3.32749444 -12.25 2.5 C-11.15558594 2.14228516 -11.15558594 2.14228516 -10.0390625 1.77734375 C-9.33007812 1.55175781 -8.62109375 1.32617188 -7.890625 1.09375 C-7.24125977 0.88427734 -6.59189453 0.67480469 -5.92285156 0.45898438 C-4 0 -4 0 0 0 Z " fill="#080808" transform="translate(479,350)"/>
<path d="M0 0 C1.65 0 3.3 0 5 0 C4.88601335 1.62580966 4.75844341 3.25067157 4.625 4.875 C4.55539063 5.77992188 4.48578125 6.68484375 4.4140625 7.6171875 C4 10 4 10 2 12 C0.70756464 7.8803623 -0.26252625 4.33168317 0 0 Z " fill="#E5E5E5" transform="translate(230,446)"/>
<path d="M0 0 C0.33 0.99 0.66 1.98 1 3 C-1.125 5.0625 -1.125 5.0625 -4 7 C-7.3125 6.75 -7.3125 6.75 -10 6 C-10 5.67 -10 5.34 -10 5 C-9.36191406 4.80664062 -8.72382813 4.61328125 -8.06640625 4.4140625 C-7.24011719 4.15367187 -6.41382813 3.89328125 -5.5625 3.625 C-4.32693359 3.24214844 -4.32693359 3.24214844 -3.06640625 2.8515625 C-0.82201984 2.19117773 -0.82201984 2.19117773 0 0 Z " fill="#D4D2D2" transform="translate(337,546)"/>
</svg>
