M48
; DRILL file {KiCad 9.0.1} date 2025-06-22T18:16:10+0900
; FORMAT={-:-/ absolute / inch / decimal}
; #@! TF.CreationDate,2025-06-22T18:16:10+09:00
; #@! TF.GenerationSoftware,Kicad,Pcbnew,9.0.1
; #@! TF.FileFunction,Plated,1,6,PTH
FMAT,2
INCH
; #@! TA.AperFunction,Plated,PTH,ViaDrill
T1C0.0197
; #@! TA.AperFunction,Plated,PTH,ComponentDrill
T2C0.0295
; #@! TA.AperFunction,Plated,PTH,ComponentDrill
T3C0.0300
; #@! TA.AperFunction,Plated,PTH,ComponentDrill
T4C0.0315
; #@! TA.AperFunction,Plated,PTH,ComponentDrill
T5C0.0350
; #@! TA.AperFunction,Plated,PTH,ViaDrill
T6C0.0354
; #@! TA.AperFunction,Plated,PTH,ViaDrill
T7C0.0394
; #@! TA.AperFunction,Plated,PTH,ComponentDrill
T8C0.0394
; #@! TA.AperFunction,Plated,PTH,ComponentDrill
T9C0.0791
%
G90
G05
T1
X1.975Y-7.125
X2.075Y-7.125
X2.175Y-7.125
X2.275Y-7.125
T2
X1.175Y-6.2252
X1.175Y-6.5252
X2.125Y-5.9248
X2.125Y-6.2248
X2.25Y-5.9252
X2.25Y-6.2252
X2.375Y-6.0998
X2.375Y-6.3998
X3.775Y-6.225
X3.775Y-6.525
X4.725Y-5.925
X4.725Y-6.225
X4.85Y-5.9252
X4.85Y-6.2252
X4.975Y-6.0998
X4.975Y-6.3998
T3
X2.75Y-6.0252
X2.75Y-6.1252
X2.75Y-6.3002
X2.75Y-6.4002
X3.05Y-6.0252
X3.05Y-6.1252
X3.05Y-6.3002
X3.05Y-6.4002
X5.35Y-6.025
X5.35Y-6.125
X5.35Y-6.3
X5.35Y-6.4
X5.65Y-6.025
X5.65Y-6.125
X5.65Y-6.3
X5.65Y-6.4
T4
X1.225Y-5.5002
X1.225Y-5.8002
X1.3248Y-6.1252
X1.3248Y-6.2252
X1.3248Y-6.3252
X1.3248Y-6.4252
X1.325Y-5.5002
X1.325Y-5.8002
X1.425Y-5.5002
X1.425Y-5.8002
X1.525Y-5.5002
X1.525Y-5.8002
X1.6248Y-6.1252
X1.6248Y-6.2252
X1.6248Y-6.3252
X1.6248Y-6.4252
X1.8Y-6.575
X1.9Y-6.575
X1.925Y-5.5
X1.925Y-5.8
X2.0Y-6.575
X2.025Y-5.35
X2.025Y-5.5
X2.025Y-5.8
X2.125Y-5.35
X2.125Y-5.5
X2.125Y-5.8
X2.225Y-5.35
X2.225Y-5.5
X2.225Y-5.8
X2.575Y-6.575
X2.6252Y-5.4502
X2.6252Y-5.5502
X2.6252Y-5.6502
X2.6252Y-5.7502
X2.675Y-6.575
X2.775Y-6.575
X2.9252Y-5.4502
X2.9252Y-5.5502
X2.9252Y-5.6502
X2.9252Y-5.7502
X3.475Y-6.8
X3.475Y-6.9
X3.475Y-7.0
X3.475Y-7.1
X3.475Y-7.2
X3.475Y-7.3
X3.475Y-7.4
X3.775Y-6.8
X3.775Y-6.9
X3.775Y-7.0
X3.775Y-7.1
X3.775Y-7.2
X3.775Y-7.3
X3.775Y-7.4
X3.825Y-5.5
X3.825Y-5.8
X3.925Y-5.5
X3.925Y-5.8
X3.925Y-6.125
X3.925Y-6.225
X3.925Y-6.325
X3.925Y-6.425
X4.025Y-5.5
X4.025Y-5.8
X4.125Y-5.5
X4.125Y-5.8
X4.225Y-6.125
X4.225Y-6.225
X4.225Y-6.325
X4.225Y-6.425
X4.525Y-5.5
X4.525Y-5.8
X4.625Y-5.35
X4.625Y-5.5
X4.625Y-5.8
X4.725Y-5.35
X4.725Y-5.5
X4.725Y-5.8
X4.825Y-5.35
X4.825Y-5.5
X4.825Y-5.8
X5.225Y-5.45
X5.225Y-5.55
X5.225Y-5.65
X5.225Y-5.75
X5.525Y-5.45
X5.525Y-5.55
X5.525Y-5.65
X5.525Y-5.75
X5.8Y-6.775
X5.8Y-6.8537
X5.8Y-7.05
X5.8Y-7.1287
T5
X1.5Y-5.1
X1.6Y-5.1
X2.8Y-5.1
X2.9Y-5.1
X4.1Y-5.1
X4.2Y-5.1
X5.4Y-5.1
X5.5Y-5.1
T6
X1.625Y-5.75
X1.975Y-6.225
X2.225Y-6.65
X3.1Y-6.625
X3.2Y-5.975
X3.2Y-6.25
X3.2Y-6.8
X4.3Y-6.025
X4.3Y-6.4
X4.3Y-6.625
X4.525Y-7.2
X4.6Y-6.225
X5.8Y-5.975
X5.8Y-6.25
T7
X1.0925Y-6.1417
X1.0925Y-6.9291
X1.75Y-5.5
X1.925Y-5.975
X2.25Y-6.325
X2.372Y-4.7638
X3.075Y-5.5
X3.375Y-5.75
X3.5Y-6.125
X3.5531Y-5.125
X3.95Y-7.15
X4.075Y-6.05
X4.1Y-7.575
X4.2224Y-7.7559
X4.3Y-7.575
X4.35Y-5.525
X4.5Y-7.575
X4.525Y-6.875
X4.575Y-6.0
X4.9311Y-4.7638
X5.65Y-5.525
X5.7677Y-7.7559
X5.9449Y-4.9606
X6.0138Y-6.1417
T8
X1.1Y-6.8
X1.1Y-7.5
X1.2Y-6.8
X1.2Y-7.5
X1.3Y-6.8
X1.3Y-7.5
X1.4Y-6.8
X1.4Y-7.5
X1.5Y-6.8
X1.5Y-7.5
X1.6Y-6.8
X1.6Y-7.5
X1.7Y-6.8
X1.7Y-7.5
X1.8Y-6.8
X1.8Y-7.5
X1.9Y-6.8
X1.9Y-7.5
X2.0Y-6.8
X2.0Y-7.5
X2.1Y-6.8
X2.1Y-7.5
X2.2Y-6.8
X2.2Y-7.5
X2.3Y-6.8
X2.3Y-7.5
X2.4Y-6.8
X2.4Y-7.5
X2.5Y-6.8
X2.5Y-7.5
X2.6Y-6.8
X2.6Y-7.5
X2.7Y-6.8
X2.7Y-7.5
X2.8Y-6.8
X2.8Y-7.5
X2.9Y-6.8
X2.9Y-7.5
X3.0Y-6.8
X3.0Y-7.5
X4.7Y-7.175
X4.7Y-7.275
X4.7Y-7.375
X5.5Y-6.875
X5.5Y-6.975
X5.5Y-7.075
X5.5Y-7.175
X5.5Y-7.275
X5.5Y-7.375
T9
X1.4Y-4.9
X1.8Y-4.9
X2.7Y-4.9
X3.1Y-4.9
X4.0Y-4.9
X4.4Y-4.9
X5.3Y-4.9
X5.7Y-4.9
M30
