%TF.GenerationSoftware,KiCad,Pcbnew,9.0.1*%
%TF.CreationDate,2025-06-22T18:16:09+09:00*%
%TF.ProjectId,SMU,534d552e-6b69-4636-9164-5f7063625858,rev?*%
%TF.SameCoordinates,Original*%
%TF.FileFunction,Copper,L5,Inr*%
%TF.FilePolarity,Positive*%
%FSLAX46Y46*%
G04 Gerber Fmt 4.6, Leading zero omitted, Abs format (unit mm)*
G04 Created by KiCad (PCBNEW 9.0.1) date 2025-06-22 18:16:09*
%MOMM*%
%LPD*%
G01*
G04 APERTURE LIST*
G04 Aperture macros list*
%AMRoundRect*
0 Rectangle with rounded corners*
0 $1 Rounding radius*
0 $2 $3 $4 $5 $6 $7 $8 $9 X,Y pos of 4 corners*
0 Add a 4 corners polygon primitive as box body*
4,1,4,$2,$3,$4,$5,$6,$7,$8,$9,$2,$3,0*
0 Add four circle primitives for the rounded corners*
1,1,$1+$1,$2,$3*
1,1,$1+$1,$4,$5*
1,1,$1+$1,$6,$7*
1,1,$1+$1,$8,$9*
0 Add four rect primitives between the rounded corners*
20,1,$1+$1,$2,$3,$4,$5,0*
20,1,$1+$1,$4,$5,$6,$7,0*
20,1,$1+$1,$6,$7,$8,$9,0*
20,1,$1+$1,$8,$9,$2,$3,0*%
%AMFreePoly0*
4,1,37,0.603843,0.796157,0.639018,0.796157,0.711114,0.766294,0.766294,0.711114,0.796157,0.639018,0.796157,0.603843,0.800000,0.600000,0.800000,-0.600000,0.796157,-0.603843,0.796157,-0.639018,0.766294,-0.711114,0.711114,-0.766294,0.639018,-0.796157,0.603843,-0.796157,0.600000,-0.800000,0.000000,-0.800000,0.000000,-0.796148,-0.078414,-0.796148,-0.232228,-0.765552,-0.377117,-0.705537,
-0.507515,-0.618408,-0.618408,-0.507515,-0.705537,-0.377117,-0.765552,-0.232228,-0.796148,-0.078414,-0.796148,0.078414,-0.765552,0.232228,-0.705537,0.377117,-0.618408,0.507515,-0.507515,0.618408,-0.377117,0.705537,-0.232228,0.765552,-0.078414,0.796148,0.000000,0.796148,0.000000,0.800000,0.600000,0.800000,0.603843,0.796157,0.603843,0.796157,$1*%
%AMFreePoly1*
4,1,37,0.000000,0.796148,0.078414,0.796148,0.232228,0.765552,0.377117,0.705537,0.507515,0.618408,0.618408,0.507515,0.705537,0.377117,0.765552,0.232228,0.796148,0.078414,0.796148,-0.078414,0.765552,-0.232228,0.705537,-0.377117,0.618408,-0.507515,0.507515,-0.618408,0.377117,-0.705537,0.232228,-0.765552,0.078414,-0.796148,0.000000,-0.796148,0.000000,-0.800000,-0.600000,-0.800000,
-0.603843,-0.796157,-0.639018,-0.796157,-0.711114,-0.766294,-0.766294,-0.711114,-0.796157,-0.639018,-0.796157,-0.603843,-0.800000,-0.600000,-0.800000,0.600000,-0.796157,0.603843,-0.796157,0.639018,-0.766294,0.711114,-0.711114,0.766294,-0.639018,0.796157,-0.603843,0.796157,-0.600000,0.800000,0.000000,0.800000,0.000000,0.796148,0.000000,0.796148,$1*%
G04 Aperture macros list end*
%TA.AperFunction,ComponentPad*%
%ADD10C,1.270000*%
%TD*%
%TA.AperFunction,ComponentPad*%
%ADD11RoundRect,0.250000X0.550000X0.550000X-0.550000X0.550000X-0.550000X-0.550000X0.550000X-0.550000X0*%
%TD*%
%TA.AperFunction,ComponentPad*%
%ADD12C,1.600000*%
%TD*%
%TA.AperFunction,ComponentPad*%
%ADD13RoundRect,0.250001X-0.499999X0.499999X-0.499999X-0.499999X0.499999X-0.499999X0.499999X0.499999X0*%
%TD*%
%TA.AperFunction,ComponentPad*%
%ADD14C,1.500000*%
%TD*%
%TA.AperFunction,ComponentPad*%
%ADD15RoundRect,0.250000X-0.550000X0.550000X-0.550000X-0.550000X0.550000X-0.550000X0.550000X0.550000X0*%
%TD*%
%TA.AperFunction,ComponentPad*%
%ADD16O,1.600000X2.500000*%
%TD*%
%TA.AperFunction,ComponentPad*%
%ADD17O,3.500000X7.000000*%
%TD*%
%TA.AperFunction,ComponentPad*%
%ADD18RoundRect,0.250000X-0.550000X-0.550000X0.550000X-0.550000X0.550000X0.550000X-0.550000X0.550000X0*%
%TD*%
%TA.AperFunction,ComponentPad*%
%ADD19RoundRect,0.250000X0.550000X-0.550000X0.550000X0.550000X-0.550000X0.550000X-0.550000X-0.550000X0*%
%TD*%
%TA.AperFunction,ComponentPad*%
%ADD20RoundRect,0.250001X0.499999X-0.499999X0.499999X0.499999X-0.499999X0.499999X-0.499999X-0.499999X0*%
%TD*%
%TA.AperFunction,ComponentPad*%
%ADD21C,1.700000*%
%TD*%
%TA.AperFunction,ComponentPad*%
%ADD22R,1.500000X1.500000*%
%TD*%
%TA.AperFunction,ComponentPad*%
%ADD23RoundRect,0.200000X0.600000X-0.600000X0.600000X0.600000X-0.600000X0.600000X-0.600000X-0.600000X0*%
%TD*%
%TA.AperFunction,ComponentPad*%
%ADD24FreePoly0,90.000000*%
%TD*%
%TA.AperFunction,ComponentPad*%
%ADD25FreePoly1,90.000000*%
%TD*%
%TA.AperFunction,ViaPad*%
%ADD26C,1.500000*%
%TD*%
G04 APERTURE END LIST*
D10*
%TO.N,Net-(R22-Pad2)*%
%TO.C,U16*%
X77470000Y-162565000D03*
%TO.N,GND*%
X77470000Y-160025000D03*
%TO.N,Net-(R19-Pad2)*%
X69850000Y-160025000D03*
%TO.N,/PotentioStatUnit1/Vcrr*%
X69850000Y-162565000D03*
%TD*%
%TO.N,Net-(R11-Pad1)*%
%TO.C,U10*%
X143510000Y-162560000D03*
%TO.N,GND*%
X143510000Y-160020000D03*
%TO.N,Net-(R6-Pad2)*%
X135890000Y-160020000D03*
%TO.N,/PotentioStatUnit/Vcrr*%
X135890000Y-162560000D03*
%TD*%
%TO.N,Net-(R10-Pad2)*%
%TO.C,U9*%
X143510000Y-155575000D03*
%TO.N,GND*%
X143510000Y-153035000D03*
%TO.N,Net-(R5-Pad2)*%
X135890000Y-153035000D03*
%TO.N,/PotentioStatUnit/Vcrr*%
X135890000Y-155575000D03*
%TD*%
%TO.N,Net-(R21-Pad1)*%
%TO.C,U15*%
X77470000Y-155580000D03*
%TO.N,GND*%
X77470000Y-153040000D03*
%TO.N,Net-(R18-Pad2)*%
X69850000Y-153040000D03*
%TO.N,/PotentioStatUnit1/Vcrr*%
X69850000Y-155580000D03*
%TD*%
D11*
%TO.N,unconnected-(U11-VOS-Pad1)*%
%TO.C,U11*%
X107315000Y-163195000D03*
D12*
%TO.N,Net-(U11--)*%
X107315000Y-160655000D03*
%TO.N,Net-(U11-+)*%
X107315000Y-158115000D03*
%TO.N,-12V*%
X107315000Y-155575000D03*
%TO.N,unconnected-(U11-NC-Pad5)*%
X99695000Y-155575000D03*
%TO.N,/\u53CD\u8EE2\u56DE\u8DEF/OUTPUT*%
X99695000Y-158115000D03*
%TO.N,+12V*%
X99695000Y-160655000D03*
%TO.N,unconnected-(U11-VOS-Pad8)*%
X99695000Y-163195000D03*
%TD*%
D13*
%TO.N,Net-(D7-A)*%
%TO.C,D8*%
X60325000Y-154935000D03*
D14*
%TO.N,/PotentioStatUnit1/Vcrr*%
X60325000Y-162555000D03*
%TD*%
D13*
%TO.N,Net-(D3-A)*%
%TO.C,D4*%
X126365000Y-154935000D03*
D14*
%TO.N,/PotentioStatUnit/Vcrr*%
X126365000Y-162555000D03*
%TD*%
D15*
%TO.N,GND*%
%TO.C,C2*%
X147320000Y-179070000D03*
D12*
%TO.N,-12V*%
X147320000Y-181070000D03*
%TD*%
D15*
%TO.N,+12V*%
%TO.C,C1*%
X147320000Y-172085000D03*
D12*
%TO.N,GND*%
X147320000Y-174085000D03*
%TD*%
D16*
%TO.N,Net-(J2-In)*%
%TO.C,J2*%
X73660000Y-129540000D03*
D17*
%TO.N,/PotentioStatUnit1/WE*%
X68580000Y-124460000D03*
D16*
X71120000Y-129540000D03*
D17*
X78740000Y-124460000D03*
%TD*%
D18*
%TO.N,unconnected-(U14-VOS-Pad1)*%
%TO.C,U14*%
X66680000Y-138435000D03*
D12*
%TO.N,/PotentioStatUnit1/WE*%
X66680000Y-140975000D03*
%TO.N,GND*%
X66680000Y-143515000D03*
%TO.N,-12V*%
X66680000Y-146055000D03*
%TO.N,unconnected-(U14-NC-Pad5)*%
X74300000Y-146055000D03*
%TO.N,/PotentioStatUnit1/Vcrr*%
X74300000Y-143515000D03*
%TO.N,+12V*%
X74300000Y-140975000D03*
%TO.N,unconnected-(U14-VOS-Pad8)*%
X74300000Y-138435000D03*
%TD*%
D19*
%TO.N,unconnected-(U6-VOS-Pad1)*%
%TO.C,U6*%
X114935000Y-147320000D03*
D12*
%TO.N,Net-(U6--)*%
X117475000Y-147320000D03*
%TO.N,GND*%
X120015000Y-147320000D03*
%TO.N,-12V*%
X122555000Y-147320000D03*
%TO.N,unconnected-(U6-NC-Pad5)*%
X122555000Y-139700000D03*
%TO.N,/PotentioStatUnit/CE*%
X120015000Y-139700000D03*
%TO.N,+12V*%
X117475000Y-139700000D03*
%TO.N,unconnected-(U6-VOS-Pad8)*%
X114935000Y-139700000D03*
%TD*%
D20*
%TO.N,Net-(D2-A)*%
%TO.C,D3*%
X123190000Y-158120000D03*
D14*
%TO.N,Net-(D3-A)*%
X123190000Y-150500000D03*
%TD*%
D15*
%TO.N,unconnected-(U7-VOS-Pad1)*%
%TO.C,U7*%
X104775000Y-139700000D03*
D12*
%TO.N,/PotentioStatUnit/Vre*%
X102235000Y-139700000D03*
%TO.N,/PotentioStatUnit/RE*%
X99695000Y-139700000D03*
%TO.N,-12V*%
X97155000Y-139700000D03*
%TO.N,unconnected-(U7-NC-Pad5)*%
X97155000Y-147320000D03*
%TO.N,/PotentioStatUnit/Vre*%
X99695000Y-147320000D03*
%TO.N,+12V*%
X102235000Y-147320000D03*
%TO.N,unconnected-(U7-VOS-Pad8)*%
X104775000Y-147320000D03*
%TD*%
D21*
%TO.N,VSYS*%
%TO.C,U1*%
X119380000Y-182245000D03*
X119380000Y-184785000D03*
%TO.N,GND*%
X119380000Y-187325000D03*
%TO.N,+12V*%
X139700000Y-174625000D03*
X139700000Y-177165000D03*
%TO.N,GND*%
X139700000Y-179705000D03*
X139700000Y-182245000D03*
%TO.N,-12V*%
X139700000Y-184785000D03*
X139700000Y-187325000D03*
%TD*%
D22*
%TO.N,/PotentioStatUnit1/RE*%
%TO.C,SW1*%
X51435000Y-135890000D03*
D12*
%TO.N,/PotentioStatUnit1/CE*%
X53975000Y-135890000D03*
%TO.N,Net-(J2-In)*%
X56515000Y-135890000D03*
%TD*%
D19*
%TO.N,unconnected-(U12-VOS-Pad1)*%
%TO.C,U12*%
X48895000Y-147320000D03*
D12*
%TO.N,Net-(U12--)*%
X51435000Y-147320000D03*
%TO.N,GND*%
X53975000Y-147320000D03*
%TO.N,-12V*%
X56515000Y-147320000D03*
%TO.N,unconnected-(U12-NC-Pad5)*%
X56515000Y-139700000D03*
%TO.N,/PotentioStatUnit1/CE*%
X53975000Y-139700000D03*
%TO.N,+12V*%
X51435000Y-139700000D03*
%TO.N,unconnected-(U12-VOS-Pad8)*%
X48895000Y-139700000D03*
%TD*%
D16*
%TO.N,/PotentioStatUnit1/RE*%
%TO.C,J1*%
X40640000Y-129540000D03*
D17*
%TO.N,/PotentioStatUnit1/WE*%
X35560000Y-124460000D03*
D16*
X38100000Y-129540000D03*
D17*
X45720000Y-124460000D03*
%TD*%
D20*
%TO.N,GND*%
%TO.C,D1*%
X95885000Y-165735000D03*
D14*
%TO.N,/\u53CD\u8EE2\u56DE\u8DEF/OUTPUT*%
X95885000Y-158115000D03*
%TD*%
D22*
%TO.N,Net-(A1-GPIO26_ADC0)*%
%TO.C,SW3*%
X50800000Y-167005000D03*
D12*
%TO.N,/\u53CD\u8EE2\u56DE\u8DEF1/OUTPUT*%
X48260000Y-167005000D03*
%TO.N,unconnected-(SW3-C-Pad3)*%
X45720000Y-167005000D03*
%TD*%
D22*
%TO.N,/PotentioStatUnit/RE*%
%TO.C,SW2*%
X117475000Y-135890000D03*
D12*
%TO.N,/PotentioStatUnit/CE*%
X120015000Y-135890000D03*
%TO.N,Net-(J4-In)*%
X122555000Y-135890000D03*
%TD*%
D18*
%TO.N,unconnected-(U8-VOS-Pad1)*%
%TO.C,U8*%
X132715000Y-138430000D03*
D12*
%TO.N,/PotentioStatUnit/WE*%
X132715000Y-140970000D03*
%TO.N,GND*%
X132715000Y-143510000D03*
%TO.N,-12V*%
X132715000Y-146050000D03*
%TO.N,unconnected-(U8-NC-Pad5)*%
X140335000Y-146050000D03*
%TO.N,/PotentioStatUnit/Vcrr*%
X140335000Y-143510000D03*
%TO.N,+12V*%
X140335000Y-140970000D03*
%TO.N,unconnected-(U8-VOS-Pad8)*%
X140335000Y-138430000D03*
%TD*%
D11*
%TO.N,unconnected-(U17-VOS-Pad1)*%
%TO.C,U17*%
X41270000Y-163200000D03*
D12*
%TO.N,Net-(U17--)*%
X41270000Y-160660000D03*
%TO.N,Net-(U17-+)*%
X41270000Y-158120000D03*
%TO.N,-12V*%
X41270000Y-155580000D03*
%TO.N,unconnected-(U17-NC-Pad5)*%
X33650000Y-155580000D03*
%TO.N,/\u53CD\u8EE2\u56DE\u8DEF1/OUTPUT*%
X33650000Y-158120000D03*
%TO.N,+12V*%
X33650000Y-160660000D03*
%TO.N,unconnected-(U17-VOS-Pad8)*%
X33650000Y-163200000D03*
%TD*%
D13*
%TO.N,GND*%
%TO.C,D6*%
X53975000Y-150490000D03*
D14*
%TO.N,Net-(D6-A)*%
X53975000Y-158110000D03*
%TD*%
D16*
%TO.N,/PotentioStatUnit/RE*%
%TO.C,J3*%
X106680000Y-129540000D03*
D17*
%TO.N,/PotentioStatUnit/WE*%
X101600000Y-124460000D03*
D16*
X104140000Y-129540000D03*
D17*
X111760000Y-124460000D03*
%TD*%
D22*
%TO.N,Net-(A1-GPIO27_ADC1)*%
%TO.C,SW4*%
X65405000Y-167005000D03*
D12*
%TO.N,/\u53CD\u8EE2\u56DE\u8DEF/OUTPUT*%
X67945000Y-167005000D03*
%TO.N,unconnected-(SW4-C-Pad3)*%
X70485000Y-167005000D03*
%TD*%
D13*
%TO.N,GND*%
%TO.C,D2*%
X120015000Y-150495000D03*
D14*
%TO.N,Net-(D2-A)*%
X120015000Y-158115000D03*
%TD*%
D20*
%TO.N,Net-(D6-A)*%
%TO.C,D7*%
X57150000Y-158120000D03*
D14*
%TO.N,Net-(D7-A)*%
X57150000Y-150500000D03*
%TD*%
D15*
%TO.N,unconnected-(U13-VOS-Pad1)*%
%TO.C,U13*%
X38735000Y-139705000D03*
D12*
%TO.N,/PotentioStatUnit1/Vre*%
X36195000Y-139705000D03*
%TO.N,/PotentioStatUnit1/RE*%
X33655000Y-139705000D03*
%TO.N,-12V*%
X31115000Y-139705000D03*
%TO.N,unconnected-(U13-NC-Pad5)*%
X31115000Y-147325000D03*
%TO.N,/PotentioStatUnit1/Vre*%
X33655000Y-147325000D03*
%TO.N,+12V*%
X36195000Y-147325000D03*
%TO.N,unconnected-(U13-VOS-Pad8)*%
X38735000Y-147325000D03*
%TD*%
D20*
%TO.N,GND*%
%TO.C,D5*%
X29845000Y-165740000D03*
D14*
%TO.N,/\u53CD\u8EE2\u56DE\u8DEF1/OUTPUT*%
X29845000Y-158120000D03*
%TD*%
D16*
%TO.N,Net-(J4-In)*%
%TO.C,J4*%
X139700000Y-129540000D03*
D17*
%TO.N,/PotentioStatUnit/WE*%
X134620000Y-124460000D03*
D16*
X137160000Y-129540000D03*
D17*
X144780000Y-124460000D03*
%TD*%
D23*
%TO.N,unconnected-(A1-GPIO0-Pad1)*%
%TO.C,A1*%
X27940000Y-190500000D03*
D12*
%TO.N,unconnected-(A1-GPIO1-Pad2)*%
X30480000Y-190500000D03*
D24*
%TO.N,GND*%
X33020000Y-190500000D03*
D12*
%TO.N,unconnected-(A1-GPIO2-Pad4)*%
X35560000Y-190500000D03*
%TO.N,unconnected-(A1-GPIO3-Pad5)*%
X38100000Y-190500000D03*
%TO.N,unconnected-(A1-GPIO4-Pad6)*%
X40640000Y-190500000D03*
%TO.N,unconnected-(A1-GPIO5-Pad7)*%
X43180000Y-190500000D03*
D24*
%TO.N,GND*%
X45720000Y-190500000D03*
D12*
%TO.N,x1k_1*%
X48260000Y-190500000D03*
%TO.N,x10k_1*%
X50800000Y-190500000D03*
%TO.N,x1k_2*%
X53340000Y-190500000D03*
%TO.N,x10k_2*%
X55880000Y-190500000D03*
D24*
%TO.N,GND*%
X58420000Y-190500000D03*
D12*
%TO.N,unconnected-(A1-GPIO10-Pad14)*%
X60960000Y-190500000D03*
%TO.N,unconnected-(A1-GPIO11-Pad15)*%
X63500000Y-190500000D03*
%TO.N,unconnected-(A1-GPIO12-Pad16)*%
X66040000Y-190500000D03*
%TO.N,unconnected-(A1-GPIO13-Pad17)*%
X68580000Y-190500000D03*
D24*
%TO.N,GND*%
X71120000Y-190500000D03*
D12*
%TO.N,unconnected-(A1-GPIO14-Pad19)*%
X73660000Y-190500000D03*
%TO.N,unconnected-(A1-GPIO15-Pad20)*%
X76200000Y-190500000D03*
%TO.N,unconnected-(A1-GPIO16-Pad21)*%
X76200000Y-172720000D03*
%TO.N,Net-(A1-GPIO17)*%
X73660000Y-172720000D03*
D25*
%TO.N,GND*%
X71120000Y-172720000D03*
D12*
%TO.N,Net-(A1-GPIO18)*%
X68580000Y-172720000D03*
%TO.N,Net-(A1-GPIO19)*%
X66040000Y-172720000D03*
%TO.N,Net-(A1-GPIO20)*%
X63500000Y-172720000D03*
%TO.N,unconnected-(A1-GPIO21-Pad27)*%
X60960000Y-172720000D03*
D25*
%TO.N,GND*%
X58420000Y-172720000D03*
D12*
%TO.N,unconnected-(A1-GPIO22-Pad29)*%
X55880000Y-172720000D03*
%TO.N,unconnected-(A1-RUN-Pad30)*%
X53340000Y-172720000D03*
%TO.N,Net-(A1-GPIO26_ADC0)*%
X50800000Y-172720000D03*
%TO.N,Net-(A1-GPIO27_ADC1)*%
X48260000Y-172720000D03*
D25*
%TO.N,unconnected-(A1-AGND-Pad33)*%
X45720000Y-172720000D03*
D12*
%TO.N,unconnected-(A1-GPIO28_ADC2-Pad34)*%
X43180000Y-172720000D03*
%TO.N,Net-(A1-ADC_VREF)*%
X40640000Y-172720000D03*
%TO.N,+3.3V*%
X38100000Y-172720000D03*
%TO.N,unconnected-(A1-3V3_EN-Pad37)*%
X35560000Y-172720000D03*
D25*
%TO.N,GND*%
X33020000Y-172720000D03*
D12*
%TO.N,VSYS*%
X30480000Y-172720000D03*
%TO.N,unconnected-(A1-VBUS-Pad40)*%
X27940000Y-172720000D03*
%TD*%
D26*
%TO.N,GND*%
X57150000Y-160655000D03*
X151000000Y-126000000D03*
X48895000Y-151765000D03*
X107250000Y-197000000D03*
X125250000Y-121000000D03*
X103505000Y-153670000D03*
X60250000Y-121000000D03*
X27750000Y-156000000D03*
X109220000Y-192405000D03*
X27750000Y-176000000D03*
X114935000Y-174625000D03*
X90250000Y-130175000D03*
X146500000Y-197000000D03*
X85725000Y-146050000D03*
X116205000Y-152400000D03*
X152750000Y-156000000D03*
%TO.N,/PotentioStatUnit/Vcrr*%
X143510000Y-140335000D03*
%TO.N,/PotentioStatUnit1/Vcrr*%
X78105000Y-139700000D03*
%TO.N,/REF_+2.048V*%
X100330000Y-181610000D03*
%TO.N,/PotentioStatUnit/Vre*%
X110490000Y-140335000D03*
%TO.N,/PotentioStatUnit1/Vre*%
X44450000Y-139700000D03*
%TO.N,-12V*%
X104140000Y-192405000D03*
%TO.N,+12V*%
X114300000Y-192405000D03*
%TO.N,3.0V_REF*%
X88900000Y-155575000D03*
%TD*%
M02*
