%TF.GenerationSoftware,KiCad,Pcbnew,9.0.1*%
%TF.CreationDate,2025-06-22T18:16:10+09:00*%
%TF.ProjectId,SMU,534d552e-6b69-4636-9164-5f7063625858,rev?*%
%TF.SameCoordinates,Original*%
%TF.FileFunction,Legend,Bot*%
%TF.FilePolarity,Positive*%
%FSLAX46Y46*%
G04 Gerber Fmt 4.6, Leading zero omitted, Abs format (unit mm)*
G04 Created by KiCad (PCBNEW 9.0.1) date 2025-06-22 18:16:10*
%MOMM*%
%LPD*%
G01*
G04 APERTURE LIST*
G04 Aperture macros list*
%AMRoundRect*
0 Rectangle with rounded corners*
0 $1 Rounding radius*
0 $2 $3 $4 $5 $6 $7 $8 $9 X,Y pos of 4 corners*
0 Add a 4 corners polygon primitive as box body*
4,1,4,$2,$3,$4,$5,$6,$7,$8,$9,$2,$3,0*
0 Add four circle primitives for the rounded corners*
1,1,$1+$1,$2,$3*
1,1,$1+$1,$4,$5*
1,1,$1+$1,$6,$7*
1,1,$1+$1,$8,$9*
0 Add four rect primitives between the rounded corners*
20,1,$1+$1,$2,$3,$4,$5,0*
20,1,$1+$1,$4,$5,$6,$7,0*
20,1,$1+$1,$6,$7,$8,$9,0*
20,1,$1+$1,$8,$9,$2,$3,0*%
%AMFreePoly0*
4,1,37,0.603843,0.796157,0.639018,0.796157,0.711114,0.766294,0.766294,0.711114,0.796157,0.639018,0.796157,0.603843,0.800000,0.600000,0.800000,-0.600000,0.796157,-0.603843,0.796157,-0.639018,0.766294,-0.711114,0.711114,-0.766294,0.639018,-0.796157,0.603843,-0.796157,0.600000,-0.800000,0.000000,-0.800000,0.000000,-0.796148,-0.078414,-0.796148,-0.232228,-0.765552,-0.377117,-0.705537,
-0.507515,-0.618408,-0.618408,-0.507515,-0.705537,-0.377117,-0.765552,-0.232228,-0.796148,-0.078414,-0.796148,0.078414,-0.765552,0.232228,-0.705537,0.377117,-0.618408,0.507515,-0.507515,0.618408,-0.377117,0.705537,-0.232228,0.765552,-0.078414,0.796148,0.000000,0.796148,0.000000,0.800000,0.600000,0.800000,0.603843,0.796157,0.603843,0.796157,$1*%
%AMFreePoly1*
4,1,37,0.000000,0.796148,0.078414,0.796148,0.232228,0.765552,0.377117,0.705537,0.507515,0.618408,0.618408,0.507515,0.705537,0.377117,0.765552,0.232228,0.796148,0.078414,0.796148,-0.078414,0.765552,-0.232228,0.705537,-0.377117,0.618408,-0.507515,0.507515,-0.618408,0.377117,-0.705537,0.232228,-0.765552,0.078414,-0.796148,0.000000,-0.796148,0.000000,-0.800000,-0.600000,-0.800000,
-0.603843,-0.796157,-0.639018,-0.796157,-0.711114,-0.766294,-0.766294,-0.711114,-0.796157,-0.639018,-0.796157,-0.603843,-0.800000,-0.600000,-0.800000,0.600000,-0.796157,0.603843,-0.796157,0.639018,-0.766294,0.711114,-0.711114,0.766294,-0.639018,0.796157,-0.603843,0.796157,-0.600000,0.800000,0.000000,0.800000,0.000000,0.796148,0.000000,0.796148,$1*%
G04 Aperture macros list end*
%ADD10C,0.100000*%
%ADD11C,0.150000*%
%ADD12C,0.120000*%
%ADD13C,1.270000*%
%ADD14RoundRect,0.250000X0.550000X0.550000X-0.550000X0.550000X-0.550000X-0.550000X0.550000X-0.550000X0*%
%ADD15C,1.600000*%
%ADD16RoundRect,0.250001X-0.499999X0.499999X-0.499999X-0.499999X0.499999X-0.499999X0.499999X0.499999X0*%
%ADD17C,1.500000*%
%ADD18RoundRect,0.250000X-0.550000X0.550000X-0.550000X-0.550000X0.550000X-0.550000X0.550000X0.550000X0*%
%ADD19C,2.200000*%
%ADD20O,1.600000X2.500000*%
%ADD21O,3.500000X7.000000*%
%ADD22RoundRect,0.250000X-0.550000X-0.550000X0.550000X-0.550000X0.550000X0.550000X-0.550000X0.550000X0*%
%ADD23RoundRect,0.250000X0.550000X-0.550000X0.550000X0.550000X-0.550000X0.550000X-0.550000X-0.550000X0*%
%ADD24RoundRect,0.250001X0.499999X-0.499999X0.499999X0.499999X-0.499999X0.499999X-0.499999X-0.499999X0*%
%ADD25C,1.700000*%
%ADD26R,1.500000X1.500000*%
%ADD27C,1.850000*%
%ADD28RoundRect,0.200000X0.600000X-0.600000X0.600000X0.600000X-0.600000X0.600000X-0.600000X-0.600000X0*%
%ADD29FreePoly0,90.000000*%
%ADD30FreePoly1,90.000000*%
%ADD31RoundRect,0.150000X0.150000X-0.587500X0.150000X0.587500X-0.150000X0.587500X-0.150000X-0.587500X0*%
%ADD32RoundRect,0.200000X0.200000X0.275000X-0.200000X0.275000X-0.200000X-0.275000X0.200000X-0.275000X0*%
%ADD33RoundRect,0.150000X0.587500X0.150000X-0.587500X0.150000X-0.587500X-0.150000X0.587500X-0.150000X0*%
G04 APERTURE END LIST*
D10*
G36*
X76307557Y-178252745D02*
G01*
X75550404Y-178252745D01*
X75550404Y-178967522D01*
X75553999Y-178992608D01*
X75562983Y-179006601D01*
X75579024Y-179014982D01*
X75611831Y-179020645D01*
X75699881Y-179020645D01*
X75847770Y-179020645D01*
X76030586Y-179017836D01*
X75987233Y-179117243D01*
X75957923Y-179216650D01*
X75651887Y-179212376D01*
X75536631Y-179202838D01*
X75457714Y-179185875D01*
X75392290Y-179153172D01*
X75357208Y-179112969D01*
X75339275Y-179059130D01*
X75332051Y-178973018D01*
X75332051Y-178252745D01*
X74534720Y-178252745D01*
X74534720Y-178067976D01*
X74756004Y-178067976D01*
X76100317Y-178067976D01*
X76100317Y-177608921D01*
X74756004Y-177608921D01*
X74756004Y-178067976D01*
X74534720Y-178067976D01*
X74534720Y-177424030D01*
X76307557Y-177424030D01*
X76307557Y-178252745D01*
G37*
G36*
X74912808Y-178510544D02*
G01*
X74719734Y-178719371D01*
X74530690Y-178940778D01*
X74448722Y-179047014D01*
X74391960Y-179132630D01*
X74190338Y-179023454D01*
X74336029Y-178834288D01*
X74527882Y-178619965D01*
X74725230Y-178418098D01*
X74912808Y-178510544D01*
G37*
G36*
X76249403Y-178512662D02*
G01*
X76324532Y-178618499D01*
X76409528Y-178720830D01*
X76503562Y-178818900D01*
X76603690Y-178909934D01*
X76705062Y-178989870D01*
X76618356Y-179044459D01*
X76537145Y-179113091D01*
X76432935Y-179027137D01*
X76328684Y-178928077D01*
X76229445Y-178821704D01*
X76135610Y-178709602D01*
X76049815Y-178593964D01*
X75980272Y-178485387D01*
X76192885Y-178415411D01*
X76249403Y-178512662D01*
G37*
G36*
X75553213Y-176968761D02*
G01*
X76651939Y-176968761D01*
X76651939Y-177170383D01*
X74212686Y-177170383D01*
X74212686Y-176968761D01*
X75332051Y-176968761D01*
X75332051Y-176641231D01*
X75553213Y-176641231D01*
X75553213Y-176968761D01*
G37*
G36*
X73786238Y-176970715D02*
G01*
X72806336Y-176970715D01*
X72806336Y-177158293D01*
X73786238Y-177158293D01*
X73786238Y-176970715D01*
G37*
G36*
X73489727Y-178862131D02*
G01*
X72702899Y-178862131D01*
X72702899Y-179038597D01*
X73489727Y-179038597D01*
X73489727Y-178862131D01*
G37*
G36*
X73489727Y-178397093D02*
G01*
X72700090Y-178397093D01*
X72700090Y-178565132D01*
X73489727Y-178565132D01*
X73489727Y-178397093D01*
G37*
G36*
X73915076Y-177494005D02*
G01*
X72464030Y-177494005D01*
X72464030Y-177681584D01*
X73915076Y-177681584D01*
X73915076Y-177494005D01*
G37*
G36*
X73355027Y-176668342D02*
G01*
X73159145Y-176668342D01*
X73159145Y-177611608D01*
X73355027Y-177611608D01*
X73355027Y-176668342D01*
G37*
G36*
X72609965Y-176741004D02*
G01*
X72418967Y-176799867D01*
X72544126Y-177055924D01*
X72685228Y-177293888D01*
X72842310Y-177514904D01*
X73015652Y-177719930D01*
X73205966Y-177910924D01*
X73407302Y-178082753D01*
X73620135Y-178236198D01*
X73845101Y-178371814D01*
X73880150Y-178317470D01*
X73929120Y-178251769D01*
X73976748Y-178201454D01*
X73752865Y-178077677D01*
X73543625Y-177936661D01*
X73348144Y-177778021D01*
X73165739Y-177601106D01*
X73000116Y-177409013D01*
X72852530Y-177202286D01*
X72722531Y-176979996D01*
X72609965Y-176741004D01*
G37*
G36*
X73425369Y-177947686D02*
G01*
X72711325Y-177947686D01*
X72711325Y-178121221D01*
X73425369Y-178121221D01*
X73425369Y-179203827D01*
X73615757Y-179203827D01*
X73615757Y-178070785D01*
X73500963Y-177947686D01*
X73425369Y-177947686D01*
G37*
G36*
X72792536Y-177947686D02*
G01*
X72590914Y-177947686D01*
X72590914Y-179164626D01*
X72792536Y-179164626D01*
X72792536Y-177947686D01*
G37*
G36*
X72342885Y-176805484D02*
G01*
X71509895Y-176805484D01*
X71509895Y-177004298D01*
X72135767Y-177004298D01*
X72135767Y-179217749D01*
X72342885Y-179217749D01*
X72342885Y-176805484D01*
G37*
G36*
X71560209Y-176805484D02*
G01*
X71521130Y-176805484D01*
X71487424Y-176797180D01*
X71336238Y-176892313D01*
X71530655Y-177318639D01*
X71741803Y-177739225D01*
X71604027Y-177870679D01*
X71512581Y-177986399D01*
X71443971Y-178105598D01*
X71402062Y-178211224D01*
X71377690Y-178317207D01*
X71369822Y-178417976D01*
X71378453Y-178544023D01*
X71402062Y-178644145D01*
X71429240Y-178703249D01*
X71465863Y-178750120D01*
X71512459Y-178786538D01*
X71592769Y-178826563D01*
X71702602Y-178850896D01*
X71828387Y-178856514D01*
X71965286Y-178853705D01*
X71983482Y-178750024D01*
X72002330Y-178693773D01*
X72026835Y-178646343D01*
X71895554Y-178653426D01*
X71789431Y-178651960D01*
X71716769Y-178643534D01*
X71658028Y-178621308D01*
X71618000Y-178586211D01*
X71590983Y-178534602D01*
X71577247Y-178473473D01*
X71574253Y-178400512D01*
X71582455Y-178312888D01*
X71608503Y-178216323D01*
X71655341Y-178108764D01*
X71717832Y-178009849D01*
X71815407Y-177896661D01*
X71956981Y-177766580D01*
X71845362Y-177536137D01*
X71736308Y-177294459D01*
X71638489Y-177065359D01*
X71560209Y-176872651D01*
X71560209Y-176805484D01*
G37*
G36*
X70944473Y-176958258D02*
G01*
X68715757Y-176958258D01*
X68715757Y-177173925D01*
X70944473Y-177173925D01*
X70944473Y-176958258D01*
G37*
G36*
X71090163Y-178791789D02*
G01*
X68572875Y-178791789D01*
X68572875Y-179001838D01*
X71090163Y-179001838D01*
X71090163Y-178791789D01*
G37*
G36*
X69958953Y-177067557D02*
G01*
X69726556Y-177067557D01*
X69726556Y-178878618D01*
X69958953Y-178878618D01*
X69958953Y-177067557D01*
G37*
G36*
X67794351Y-177588161D02*
G01*
X66402899Y-177588161D01*
X66402899Y-177772930D01*
X67794351Y-177772930D01*
X67794351Y-177588161D01*
G37*
G36*
X68264274Y-178225635D02*
G01*
X65785819Y-178225635D01*
X65785819Y-178424448D01*
X68264274Y-178424448D01*
X68264274Y-178225635D01*
G37*
G36*
X67137581Y-178024012D02*
G01*
X66924846Y-178024012D01*
X66924846Y-178965812D01*
X66933154Y-179054216D01*
X66954155Y-179111015D01*
X66993323Y-179153378D01*
X67061866Y-179186486D01*
X67143600Y-179203793D01*
X67261779Y-179214452D01*
X67579173Y-179220069D01*
X67616908Y-179116388D01*
X67671374Y-179015638D01*
X67467309Y-179019790D01*
X67303911Y-179021256D01*
X67207435Y-179018447D01*
X67169599Y-179012334D01*
X67151625Y-179003060D01*
X67141469Y-178987711D01*
X67137581Y-178962637D01*
X67137581Y-178024012D01*
G37*
G36*
X66467257Y-177588161D02*
G01*
X66416943Y-177588161D01*
X66372369Y-177576926D01*
X66235715Y-177678897D01*
X66336577Y-177772003D01*
X66456510Y-177868185D01*
X66584401Y-177958707D01*
X66719438Y-178043429D01*
X66857517Y-178119998D01*
X66989204Y-178183625D01*
X67046723Y-178117801D01*
X67106807Y-178060404D01*
X66988892Y-178002887D01*
X66865983Y-177934009D01*
X66746785Y-177858431D01*
X66639204Y-177780990D01*
X66540921Y-177699835D01*
X66467257Y-177627850D01*
X66467257Y-177588161D01*
G37*
G36*
X68208342Y-177108590D02*
G01*
X65833447Y-177108590D01*
X65833447Y-177735683D01*
X66043374Y-177735683D01*
X66043374Y-177298977D01*
X68006720Y-177298977D01*
X68006720Y-177735683D01*
X68208342Y-177735683D01*
X68208342Y-177108590D01*
G37*
G36*
X66205307Y-176660526D02*
G01*
X65984633Y-176736120D01*
X66178440Y-176996605D01*
X66369438Y-177220575D01*
X66537843Y-177147791D01*
X66419019Y-176997948D01*
X66298852Y-176824413D01*
X66205307Y-176660526D01*
G37*
G36*
X68015512Y-176758590D02*
G01*
X67839047Y-176677379D01*
X67760137Y-176768001D01*
X67681144Y-176871919D01*
X67612317Y-176978626D01*
X67570746Y-177063771D01*
X67755272Y-177156217D01*
X67796330Y-177072705D01*
X67864448Y-176963021D01*
X68015512Y-176758590D01*
G37*
G36*
X67297194Y-176699727D02*
G01*
X67115233Y-176629752D01*
X67047258Y-176734011D01*
X66979190Y-176852379D01*
X66920222Y-176971030D01*
X66885279Y-177060963D01*
X67081650Y-177139364D01*
X67111878Y-177046784D01*
X67167013Y-176925163D01*
X67232294Y-176804338D01*
X67297194Y-176699727D01*
G37*
G36*
X63920781Y-176652711D02*
G01*
X63713541Y-176652711D01*
X63713541Y-177066580D01*
X63920781Y-177066580D01*
X63920781Y-176652711D01*
G37*
G36*
X64595502Y-176962899D02*
G01*
X62985453Y-176962899D01*
X62985453Y-177477152D01*
X63181458Y-177477152D01*
X63181458Y-177147669D01*
X64405115Y-177147669D01*
X64405115Y-177479961D01*
X64595502Y-177479961D01*
X64595502Y-176962899D01*
G37*
G36*
X64368845Y-177463108D02*
G01*
X63212355Y-177463108D01*
X63212355Y-177648000D01*
X64368845Y-177648000D01*
X64368845Y-177463108D01*
G37*
G36*
X64562651Y-177968080D02*
G01*
X62980568Y-177968080D01*
X62980568Y-178158590D01*
X64562651Y-178158590D01*
X64562651Y-177968080D01*
G37*
G36*
X64183953Y-178049291D02*
G01*
X63982452Y-178049291D01*
X63999513Y-178271074D01*
X64025928Y-178460352D01*
X64068889Y-178637224D01*
X64129487Y-178788492D01*
X64183192Y-178880194D01*
X64250044Y-178964132D01*
X64330987Y-179040917D01*
X64421628Y-179106399D01*
X64532969Y-179167805D01*
X64668164Y-179224588D01*
X64696252Y-179168534D01*
X64739605Y-179108328D01*
X64785767Y-179062166D01*
X64663162Y-179013458D01*
X64563488Y-178960917D01*
X64483517Y-178905118D01*
X64381316Y-178803945D01*
X64307173Y-178689085D01*
X64255599Y-178559343D01*
X64220467Y-178405642D01*
X64199167Y-178241102D01*
X64183953Y-178049291D01*
G37*
G36*
X63666036Y-178035369D02*
G01*
X63467222Y-178035369D01*
X63467222Y-178913667D01*
X63463547Y-178961847D01*
X63455987Y-178981078D01*
X63439758Y-178990585D01*
X63399933Y-178995000D01*
X63346810Y-178995000D01*
X63265600Y-178995000D01*
X63209424Y-178995000D01*
X63182373Y-178988612D01*
X63163262Y-178969720D01*
X63151358Y-178937968D01*
X63140914Y-178869947D01*
X63131022Y-178643778D01*
X63078143Y-178677484D01*
X63012564Y-178705572D01*
X62952602Y-178725233D01*
X62966019Y-178894806D01*
X62984842Y-179005746D01*
X63017168Y-179095953D01*
X63056161Y-179144720D01*
X63110014Y-179172300D01*
X63187564Y-179182578D01*
X63236657Y-179182578D01*
X63310785Y-179182578D01*
X63382103Y-179182578D01*
X63428265Y-179182578D01*
X63517396Y-179175755D01*
X63575055Y-179158642D01*
X63618409Y-179126523D01*
X63646496Y-179075966D01*
X63660463Y-179011355D01*
X63666036Y-178913300D01*
X63666036Y-178035369D01*
G37*
G36*
X65408342Y-176764696D02*
G01*
X64749375Y-176764696D01*
X64749375Y-176955083D01*
X65220764Y-176955083D01*
X65220764Y-179221779D01*
X65408342Y-179221779D01*
X65408342Y-176764696D01*
G37*
G36*
X64810924Y-176764696D02*
G01*
X64774532Y-176764696D01*
X64744124Y-176756392D01*
X64608569Y-176837480D01*
X64696252Y-177081967D01*
X64790896Y-177339155D01*
X64886762Y-177578025D01*
X64790235Y-177698995D01*
X64724352Y-177806262D01*
X64683674Y-177902013D01*
X64646301Y-178050637D01*
X64634581Y-178183747D01*
X64641657Y-178292001D01*
X64661203Y-178380118D01*
X64697001Y-178455312D01*
X64746810Y-178506270D01*
X64812634Y-178538510D01*
X64892501Y-178556706D01*
X65080446Y-178562323D01*
X65095956Y-178470000D01*
X65112060Y-178419336D01*
X65133691Y-178377554D01*
X65043810Y-178380362D01*
X64970903Y-178380362D01*
X64918531Y-178372100D01*
X64881022Y-178355083D01*
X64853311Y-178324322D01*
X64834738Y-178277903D01*
X64822159Y-178164207D01*
X64834387Y-178044886D01*
X64874061Y-177907630D01*
X64915733Y-177819141D01*
X64981767Y-177718400D01*
X65077637Y-177603182D01*
X65000457Y-177400582D01*
X64927428Y-177188213D01*
X64862948Y-176988300D01*
X64810924Y-176823436D01*
X64810924Y-176764696D01*
G37*
G36*
X60537163Y-178002885D02*
G01*
X62530184Y-178002885D01*
X62530184Y-179220069D01*
X62325753Y-179220069D01*
X62325753Y-178182159D01*
X60537163Y-178182159D01*
X60537163Y-178965202D01*
X60540792Y-178990381D01*
X60549863Y-179004403D01*
X60565933Y-179012777D01*
X60598956Y-179018447D01*
X60740495Y-179019790D01*
X60985715Y-179015638D01*
X60943705Y-179113702D01*
X60918548Y-179214452D01*
X60625823Y-179210300D01*
X60515893Y-179199903D01*
X60442152Y-179180868D01*
X60384168Y-179148001D01*
X60351050Y-179105031D01*
X60333908Y-179049487D01*
X60327236Y-178967766D01*
X60327236Y-178002885D01*
X60537163Y-178002885D01*
G37*
G36*
X61873660Y-178364242D02*
G01*
X61971601Y-178364242D01*
X61971601Y-179098681D01*
X61786831Y-179098681D01*
X61786831Y-178955921D01*
X60904504Y-178955921D01*
X60904504Y-178518237D01*
X61092083Y-178518237D01*
X61092083Y-178801926D01*
X61786831Y-178801926D01*
X61786831Y-178518237D01*
X61092083Y-178518237D01*
X60904504Y-178518237D01*
X60904504Y-178364242D01*
X61873660Y-178364242D01*
G37*
G36*
X62192519Y-177830450D02*
G01*
X60678824Y-177830450D01*
X60678824Y-177673646D01*
X60888872Y-177673646D01*
X61990896Y-177673646D01*
X61990896Y-177406078D01*
X60888872Y-177406078D01*
X60888872Y-177673646D01*
X60678824Y-177673646D01*
X60678824Y-177252083D01*
X62192519Y-177252083D01*
X62192519Y-177830450D01*
G37*
G36*
X61561029Y-176908189D02*
G01*
X62656214Y-176908189D01*
X62656214Y-177092958D01*
X60223555Y-177092958D01*
X60223555Y-176908189D01*
X61345362Y-176908189D01*
X61345362Y-176639399D01*
X61561029Y-176639399D01*
X61561029Y-176908189D01*
G37*
G36*
X58917222Y-177056688D02*
G01*
X57377759Y-177056688D01*
X57377759Y-177252693D01*
X58917222Y-177252693D01*
X58917222Y-177056688D01*
G37*
G36*
X58254225Y-176645017D02*
G01*
X58049794Y-176645017D01*
X58049794Y-177149134D01*
X58254225Y-177149134D01*
X58254225Y-176645017D01*
G37*
G36*
X58543531Y-177334881D02*
G01*
X58352533Y-177413283D01*
X58448608Y-177583781D01*
X58567466Y-177756078D01*
X58700565Y-177916234D01*
X58835767Y-178048558D01*
X58904521Y-177981392D01*
X58981702Y-177919842D01*
X58853241Y-177797860D01*
X58729033Y-177647023D01*
X58621432Y-177484728D01*
X58543531Y-177334881D01*
G37*
G36*
X57960034Y-177419755D02*
G01*
X57797735Y-177327431D01*
X57614431Y-177524413D01*
X57446514Y-177735317D01*
X57375924Y-177838216D01*
X57327445Y-177925338D01*
X57503789Y-178029019D01*
X57549432Y-177941370D01*
X57617117Y-177836189D01*
X57779539Y-177620889D01*
X57960034Y-177419755D01*
G37*
G36*
X58454138Y-177847058D02*
G01*
X58381307Y-178024385D01*
X58294079Y-178193105D01*
X58192187Y-178353862D01*
X58076306Y-178504635D01*
X57948912Y-178641582D01*
X57809581Y-178765411D01*
X57658506Y-178874066D01*
X57496268Y-178965412D01*
X57321828Y-179039818D01*
X57373607Y-179094406D01*
X57428196Y-179161573D01*
X57470205Y-179224588D01*
X57648012Y-179139065D01*
X57814036Y-179036131D01*
X57969193Y-178915254D01*
X58111668Y-178779148D01*
X58241896Y-178628695D01*
X58360226Y-178463039D01*
X58464099Y-178287425D01*
X58556176Y-178099170D01*
X58636343Y-177897372D01*
X58454138Y-177847058D01*
G37*
G36*
X57890425Y-177830205D02*
G01*
X57677323Y-177875024D01*
X57747298Y-178072890D01*
X57832784Y-178260235D01*
X57933900Y-178437882D01*
X58051718Y-178604352D01*
X58187008Y-178757629D01*
X58340687Y-178898401D01*
X58508897Y-179021522D01*
X58700271Y-179131311D01*
X58917222Y-179227397D01*
X58948119Y-179172808D01*
X58988663Y-179112602D01*
X59029207Y-179062166D01*
X58825148Y-178975810D01*
X58645055Y-178875829D01*
X58486622Y-178762602D01*
X58341954Y-178632368D01*
X58216549Y-178491630D01*
X58109267Y-178339818D01*
X58018767Y-178177256D01*
X57945942Y-178007666D01*
X57890425Y-177830205D01*
G37*
G36*
X59891751Y-177242191D02*
G01*
X58942501Y-177242191D01*
X58942501Y-177441004D01*
X59891751Y-177441004D01*
X59891751Y-177242191D01*
G37*
G36*
X59480080Y-176645017D02*
G01*
X59284075Y-176645017D01*
X59284075Y-179216161D01*
X59480080Y-179216161D01*
X59480080Y-176645017D01*
G37*
G36*
X59485575Y-177368464D02*
G01*
X59354050Y-177413283D01*
X59438070Y-177760352D01*
X59552864Y-178113161D01*
X59620445Y-178282808D01*
X59690129Y-178435073D01*
X59765936Y-178576921D01*
X59838506Y-178689818D01*
X59887599Y-178594685D01*
X59947683Y-178505048D01*
X59877954Y-178403906D01*
X59806388Y-178278269D01*
X59740480Y-178143216D01*
X59676207Y-177992749D01*
X59565443Y-177679263D01*
X59520523Y-177520175D01*
X59485575Y-177368464D01*
G37*
G36*
X59298119Y-177637009D02*
G01*
X59216908Y-177739225D01*
X59102114Y-177900181D01*
X58988663Y-178062602D01*
X58917222Y-178168970D01*
X59034947Y-178331392D01*
X59109197Y-178194249D01*
X59212756Y-178019249D01*
X59316315Y-177851210D01*
X59396060Y-177729455D01*
X59298119Y-177637009D01*
G37*
G36*
X54591315Y-177709183D02*
G01*
X54600662Y-177981237D01*
X54626364Y-178204874D01*
X54656556Y-178346443D01*
X54698227Y-178473805D01*
X54750806Y-178588457D01*
X54817143Y-178695279D01*
X54898434Y-178794468D01*
X54995781Y-178886556D01*
X55103364Y-178967060D01*
X55234299Y-179046061D01*
X55391821Y-179123227D01*
X55579399Y-178946762D01*
X55394328Y-178865431D01*
X55243565Y-178781653D01*
X55153242Y-178716565D01*
X55074205Y-178642077D01*
X55005673Y-178557683D01*
X54949521Y-178464496D01*
X54901662Y-178353375D01*
X54862913Y-178221605D01*
X54837768Y-178086373D01*
X54821257Y-177922630D01*
X54815286Y-177726036D01*
X54815286Y-177045575D01*
X54820903Y-176898663D01*
X54829330Y-176815987D01*
X54577271Y-176815987D01*
X54585697Y-176898663D01*
X54591315Y-177045575D01*
X54591315Y-177709183D01*
G37*
G36*
X55598939Y-176832840D02*
G01*
X55607365Y-176908433D01*
X55612983Y-177037149D01*
X55612983Y-178061992D01*
X55610174Y-178167016D01*
X55604556Y-178262271D01*
X55601748Y-178316737D01*
X55848189Y-178316737D01*
X55845380Y-178263614D01*
X55839762Y-178169825D01*
X55836953Y-178061992D01*
X55836953Y-177037149D01*
X55839762Y-176935055D01*
X55848189Y-176832840D01*
X55598939Y-176832840D01*
G37*
G36*
X56419351Y-177375914D02*
G01*
X56361953Y-177382997D01*
X56256929Y-177391423D01*
X56139326Y-177395575D01*
X54283325Y-177395575D01*
X54123712Y-177389958D01*
X54025648Y-177381531D01*
X54025648Y-177619546D01*
X54120903Y-177614050D01*
X54283325Y-177611242D01*
X56139326Y-177611242D01*
X56256929Y-177612585D01*
X56359145Y-177616737D01*
X56419351Y-177619546D01*
X56419351Y-177375914D01*
G37*
G36*
X53569159Y-177984200D02*
G01*
X53213858Y-177874365D01*
X52891629Y-177746308D01*
X52590224Y-177600580D01*
X52345624Y-177460544D01*
X52202031Y-177364551D01*
X52061448Y-177260387D01*
X51926203Y-177149695D01*
X51799619Y-177034951D01*
X51681484Y-176916020D01*
X51581144Y-176802554D01*
X51393565Y-176976210D01*
X51515165Y-177099946D01*
X51648433Y-177222651D01*
X51788872Y-177340066D01*
X51938227Y-177453583D01*
X52255987Y-177667784D01*
X52603178Y-177858293D01*
X52800507Y-177952474D01*
X53014849Y-178043063D01*
X53457173Y-178202554D01*
X53569159Y-177984200D01*
G37*
G36*
X52390443Y-177578147D02*
G01*
X52149619Y-177505362D01*
X52149619Y-178782142D01*
X52148276Y-178894249D01*
X52142658Y-179003304D01*
X52132766Y-179081828D01*
X52407173Y-179081828D01*
X52400212Y-179003304D01*
X52393251Y-178894249D01*
X52390443Y-178782142D01*
X52390443Y-177578147D01*
G37*
G36*
X50631039Y-177123489D02*
G01*
X50506475Y-177136189D01*
X50395833Y-177140341D01*
X48855882Y-177140341D01*
X48729975Y-177134724D01*
X48617868Y-177123489D01*
X48617868Y-177369930D01*
X48734127Y-177361503D01*
X48855882Y-177358695D01*
X50395833Y-177358695D01*
X50506475Y-177361503D01*
X50631039Y-177369930D01*
X50631039Y-177123489D01*
G37*
G36*
X49765931Y-178766510D02*
G01*
X49765931Y-177263562D01*
X49527916Y-177263562D01*
X49527916Y-178766510D01*
X49765931Y-178766510D01*
G37*
G36*
X50801887Y-178629246D02*
G01*
X50677323Y-178641946D01*
X50555446Y-178646099D01*
X48704696Y-178646099D01*
X48582941Y-178640481D01*
X48472299Y-178629246D01*
X48472299Y-178884113D01*
X48595519Y-178875687D01*
X48704696Y-178872878D01*
X50555446Y-178872878D01*
X50674515Y-178875687D01*
X50801887Y-178884113D01*
X50801887Y-178629246D01*
G37*
G36*
X47601451Y-176942627D02*
G01*
X47427916Y-177067191D01*
X47227759Y-177223995D01*
X47035907Y-177384951D01*
X46887529Y-177522215D01*
X47063872Y-177698558D01*
X47201137Y-177567034D01*
X47385907Y-177403269D01*
X47584720Y-177240847D01*
X47761064Y-177113353D01*
X47601451Y-176942627D01*
G37*
G36*
X47842274Y-178818656D02*
G01*
X47602096Y-178774143D01*
X47392868Y-178717784D01*
X47195473Y-178647958D01*
X47021985Y-178572215D01*
X46859345Y-178488997D01*
X46722299Y-178409794D01*
X46514907Y-178265175D01*
X46324672Y-178100460D01*
X46152276Y-177920452D01*
X46005568Y-177737882D01*
X45879352Y-177549546D01*
X45787093Y-177379455D01*
X45652637Y-177617348D01*
X45756989Y-177789244D01*
X45887965Y-177970279D01*
X46035854Y-178144653D01*
X46204382Y-178314661D01*
X46388866Y-178471368D01*
X46593461Y-178614225D01*
X46737644Y-178698949D01*
X46900108Y-178785073D01*
X47071719Y-178864027D01*
X47264152Y-178937602D01*
X47466881Y-178998706D01*
X47693897Y-179048244D01*
X47842274Y-178818656D01*
G37*
G36*
X43253806Y-177122878D02*
G01*
X43288733Y-177177588D01*
X43323782Y-177246099D01*
X43383105Y-177385785D01*
X43463733Y-177549937D01*
X43555059Y-177714813D01*
X43656929Y-177878932D01*
X43767461Y-178035406D01*
X43880900Y-178172878D01*
X44041386Y-178342773D01*
X44219787Y-178510300D01*
X44409315Y-178668354D01*
X44608988Y-178815481D01*
X44818092Y-178947045D01*
X45034581Y-179057648D01*
X45213733Y-178870069D01*
X44991880Y-178769878D01*
X44778370Y-178647564D01*
X44575574Y-178507820D01*
X44386360Y-178356304D01*
X44210487Y-178195243D01*
X44060174Y-178038545D01*
X43966899Y-177924710D01*
X43871130Y-177793447D01*
X43781914Y-177655709D01*
X43703213Y-177516353D01*
X43637080Y-177376695D01*
X43595380Y-177260143D01*
X43701748Y-177260143D01*
X43900561Y-177260143D01*
X44141385Y-177260143D01*
X44382208Y-177260143D01*
X44579556Y-177260143D01*
X44687390Y-177260143D01*
X44795223Y-177262951D01*
X44904399Y-177268447D01*
X44970101Y-177274064D01*
X44970101Y-177019319D01*
X44898782Y-177026402D01*
X44788262Y-177033363D01*
X44687390Y-177036050D01*
X44575404Y-177036050D01*
X44380865Y-177036050D01*
X44144193Y-177036050D01*
X43907644Y-177036050D01*
X43712983Y-177036050D01*
X43606615Y-177036050D01*
X43481929Y-177030554D01*
X43396566Y-177013702D01*
X43253806Y-177122878D01*
G37*
G36*
X43844508Y-178024501D02*
G01*
X43607958Y-178234549D01*
X43368600Y-178471099D01*
X43150247Y-178703496D01*
X42976591Y-178903653D01*
X43172595Y-179071692D01*
X43277010Y-178936248D01*
X43407801Y-178782020D01*
X43697595Y-178471099D01*
X43851928Y-178320278D01*
X44004120Y-178184113D01*
X43844508Y-178024501D01*
G37*
G36*
X40252184Y-177245122D02*
G01*
X40288576Y-177316563D01*
X40316542Y-177393499D01*
X40359803Y-177535697D01*
X40423032Y-177700146D01*
X40499182Y-177865726D01*
X40591071Y-178036102D01*
X40695930Y-178200830D01*
X40814919Y-178356671D01*
X40948213Y-178505181D01*
X41099476Y-178646549D01*
X41269944Y-178780921D01*
X41451988Y-178898589D01*
X41670195Y-179011340D01*
X41929399Y-179118342D01*
X42130900Y-178936381D01*
X41882204Y-178850894D01*
X41669036Y-178752955D01*
X41472808Y-178637696D01*
X41302184Y-178513597D01*
X41147600Y-178376543D01*
X41013733Y-178233572D01*
X40909806Y-178099434D01*
X40813576Y-177950739D01*
X40728660Y-177795231D01*
X40658237Y-177641406D01*
X40601275Y-177488372D01*
X40565792Y-177359916D01*
X41604556Y-177359916D01*
X41514919Y-177158293D01*
X41389012Y-177158293D01*
X41177620Y-177158293D01*
X40940949Y-177158293D01*
X40735174Y-177158293D01*
X40621723Y-177158293D01*
X40518164Y-177151332D01*
X40439762Y-177130327D01*
X40252184Y-177245122D01*
G37*
G36*
X41190198Y-176819528D02*
G01*
X41260174Y-176938597D01*
X41313297Y-177040690D01*
X41404828Y-177195906D01*
X41523346Y-177372494D01*
X41659002Y-177546588D01*
X41823032Y-177723960D01*
X42007257Y-177889778D01*
X42223346Y-178048681D01*
X42416542Y-177903112D01*
X42242327Y-177790357D01*
X42091821Y-177670715D01*
X41955682Y-177541928D01*
X41841228Y-177415969D01*
X41739228Y-177286944D01*
X41657801Y-177169528D01*
X41587685Y-177053583D01*
X41537390Y-176956671D01*
X41488419Y-176854577D01*
X41450561Y-176735509D01*
X41190198Y-176819528D01*
G37*
G36*
X39245048Y-176912707D02*
G01*
X39124637Y-176923820D01*
X38992990Y-176926629D01*
X38840460Y-176926629D01*
X38588401Y-176926629D01*
X38305568Y-176926629D01*
X38052166Y-176926629D01*
X37892554Y-176926629D01*
X37758220Y-176923820D01*
X37637808Y-176912707D01*
X37637808Y-177145104D01*
X37756877Y-177138143D01*
X37895362Y-177136678D01*
X38053632Y-177136678D01*
X38304225Y-177136678D01*
X38585593Y-177136678D01*
X38837651Y-177136678D01*
X38992990Y-177136678D01*
X39121828Y-177139487D01*
X39245048Y-177145104D01*
X39245048Y-176912707D01*
G37*
G36*
X37433377Y-177649466D02*
G01*
X37454382Y-177690010D01*
X37469769Y-177730676D01*
X37535643Y-177936228D01*
X37623886Y-178146256D01*
X37695706Y-178281093D01*
X37780469Y-178407372D01*
X37878632Y-178525687D01*
X38033253Y-178677240D01*
X38192182Y-178801544D01*
X38356004Y-178900844D01*
X38616476Y-179020939D01*
X38881004Y-179110771D01*
X39054661Y-178911957D01*
X38859600Y-178862601D01*
X38676055Y-178798189D01*
X38503039Y-178718883D01*
X38338879Y-178623145D01*
X38194774Y-178516707D01*
X38069019Y-178399535D01*
X37951737Y-178257120D01*
X37857627Y-178098628D01*
X37784443Y-177932208D01*
X37735750Y-177780746D01*
X37852009Y-177780746D01*
X38060593Y-177780746D01*
X38325230Y-177780746D01*
X38610872Y-177780746D01*
X38879661Y-177780746D01*
X39095205Y-177780746D01*
X39222578Y-177780746D01*
X39345799Y-177782212D01*
X39496985Y-177789173D01*
X39496985Y-177554089D01*
X39348607Y-177566667D01*
X39222578Y-177570819D01*
X39104975Y-177570819D01*
X38895048Y-177570819D01*
X38629068Y-177570819D01*
X38343426Y-177570819D01*
X38077445Y-177570819D01*
X37866053Y-177570819D01*
X37746985Y-177570819D01*
X37657470Y-177565324D01*
X37592990Y-177548593D01*
X37433377Y-177649466D01*
G37*
G36*
X34976905Y-176666388D02*
G01*
X34901311Y-176781182D01*
X34820101Y-176914173D01*
X34755743Y-177035928D01*
X34909738Y-177103094D01*
X34975561Y-176979874D01*
X35053963Y-176847006D01*
X35130900Y-176730746D01*
X34976905Y-176666388D01*
G37*
G36*
X34618600Y-176593604D02*
G01*
X34540198Y-176706933D01*
X34457644Y-176841388D01*
X34389012Y-176963143D01*
X34543007Y-177030310D01*
X34652184Y-176837236D01*
X34715228Y-176735956D01*
X34772595Y-176657962D01*
X34618600Y-176593604D01*
G37*
G36*
X34724968Y-177170383D02*
G01*
X34748782Y-177233398D01*
X34766978Y-177310334D01*
X34825718Y-177553967D01*
X34914012Y-177829839D01*
X34970102Y-177968941D01*
X35034424Y-178102780D01*
X35106921Y-178230115D01*
X35184145Y-178343604D01*
X35320017Y-178500067D01*
X35471252Y-178645976D01*
X35638082Y-178777685D01*
X35829556Y-178898035D01*
X36039270Y-179000256D01*
X36287390Y-179091109D01*
X36477777Y-178881182D01*
X36217196Y-178803171D01*
X36006022Y-178713265D01*
X35815243Y-178603964D01*
X35654556Y-178485020D01*
X35511061Y-178351581D01*
X35385767Y-178209148D01*
X35292504Y-178073705D01*
X35210767Y-177919354D01*
X35142567Y-177756985D01*
X35087547Y-177594633D01*
X35044862Y-177433586D01*
X35018914Y-177296413D01*
X35168757Y-177296413D01*
X35424968Y-177296413D01*
X35735767Y-177296413D01*
X36045223Y-177296413D01*
X36301434Y-177296413D01*
X36452498Y-177296413D01*
X36605150Y-177299221D01*
X36729713Y-177304717D01*
X36729713Y-177055589D01*
X36644351Y-177065359D01*
X36546409Y-177072320D01*
X36449811Y-177075129D01*
X36330743Y-177075129D01*
X36124968Y-177075129D01*
X35870223Y-177075129D01*
X35601434Y-177075129D01*
X35350840Y-177075129D01*
X35153370Y-177075129D01*
X35047002Y-177075129D01*
X34974218Y-177072320D01*
X34895816Y-177061207D01*
X34724968Y-177170383D01*
G37*
G36*
X75568112Y-180290415D02*
G01*
X75561029Y-180396538D01*
X75561029Y-180574347D01*
X75561029Y-180685233D01*
X75637721Y-180685233D01*
X75952306Y-180685233D01*
X76202777Y-180685233D01*
X76339675Y-180685233D01*
X76462773Y-180680959D01*
X76577445Y-180670823D01*
X76577445Y-180906395D01*
X76461430Y-180899434D01*
X76339675Y-180898091D01*
X76198503Y-180898091D01*
X75948154Y-180898091D01*
X75632103Y-180898091D01*
X75561029Y-180898091D01*
X75561029Y-180916898D01*
X75561029Y-181042805D01*
X75561029Y-181262379D01*
X75561029Y-181530924D01*
X75561029Y-181799347D01*
X75561029Y-182023073D01*
X75561029Y-182158750D01*
X75570125Y-182207191D01*
X75588995Y-182238496D01*
X75619572Y-182257589D01*
X75670205Y-182264996D01*
X75813087Y-182256692D01*
X75992240Y-182231413D01*
X75972700Y-182455383D01*
X75846793Y-182463810D01*
X75705254Y-182472236D01*
X75574951Y-182475045D01*
X75490818Y-182467620D01*
X75431408Y-182448136D01*
X75390303Y-182419113D01*
X75360546Y-182378317D01*
X75341338Y-182323804D01*
X75334249Y-182251318D01*
X75334249Y-182100254D01*
X75334249Y-181868101D01*
X75334249Y-181595282D01*
X75334249Y-181319776D01*
X75334249Y-181079197D01*
X75334249Y-180916898D01*
X75334249Y-180898091D01*
X75296514Y-180898091D01*
X74981929Y-180898091D01*
X74733046Y-180898091D01*
X74594560Y-180898091D01*
X74484040Y-180899434D01*
X74368025Y-180903586D01*
X74368025Y-180670823D01*
X74484040Y-180681081D01*
X74597369Y-180685233D01*
X74735732Y-180685233D01*
X74984738Y-180685233D01*
X75300788Y-180685233D01*
X75334249Y-180685233D01*
X75334249Y-180567264D01*
X75334249Y-180399347D01*
X75331441Y-180329494D01*
X75324480Y-180254023D01*
X75317397Y-180198091D01*
X75580690Y-180198091D01*
X75568112Y-180290415D01*
G37*
G36*
X76233063Y-181419427D02*
G01*
X76368862Y-181619218D01*
X76518583Y-181810826D01*
X76594873Y-181897264D01*
X76664152Y-181965921D01*
X76471078Y-182094515D01*
X76338087Y-181937955D01*
X76186901Y-181738042D01*
X76044019Y-181524207D01*
X75933377Y-181328447D01*
X76129382Y-181233436D01*
X76233063Y-181419427D01*
G37*
G36*
X74953353Y-181336873D02*
G01*
X74834895Y-181496242D01*
X74705202Y-181692002D01*
X74583813Y-181895945D01*
X74487581Y-182080471D01*
X74281196Y-181965921D01*
X74381702Y-181793974D01*
X74508586Y-181592718D01*
X74642431Y-181395614D01*
X74763698Y-181236123D01*
X74953353Y-181336873D01*
G37*
G36*
X74626154Y-179988373D02*
G01*
X74697875Y-180019672D01*
X74759433Y-180068436D01*
X74808028Y-180131413D01*
X74839278Y-180204472D01*
X74849794Y-180285041D01*
X74839278Y-180365610D01*
X74808028Y-180438670D01*
X74759373Y-180501369D01*
X74697875Y-180549068D01*
X74626243Y-180579248D01*
X74545833Y-180589490D01*
X74462895Y-180579205D01*
X74389762Y-180549068D01*
X74327362Y-180501200D01*
X74279609Y-180438670D01*
X74249385Y-180365689D01*
X74239187Y-180285041D01*
X74365216Y-180285041D01*
X74378495Y-180354519D01*
X74418094Y-180411926D01*
X74476281Y-180450617D01*
X74545833Y-180463583D01*
X74612844Y-180450695D01*
X74669542Y-180411926D01*
X74707997Y-180354635D01*
X74720956Y-180285041D01*
X74707993Y-180215469D01*
X74669542Y-180158279D01*
X74612844Y-180119509D01*
X74545833Y-180106622D01*
X74476281Y-180119588D01*
X74418094Y-180158279D01*
X74378499Y-180215585D01*
X74365216Y-180285041D01*
X74239187Y-180285041D01*
X74249385Y-180204393D01*
X74279609Y-180131413D01*
X74327305Y-180068605D01*
X74389762Y-180019672D01*
X74462983Y-179988418D01*
X74545833Y-179977784D01*
X74626154Y-179988373D01*
G37*
G36*
X73433185Y-180283698D02*
G01*
X73311430Y-180294933D01*
X73181249Y-180300551D01*
X73017484Y-180300551D01*
X72758464Y-180300551D01*
X72467327Y-180300551D01*
X72208307Y-180300551D01*
X72047229Y-180300551D01*
X71917048Y-180296399D01*
X71786866Y-180283698D01*
X71786866Y-180516095D01*
X71917048Y-180509134D01*
X72047229Y-180507791D01*
X72206842Y-180507791D01*
X72464518Y-180507791D01*
X72755655Y-180507791D01*
X73016018Y-180507791D01*
X73178440Y-180507791D01*
X73312896Y-180509134D01*
X73433185Y-180516095D01*
X73433185Y-180283698D01*
G37*
G36*
X73769263Y-180984431D02*
G01*
X73650195Y-180994200D01*
X73525631Y-180998353D01*
X73381528Y-180998353D01*
X73118356Y-180998353D01*
X72783743Y-180998353D01*
X72425317Y-180998353D01*
X72092048Y-180998353D01*
X71830219Y-180998353D01*
X71691612Y-180998353D01*
X71585244Y-180995544D01*
X71473258Y-180984431D01*
X71473258Y-181216706D01*
X71578283Y-181212554D01*
X71691612Y-181211088D01*
X71830219Y-181211088D01*
X72092048Y-181211088D01*
X72425317Y-181211088D01*
X72783743Y-181211088D01*
X73118356Y-181211088D01*
X73381528Y-181211088D01*
X73525631Y-181211088D01*
X73648852Y-181211088D01*
X73769263Y-181216706D01*
X73769263Y-180984431D01*
G37*
G36*
X72450474Y-181099103D02*
G01*
X72460352Y-181356647D01*
X72488332Y-181582093D01*
X72520366Y-181726464D01*
X72563887Y-181857160D01*
X72618391Y-181975568D01*
X72676173Y-182068391D01*
X72754312Y-182164490D01*
X72843907Y-182255198D01*
X72944699Y-182342299D01*
X73053391Y-182420674D01*
X73170013Y-182487990D01*
X73377131Y-182333995D01*
X73220381Y-182255280D01*
X73071950Y-182151912D01*
X72942222Y-182030300D01*
X72848101Y-181905593D01*
X72786001Y-181790061D01*
X72741246Y-181666835D01*
X72713646Y-181534588D01*
X72692901Y-181327721D01*
X72685680Y-181099103D01*
X72450474Y-181099103D01*
G37*
G36*
X70599357Y-180302627D02*
G01*
X70425823Y-180427191D01*
X70225666Y-180583995D01*
X70033813Y-180744951D01*
X69885436Y-180882215D01*
X70061779Y-181058558D01*
X70199043Y-180927034D01*
X70383813Y-180763269D01*
X70582627Y-180600847D01*
X70758970Y-180473353D01*
X70599357Y-180302627D01*
G37*
G36*
X70840181Y-182178656D02*
G01*
X70600002Y-182134143D01*
X70390774Y-182077784D01*
X70193380Y-182007958D01*
X70019891Y-181932215D01*
X69857251Y-181848997D01*
X69720205Y-181769794D01*
X69512813Y-181625175D01*
X69322578Y-181460460D01*
X69150183Y-181280452D01*
X69003475Y-181097882D01*
X68877258Y-180909546D01*
X68785000Y-180739455D01*
X68650544Y-180977348D01*
X68754896Y-181149244D01*
X68885872Y-181330279D01*
X69033761Y-181504653D01*
X69202288Y-181674661D01*
X69386772Y-181831368D01*
X69591367Y-181974225D01*
X69735551Y-182058949D01*
X69898014Y-182145073D01*
X70069625Y-182224027D01*
X70262058Y-182297602D01*
X70464788Y-182358706D01*
X70691803Y-182408244D01*
X70840181Y-182178656D01*
G37*
G36*
X67592240Y-180204563D02*
G01*
X67446671Y-180291392D01*
X67273014Y-180403499D01*
X67106441Y-180514019D01*
X66984563Y-180599382D01*
X67116210Y-180789769D01*
X67242240Y-180700254D01*
X67404661Y-180589612D01*
X67574043Y-180480436D01*
X67718147Y-180392142D01*
X67592240Y-180204563D01*
G37*
G36*
X68012215Y-182206622D02*
G01*
X67857654Y-182174468D01*
X67695799Y-182132494D01*
X67534386Y-182082132D01*
X67373764Y-182023196D01*
X67217989Y-181955113D01*
X67074200Y-181878970D01*
X66849038Y-181736815D01*
X66642990Y-181582215D01*
X66452888Y-181413152D01*
X66284563Y-181235024D01*
X66135549Y-181045609D01*
X66012965Y-180854249D01*
X65878632Y-181083838D01*
X66007771Y-181266089D01*
X66160686Y-181447045D01*
X66339274Y-181627034D01*
X66530695Y-181793237D01*
X66735314Y-181946219D01*
X66953789Y-182086210D01*
X67100693Y-182163385D01*
X67263244Y-182236053D01*
X67429804Y-182300538D01*
X67590896Y-182355000D01*
X67883377Y-182433401D01*
X68012215Y-182206622D01*
G37*
G36*
X68015024Y-180834588D02*
G01*
X67866646Y-180917264D01*
X67690181Y-181023632D01*
X67522142Y-181128656D01*
X67399043Y-181212554D01*
X67527759Y-181408558D01*
X67658063Y-181317578D01*
X67821828Y-181211210D01*
X67992676Y-181106186D01*
X68138244Y-181024975D01*
X68015024Y-180834588D01*
G37*
G36*
X65013035Y-180818590D02*
G01*
X64933290Y-180824085D01*
X64821304Y-180828360D01*
X64727393Y-180829703D01*
X64577672Y-180829703D01*
X64343932Y-180829703D01*
X64077951Y-180829703D01*
X63828702Y-180829703D01*
X63643810Y-180829703D01*
X63548677Y-180828360D01*
X63473084Y-180824085D01*
X63475893Y-180887222D01*
X63475893Y-180966845D01*
X63475893Y-181087257D01*
X63475893Y-181319532D01*
X63475893Y-181612013D01*
X63475893Y-181917072D01*
X63475893Y-182184396D01*
X63475893Y-182360739D01*
X63474549Y-182437554D01*
X63470275Y-182511803D01*
X63691437Y-182511803D01*
X63688628Y-182441828D01*
X63688628Y-182355122D01*
X63688628Y-182162048D01*
X63688628Y-181898876D01*
X63688628Y-181612013D01*
X63688628Y-181343346D01*
X63688628Y-181134884D01*
X63688628Y-181028517D01*
X63788035Y-181028517D01*
X63965844Y-181028517D01*
X64185662Y-181028517D01*
X64411099Y-181028517D01*
X64604295Y-181028517D01*
X64727393Y-181028517D01*
X64821304Y-181029982D01*
X64933290Y-181034134D01*
X65013035Y-181036943D01*
X65013035Y-180818590D01*
G37*
G36*
X64951486Y-181485617D02*
G01*
X64840844Y-181491235D01*
X64702236Y-181494043D01*
X64576329Y-181494043D01*
X64366280Y-181494043D01*
X64117030Y-181494043D01*
X63873398Y-181494043D01*
X63680202Y-181494043D01*
X63579452Y-181494043D01*
X63579452Y-181695666D01*
X63680202Y-181695666D01*
X63873398Y-181695666D01*
X64117030Y-181695666D01*
X64366280Y-181695666D01*
X64576329Y-181695666D01*
X64699427Y-181695666D01*
X64840844Y-181697131D01*
X64951486Y-181701284D01*
X64951486Y-181485617D01*
G37*
G36*
X65046618Y-182181343D02*
G01*
X64951486Y-182188426D01*
X64817030Y-182192578D01*
X64679888Y-182192578D01*
X64453108Y-182192578D01*
X64184319Y-182192578D01*
X63918217Y-182192578D01*
X63701207Y-182192578D01*
X63579452Y-182192578D01*
X63579452Y-182399818D01*
X63705481Y-182399818D01*
X63925300Y-182399818D01*
X64189937Y-182399818D01*
X64455917Y-182399818D01*
X64679888Y-182399818D01*
X64814221Y-182399818D01*
X64947212Y-182402627D01*
X65046618Y-182405436D01*
X65046618Y-182181343D01*
G37*
G36*
X60595048Y-180482878D02*
G01*
X60629975Y-180537588D01*
X60665024Y-180606099D01*
X60724347Y-180745785D01*
X60804975Y-180909937D01*
X60896301Y-181074813D01*
X60998171Y-181238932D01*
X61108703Y-181395406D01*
X61222142Y-181532878D01*
X61382629Y-181702773D01*
X61561029Y-181870300D01*
X61750557Y-182028354D01*
X61950230Y-182175481D01*
X62159335Y-182307045D01*
X62375823Y-182417648D01*
X62554975Y-182230069D01*
X62333122Y-182129878D01*
X62119612Y-182007564D01*
X61916816Y-181867820D01*
X61727602Y-181716304D01*
X61551730Y-181555243D01*
X61401416Y-181398545D01*
X61308141Y-181284710D01*
X61212372Y-181153447D01*
X61123156Y-181015709D01*
X61044455Y-180876353D01*
X60978322Y-180736695D01*
X60936622Y-180620143D01*
X61042990Y-180620143D01*
X61241803Y-180620143D01*
X61482627Y-180620143D01*
X61723450Y-180620143D01*
X61920799Y-180620143D01*
X62028632Y-180620143D01*
X62136465Y-180622951D01*
X62245642Y-180628447D01*
X62311343Y-180634064D01*
X62311343Y-180379319D01*
X62240024Y-180386402D01*
X62129504Y-180393363D01*
X62028632Y-180396050D01*
X61916646Y-180396050D01*
X61722107Y-180396050D01*
X61485436Y-180396050D01*
X61248886Y-180396050D01*
X61054225Y-180396050D01*
X60947857Y-180396050D01*
X60823171Y-180390554D01*
X60737808Y-180373702D01*
X60595048Y-180482878D01*
G37*
G36*
X61185750Y-181384501D02*
G01*
X60949200Y-181594549D01*
X60709842Y-181831099D01*
X60491489Y-182063496D01*
X60317833Y-182263653D01*
X60513838Y-182431692D01*
X60618252Y-182296248D01*
X60749043Y-182142020D01*
X61038838Y-181831099D01*
X61193170Y-181680278D01*
X61345362Y-181544113D01*
X61185750Y-181384501D01*
G37*
G36*
X58873014Y-181072602D02*
G01*
X58590181Y-181246259D01*
X58294891Y-181443607D01*
X58013401Y-181643886D01*
X57775387Y-181828656D01*
X57940617Y-182021852D01*
X58168862Y-181830000D01*
X58450230Y-181617264D01*
X58746985Y-181408681D01*
X59024200Y-181226598D01*
X58873014Y-181072602D01*
G37*
G36*
X57590617Y-180560181D02*
G01*
X57627009Y-180634431D01*
X57657784Y-180711367D01*
X57703922Y-180855810D01*
X57769769Y-181019480D01*
X57848129Y-181183539D01*
X57940617Y-181351284D01*
X58045186Y-181514148D01*
X58164588Y-181671852D01*
X58295961Y-181820498D01*
X58451533Y-181969306D01*
X58633656Y-182118450D01*
X58827856Y-182249848D01*
X59053002Y-182370023D01*
X59312651Y-182478220D01*
X59514152Y-182304563D01*
X59262155Y-182212577D01*
X59039588Y-182104406D01*
X58833953Y-181977939D01*
X58654661Y-181842700D01*
X58492685Y-181695428D01*
X58357784Y-181548632D01*
X58253857Y-181414494D01*
X58157627Y-181265799D01*
X58071899Y-181110810D01*
X57999480Y-180959274D01*
X57939968Y-180807940D01*
X57901416Y-180674975D01*
X58940181Y-180674975D01*
X58850544Y-180476161D01*
X57960157Y-180476161D01*
X57856598Y-180469200D01*
X57775387Y-180448196D01*
X57590617Y-180560181D01*
G37*
G36*
X58534249Y-180157058D02*
G01*
X58604225Y-180274661D01*
X58660157Y-180375411D01*
X58752795Y-180531117D01*
X58877166Y-180712833D01*
X59019047Y-180893169D01*
X59187965Y-181078220D01*
X59375543Y-181252397D01*
X59589745Y-181416985D01*
X59777445Y-181271416D01*
X59621118Y-181166946D01*
X59482498Y-181057758D01*
X59360279Y-180943886D01*
X59194204Y-180762470D01*
X59063401Y-180593886D01*
X58952426Y-180426860D01*
X58878632Y-180297009D01*
X58828196Y-180194794D01*
X58788995Y-180075847D01*
X58534249Y-180157058D01*
G37*
G36*
X55882627Y-180742142D02*
G01*
X55832191Y-180866828D01*
X55766489Y-181041828D01*
X55703475Y-181216828D01*
X55661343Y-181347009D01*
X55868583Y-181419794D01*
X55906441Y-181290956D01*
X55966646Y-181115956D01*
X56033813Y-180940956D01*
X56087058Y-180812240D01*
X55882627Y-180742142D01*
G37*
G36*
X54869019Y-180898946D02*
G01*
X54892833Y-180976004D01*
X54911029Y-181039019D01*
X54976668Y-181265797D01*
X55062215Y-181488426D01*
X55131741Y-181631447D01*
X55213757Y-181768031D01*
X55308656Y-181898632D01*
X55444495Y-182055508D01*
X55589485Y-182192267D01*
X55744019Y-182310181D01*
X55908905Y-182414391D01*
X56067816Y-182498820D01*
X56221392Y-182565048D01*
X56406161Y-182377348D01*
X56244612Y-182319386D01*
X56077166Y-182243014D01*
X55915189Y-182150843D01*
X55760872Y-182041392D01*
X55619170Y-181916889D01*
X55496235Y-181781029D01*
X55401592Y-181651568D01*
X55315617Y-181503813D01*
X55242798Y-181345825D01*
X55182627Y-181176284D01*
X55137777Y-181001071D01*
X55109842Y-180823353D01*
X54869019Y-180898946D01*
G37*
G36*
X56532191Y-180882215D02*
G01*
X56476259Y-181011053D01*
X56404818Y-181188862D01*
X56332034Y-181373632D01*
X56277445Y-181515048D01*
X56490181Y-181593450D01*
X56539274Y-181449225D01*
X56610593Y-181260303D01*
X56684842Y-181081029D01*
X56739431Y-180963426D01*
X56532191Y-180882215D01*
G37*
G36*
X53490024Y-182110512D02*
G01*
X53490024Y-181952365D01*
X53490024Y-181669532D01*
X53490024Y-181325150D01*
X53490024Y-180973806D01*
X53490024Y-180671434D01*
X53490024Y-180480924D01*
X53495642Y-180338164D01*
X53512494Y-180189787D01*
X53238087Y-180189787D01*
X53250666Y-180335355D01*
X53257627Y-180480924D01*
X53257627Y-180742752D01*
X53257627Y-181067595D01*
X53256284Y-181409169D01*
X53254818Y-181725586D01*
X53254818Y-181974713D01*
X53254818Y-182110512D01*
X53253475Y-182214193D01*
X53246514Y-182333140D01*
X53238087Y-182440973D01*
X53509685Y-182440973D01*
X53494298Y-182281360D01*
X53490024Y-182110512D01*
G37*
G36*
X53305254Y-180923370D02*
G01*
X53001538Y-181022777D01*
X52661308Y-181144654D01*
X52332313Y-181274836D01*
X52062058Y-181399399D01*
X52157313Y-181637414D01*
X52282146Y-181572097D01*
X52428911Y-181504424D01*
X52738367Y-181374242D01*
X53043548Y-181258105D01*
X53305254Y-181172620D01*
X53305254Y-180923370D01*
G37*
G36*
X76177009Y-185715000D02*
G01*
X76832191Y-183659452D01*
X76560593Y-183659452D01*
X76227445Y-184772711D01*
X76130847Y-185110621D01*
X76028632Y-185451339D01*
X76017397Y-185451339D01*
X75915303Y-185110621D01*
X75818583Y-184772711D01*
X75488244Y-183659452D01*
X75224951Y-183659452D01*
X75877445Y-185715000D01*
X76177009Y-185715000D01*
G37*
G36*
X74576718Y-184165399D02*
G01*
X74702271Y-184206678D01*
X74818166Y-184273513D01*
X74922334Y-184366901D01*
X75007959Y-184481322D01*
X75075108Y-184619937D01*
X75105538Y-184719780D01*
X75124543Y-184831174D01*
X75131161Y-184955771D01*
X75119605Y-185120277D01*
X75086802Y-185261929D01*
X75034563Y-185384417D01*
X74961440Y-185495443D01*
X74874410Y-185586106D01*
X74772491Y-185658457D01*
X74658944Y-185711206D01*
X74536354Y-185743159D01*
X74402585Y-185754078D01*
X74253379Y-185742478D01*
X74125247Y-185709504D01*
X74006750Y-185659321D01*
X73903841Y-185600938D01*
X73994577Y-185428869D01*
X74083453Y-185479993D01*
X74172875Y-185518262D01*
X74267489Y-185542415D01*
X74376329Y-185550868D01*
X74471735Y-185543096D01*
X74556253Y-185520676D01*
X74631807Y-185484190D01*
X74699422Y-185434247D01*
X74757738Y-185372250D01*
X74807295Y-185296856D01*
X74843113Y-185214033D01*
X74865430Y-185119681D01*
X74873241Y-185011580D01*
X73852916Y-185011580D01*
X73844490Y-184944413D01*
X73841559Y-184866011D01*
X73843586Y-184831817D01*
X74068217Y-184831817D01*
X74878859Y-184831817D01*
X74849466Y-184685212D01*
X74799602Y-184572309D01*
X74728126Y-184478792D01*
X74643531Y-184411475D01*
X74546707Y-184369062D01*
X74444228Y-184355055D01*
X74357181Y-184363302D01*
X74283623Y-184386743D01*
X74220873Y-184424617D01*
X74167135Y-184477787D01*
X74114975Y-184565088D01*
X74080838Y-184680428D01*
X74068217Y-184831817D01*
X73843586Y-184831817D01*
X73850113Y-184721701D01*
X73874422Y-184596115D01*
X73913000Y-184486580D01*
X73968814Y-184385725D01*
X74037285Y-184303859D01*
X74119019Y-184238674D01*
X74212370Y-184191649D01*
X74321496Y-184162228D01*
X74449846Y-184151845D01*
X74576718Y-184165399D01*
G37*
G36*
X73472264Y-185715000D02*
G01*
X73472264Y-184190924D01*
X73260017Y-184190924D01*
X73234494Y-184465697D01*
X73228876Y-184465697D01*
X73171118Y-184373836D01*
X73107198Y-184298064D01*
X73037023Y-184236598D01*
X72958157Y-184188637D01*
X72878883Y-184160967D01*
X72797543Y-184151845D01*
X72706563Y-184158806D01*
X72635122Y-184185307D01*
X72682749Y-184403782D01*
X72752725Y-184385586D01*
X72831127Y-184378503D01*
X72890453Y-184386387D01*
X72955986Y-184411786D01*
X73029940Y-184458736D01*
X73092564Y-184518930D01*
X73153378Y-184607810D01*
X73211901Y-184733021D01*
X73211901Y-185715000D01*
X73472264Y-185715000D01*
G37*
G36*
X71281113Y-183459844D02*
G01*
X71396316Y-183491844D01*
X71492065Y-183542459D01*
X71575241Y-183612291D01*
X71643643Y-183698032D01*
X71697962Y-183801845D01*
X71735246Y-183914030D01*
X71758423Y-184038613D01*
X71766472Y-184177491D01*
X71766472Y-186277735D01*
X71509040Y-186277735D01*
X71516123Y-185900868D01*
X71525893Y-185524002D01*
X71442230Y-185603813D01*
X71355906Y-185663121D01*
X71266140Y-185704131D01*
X71123176Y-185741739D01*
X70981231Y-185754078D01*
X70867934Y-185743593D01*
X70757993Y-185712069D01*
X70655971Y-185659926D01*
X70565530Y-185587260D01*
X70490778Y-185496542D01*
X70432173Y-185385394D01*
X70395910Y-185260409D01*
X70383080Y-185111842D01*
X70383900Y-185099385D01*
X70641001Y-185099385D01*
X70647503Y-185189866D01*
X70666039Y-185268440D01*
X70695711Y-185337034D01*
X70759895Y-185425744D01*
X70839937Y-185488831D01*
X70934092Y-185527595D01*
X71041437Y-185540854D01*
X71159267Y-185529345D01*
X71286413Y-185493105D01*
X71366145Y-185453403D01*
X71445694Y-185392764D01*
X71525893Y-185307480D01*
X71523084Y-184757934D01*
X71517466Y-184211074D01*
X71502885Y-184031160D01*
X71467421Y-183895700D01*
X71415373Y-183795006D01*
X71360105Y-183731753D01*
X71296544Y-183687728D01*
X71223077Y-183660962D01*
X71136936Y-183651636D01*
X71058240Y-183661367D01*
X70985735Y-183690374D01*
X70917362Y-183740174D01*
X70865713Y-183805403D01*
X70832817Y-183891737D01*
X70820764Y-184005788D01*
X70831757Y-184105710D01*
X70865582Y-184206800D01*
X70922234Y-184299346D01*
X71006877Y-184382533D01*
X71074617Y-184426424D01*
X71159758Y-184463306D01*
X71265652Y-184492198D01*
X71226451Y-184691744D01*
X71148049Y-184676357D01*
X71069525Y-184672083D01*
X70962189Y-184680808D01*
X70875194Y-184705032D01*
X70804597Y-184742965D01*
X70747491Y-184794448D01*
X70689058Y-184881261D01*
X70653429Y-184981671D01*
X70641001Y-185099385D01*
X70383900Y-185099385D01*
X70390010Y-185006601D01*
X70409999Y-184912289D01*
X70442309Y-184827299D01*
X70487739Y-184748808D01*
X70543937Y-184681381D01*
X70611570Y-184623967D01*
X70688015Y-184578622D01*
X70774892Y-184544830D01*
X70873886Y-184522972D01*
X70873886Y-184509050D01*
X70784098Y-184443293D01*
X70710229Y-184369560D01*
X70650771Y-184287400D01*
X70606683Y-184196541D01*
X70579868Y-184097102D01*
X70570659Y-183987103D01*
X70580480Y-183867930D01*
X70608080Y-183768663D01*
X70651870Y-183685586D01*
X70711742Y-183612479D01*
X70781880Y-183553431D01*
X70863384Y-183507411D01*
X70997479Y-183463307D01*
X71141943Y-183448426D01*
X71281113Y-183459844D01*
G37*
G36*
X69598936Y-183695670D02*
G01*
X69711810Y-183734845D01*
X69812529Y-183799769D01*
X69896997Y-183886127D01*
X69970537Y-183999944D01*
X70032470Y-184146716D01*
X70073375Y-184301592D01*
X70099962Y-184487436D01*
X70109528Y-184709330D01*
X70099973Y-184932940D01*
X70073395Y-185120597D01*
X70032470Y-185277316D01*
X69970533Y-185426075D01*
X69896978Y-185541812D01*
X69812529Y-185630003D01*
X69711629Y-185696501D01*
X69598768Y-185736518D01*
X69470467Y-185750293D01*
X69342169Y-185736516D01*
X69229351Y-185696496D01*
X69128527Y-185630003D01*
X69044005Y-185541802D01*
X68970410Y-185426064D01*
X68908464Y-185277316D01*
X68867539Y-185120597D01*
X68840961Y-184932940D01*
X68831406Y-184709330D01*
X68831411Y-184709207D01*
X69077847Y-184709207D01*
X69084147Y-184904075D01*
X69101295Y-185060711D01*
X69126939Y-185184993D01*
X69167343Y-185305151D01*
X69213576Y-185393432D01*
X69264448Y-185456346D01*
X69327507Y-185505060D01*
X69395465Y-185533475D01*
X69470467Y-185543053D01*
X69543670Y-185533584D01*
X69611223Y-185505269D01*
X69675143Y-185456346D01*
X69726795Y-185393314D01*
X69773476Y-185305015D01*
X69813995Y-185184993D01*
X69839639Y-185060711D01*
X69856787Y-184904075D01*
X69863087Y-184709207D01*
X69856757Y-184514280D01*
X69839581Y-184358736D01*
X69813995Y-184236353D01*
X69773460Y-184118312D01*
X69726789Y-184031904D01*
X69675143Y-183970617D01*
X69611409Y-183923316D01*
X69543838Y-183895816D01*
X69470467Y-183886598D01*
X69395294Y-183895923D01*
X69327320Y-183923519D01*
X69264448Y-183970617D01*
X69213583Y-184031785D01*
X69167360Y-184118175D01*
X69126939Y-184236353D01*
X69101353Y-184358736D01*
X69084177Y-184514280D01*
X69077847Y-184709207D01*
X68831411Y-184709207D01*
X68840972Y-184487436D01*
X68867559Y-184301592D01*
X68908464Y-184146716D01*
X68970406Y-183999955D01*
X69043986Y-183886137D01*
X69128527Y-183799769D01*
X69229170Y-183734849D01*
X69342001Y-183695673D01*
X69470467Y-183682166D01*
X69598936Y-183695670D01*
G37*
G36*
X68309947Y-185754078D02*
G01*
X68379632Y-185740467D01*
X68439396Y-185699246D01*
X68479745Y-185637834D01*
X68493618Y-185560027D01*
X68487167Y-185502367D01*
X68468964Y-185455416D01*
X68439396Y-185416779D01*
X68379735Y-185376610D01*
X68309947Y-185363290D01*
X68240180Y-185376614D01*
X68180621Y-185416779D01*
X68150981Y-185455425D01*
X68132740Y-185502376D01*
X68126277Y-185560027D01*
X68140177Y-185637824D01*
X68180621Y-185699246D01*
X68240284Y-185740464D01*
X68309947Y-185754078D01*
G37*
G36*
X67267882Y-183695670D02*
G01*
X67380757Y-183734845D01*
X67481475Y-183799769D01*
X67565943Y-183886127D01*
X67639483Y-183999944D01*
X67701416Y-184146716D01*
X67742322Y-184301592D01*
X67768908Y-184487436D01*
X67778475Y-184709330D01*
X67768919Y-184932940D01*
X67742341Y-185120597D01*
X67701416Y-185277316D01*
X67639479Y-185426075D01*
X67565925Y-185541812D01*
X67481475Y-185630003D01*
X67380575Y-185696501D01*
X67267714Y-185736518D01*
X67139413Y-185750293D01*
X67011115Y-185736516D01*
X66898298Y-185696496D01*
X66797473Y-185630003D01*
X66712951Y-185541802D01*
X66639357Y-185426064D01*
X66577411Y-185277316D01*
X66536485Y-185120597D01*
X66509908Y-184932940D01*
X66500352Y-184709330D01*
X66500357Y-184709207D01*
X66746793Y-184709207D01*
X66753093Y-184904075D01*
X66770242Y-185060711D01*
X66795886Y-185184993D01*
X66836289Y-185305151D01*
X66882522Y-185393432D01*
X66933394Y-185456346D01*
X66996454Y-185505060D01*
X67064411Y-185533475D01*
X67139413Y-185543053D01*
X67212616Y-185533584D01*
X67280169Y-185505269D01*
X67344089Y-185456346D01*
X67395741Y-185393314D01*
X67442422Y-185305015D01*
X67482941Y-185184993D01*
X67508585Y-185060711D01*
X67525734Y-184904075D01*
X67532034Y-184709207D01*
X67525703Y-184514280D01*
X67508527Y-184358736D01*
X67482941Y-184236353D01*
X67442406Y-184118312D01*
X67395736Y-184031904D01*
X67344089Y-183970617D01*
X67280355Y-183923316D01*
X67212784Y-183895816D01*
X67139413Y-183886598D01*
X67064240Y-183895923D01*
X66996266Y-183923519D01*
X66933394Y-183970617D01*
X66882530Y-184031785D01*
X66836306Y-184118175D01*
X66795886Y-184236353D01*
X66770300Y-184358736D01*
X66753124Y-184514280D01*
X66746793Y-184709207D01*
X66500357Y-184709207D01*
X66509918Y-184487436D01*
X66536505Y-184301592D01*
X66577411Y-184146716D01*
X66639353Y-183999955D01*
X66712932Y-183886137D01*
X66797473Y-183799769D01*
X66898116Y-183734849D01*
X67010947Y-183695673D01*
X67139413Y-183682166D01*
X67267882Y-183695670D01*
G37*
G36*
X65978893Y-185754078D02*
G01*
X66048578Y-185740467D01*
X66108342Y-185699246D01*
X66148691Y-185637834D01*
X66162564Y-185560027D01*
X66156113Y-185502367D01*
X66137910Y-185455416D01*
X66108342Y-185416779D01*
X66048682Y-185376610D01*
X65978893Y-185363290D01*
X65909126Y-185376614D01*
X65849567Y-185416779D01*
X65819927Y-185455425D01*
X65801686Y-185502376D01*
X65795223Y-185560027D01*
X65809123Y-185637824D01*
X65849567Y-185699246D01*
X65909230Y-185740464D01*
X65978893Y-185754078D01*
G37*
G36*
X65338122Y-185715000D02*
G01*
X65338122Y-185502142D01*
X64881266Y-185502142D01*
X64881266Y-184029357D01*
X65249340Y-184029357D01*
X65249340Y-183866936D01*
X65116378Y-183837879D01*
X65009005Y-183805387D01*
X64909823Y-183764920D01*
X64822281Y-183718558D01*
X64625544Y-183718558D01*
X64625544Y-185502142D01*
X64212529Y-185502142D01*
X64212529Y-185715000D01*
X65338122Y-185715000D01*
G37*
D11*
X41544819Y-166575595D02*
X42354342Y-166575595D01*
X42354342Y-166575595D02*
X42449580Y-166623214D01*
X42449580Y-166623214D02*
X42497200Y-166670833D01*
X42497200Y-166670833D02*
X42544819Y-166766071D01*
X42544819Y-166766071D02*
X42544819Y-166956547D01*
X42544819Y-166956547D02*
X42497200Y-167051785D01*
X42497200Y-167051785D02*
X42449580Y-167099404D01*
X42449580Y-167099404D02*
X42354342Y-167147023D01*
X42354342Y-167147023D02*
X41544819Y-167147023D01*
X41640057Y-167575595D02*
X41592438Y-167623214D01*
X41592438Y-167623214D02*
X41544819Y-167718452D01*
X41544819Y-167718452D02*
X41544819Y-167956547D01*
X41544819Y-167956547D02*
X41592438Y-168051785D01*
X41592438Y-168051785D02*
X41640057Y-168099404D01*
X41640057Y-168099404D02*
X41735295Y-168147023D01*
X41735295Y-168147023D02*
X41830533Y-168147023D01*
X41830533Y-168147023D02*
X41973390Y-168099404D01*
X41973390Y-168099404D02*
X42544819Y-167527976D01*
X42544819Y-167527976D02*
X42544819Y-168147023D01*
X90666666Y-157954819D02*
X90999999Y-157478628D01*
X91238094Y-157954819D02*
X91238094Y-156954819D01*
X91238094Y-156954819D02*
X90857142Y-156954819D01*
X90857142Y-156954819D02*
X90761904Y-157002438D01*
X90761904Y-157002438D02*
X90714285Y-157050057D01*
X90714285Y-157050057D02*
X90666666Y-157145295D01*
X90666666Y-157145295D02*
X90666666Y-157288152D01*
X90666666Y-157288152D02*
X90714285Y-157383390D01*
X90714285Y-157383390D02*
X90761904Y-157431009D01*
X90761904Y-157431009D02*
X90857142Y-157478628D01*
X90857142Y-157478628D02*
X91238094Y-157478628D01*
X89714285Y-157954819D02*
X90285713Y-157954819D01*
X89999999Y-157954819D02*
X89999999Y-156954819D01*
X89999999Y-156954819D02*
X90095237Y-157097676D01*
X90095237Y-157097676D02*
X90190475Y-157192914D01*
X90190475Y-157192914D02*
X90285713Y-157240533D01*
X91761904Y-159454819D02*
X91761904Y-160264342D01*
X91761904Y-160264342D02*
X91714285Y-160359580D01*
X91714285Y-160359580D02*
X91666666Y-160407200D01*
X91666666Y-160407200D02*
X91571428Y-160454819D01*
X91571428Y-160454819D02*
X91380952Y-160454819D01*
X91380952Y-160454819D02*
X91285714Y-160407200D01*
X91285714Y-160407200D02*
X91238095Y-160359580D01*
X91238095Y-160359580D02*
X91190476Y-160264342D01*
X91190476Y-160264342D02*
X91190476Y-159454819D01*
X90809523Y-159454819D02*
X90190476Y-159454819D01*
X90190476Y-159454819D02*
X90523809Y-159835771D01*
X90523809Y-159835771D02*
X90380952Y-159835771D01*
X90380952Y-159835771D02*
X90285714Y-159883390D01*
X90285714Y-159883390D02*
X90238095Y-159931009D01*
X90238095Y-159931009D02*
X90190476Y-160026247D01*
X90190476Y-160026247D02*
X90190476Y-160264342D01*
X90190476Y-160264342D02*
X90238095Y-160359580D01*
X90238095Y-160359580D02*
X90285714Y-160407200D01*
X90285714Y-160407200D02*
X90380952Y-160454819D01*
X90380952Y-160454819D02*
X90666666Y-160454819D01*
X90666666Y-160454819D02*
X90761904Y-160407200D01*
X90761904Y-160407200D02*
X90809523Y-160359580D01*
D12*
%TO.C,U2*%
X38130000Y-167337500D02*
X38130000Y-166687500D01*
X38130000Y-167337500D02*
X38130000Y-167987500D01*
X41250000Y-167337500D02*
X41250000Y-166687500D01*
X41250000Y-167337500D02*
X41250000Y-167987500D01*
X41530000Y-168740000D02*
X41200000Y-168500000D01*
X41530000Y-168260000D01*
X41530000Y-168740000D01*
G36*
X41530000Y-168740000D02*
G01*
X41200000Y-168500000D01*
X41530000Y-168260000D01*
X41530000Y-168740000D01*
G37*
%TO.C,R1*%
X88312258Y-156957500D02*
X87837742Y-156957500D01*
X88312258Y-158002500D02*
X87837742Y-158002500D01*
%TO.C,U3*%
X87962500Y-159410000D02*
X87312500Y-159410000D01*
X87962500Y-159410000D02*
X88612500Y-159410000D01*
X87962500Y-162530000D02*
X87312500Y-162530000D01*
X87962500Y-162530000D02*
X88612500Y-162530000D01*
X89125000Y-159460000D02*
X88885000Y-159130000D01*
X89365000Y-159130000D01*
X89125000Y-159460000D01*
G36*
X89125000Y-159460000D02*
G01*
X88885000Y-159130000D01*
X89365000Y-159130000D01*
X89125000Y-159460000D01*
G37*
%TD*%
%LPC*%
D13*
%TO.C,U16*%
X77470000Y-162565000D03*
X77470000Y-160025000D03*
X69850000Y-160025000D03*
X69850000Y-162565000D03*
%TD*%
%TO.C,U10*%
X143510000Y-162560000D03*
X143510000Y-160020000D03*
X135890000Y-160020000D03*
X135890000Y-162560000D03*
%TD*%
%TO.C,U9*%
X143510000Y-155575000D03*
X143510000Y-153035000D03*
X135890000Y-153035000D03*
X135890000Y-155575000D03*
%TD*%
%TO.C,U15*%
X77470000Y-155580000D03*
X77470000Y-153040000D03*
X69850000Y-153040000D03*
X69850000Y-155580000D03*
%TD*%
D14*
%TO.C,U11*%
X107315000Y-163195000D03*
D15*
X107315000Y-160655000D03*
X107315000Y-158115000D03*
X107315000Y-155575000D03*
X99695000Y-155575000D03*
X99695000Y-158115000D03*
X99695000Y-160655000D03*
X99695000Y-163195000D03*
%TD*%
D16*
%TO.C,D8*%
X60325000Y-154935000D03*
D17*
X60325000Y-162555000D03*
%TD*%
D16*
%TO.C,D4*%
X126365000Y-154935000D03*
D17*
X126365000Y-162555000D03*
%TD*%
D18*
%TO.C,C2*%
X147320000Y-179070000D03*
D15*
X147320000Y-181070000D03*
%TD*%
D19*
%TO.C,REF\u002A\u002A*%
X151250000Y-120000000D03*
%TD*%
D18*
%TO.C,C1*%
X147320000Y-172085000D03*
D15*
X147320000Y-174085000D03*
%TD*%
D20*
%TO.C,J2*%
X73660000Y-129540000D03*
D21*
X68580000Y-124460000D03*
D20*
X71120000Y-129540000D03*
D21*
X78740000Y-124460000D03*
%TD*%
D22*
%TO.C,U14*%
X66680000Y-138435000D03*
D15*
X66680000Y-140975000D03*
X66680000Y-143515000D03*
X66680000Y-146055000D03*
X74300000Y-146055000D03*
X74300000Y-143515000D03*
X74300000Y-140975000D03*
X74300000Y-138435000D03*
%TD*%
D23*
%TO.C,U6*%
X114935000Y-147320000D03*
D15*
X117475000Y-147320000D03*
X120015000Y-147320000D03*
X122555000Y-147320000D03*
X122555000Y-139700000D03*
X120015000Y-139700000D03*
X117475000Y-139700000D03*
X114935000Y-139700000D03*
%TD*%
D22*
%TO.C,U5*%
X88265000Y-172720000D03*
D15*
X88265000Y-175260000D03*
X88265000Y-177800000D03*
X88265000Y-180340000D03*
X88265000Y-182880000D03*
X88265000Y-185420000D03*
X88265000Y-187960000D03*
X95885000Y-187960000D03*
X95885000Y-185420000D03*
X95885000Y-182880000D03*
X95885000Y-180340000D03*
X95885000Y-177800000D03*
X95885000Y-175260000D03*
X95885000Y-172720000D03*
%TD*%
D24*
%TO.C,D3*%
X123190000Y-158120000D03*
D17*
X123190000Y-150500000D03*
%TD*%
D18*
%TO.C,U7*%
X104775000Y-139700000D03*
D15*
X102235000Y-139700000D03*
X99695000Y-139700000D03*
X97155000Y-139700000D03*
X97155000Y-147320000D03*
X99695000Y-147320000D03*
X102235000Y-147320000D03*
X104775000Y-147320000D03*
%TD*%
D19*
%TO.C,REF\u002A\u002A*%
X82750000Y-195000000D03*
%TD*%
D25*
%TO.C,U1*%
X119380000Y-182245000D03*
X119380000Y-184785000D03*
X119380000Y-187325000D03*
X139700000Y-174625000D03*
X139700000Y-177165000D03*
X139700000Y-179705000D03*
X139700000Y-182245000D03*
X139700000Y-184785000D03*
X139700000Y-187325000D03*
%TD*%
D26*
%TO.C,SW1*%
X51435000Y-135890000D03*
D15*
X53975000Y-135890000D03*
X56515000Y-135890000D03*
%TD*%
D23*
%TO.C,U12*%
X48895000Y-147320000D03*
D15*
X51435000Y-147320000D03*
X53975000Y-147320000D03*
X56515000Y-147320000D03*
X56515000Y-139700000D03*
X53975000Y-139700000D03*
X51435000Y-139700000D03*
X48895000Y-139700000D03*
%TD*%
D20*
%TO.C,J1*%
X40640000Y-129540000D03*
D21*
X35560000Y-124460000D03*
D20*
X38100000Y-129540000D03*
D21*
X45720000Y-124460000D03*
%TD*%
D19*
%TO.C,REF\u002A\u002A*%
X29250000Y-120000000D03*
%TD*%
D24*
%TO.C,D1*%
X95885000Y-165735000D03*
D17*
X95885000Y-158115000D03*
%TD*%
D26*
%TO.C,SW3*%
X50800000Y-167005000D03*
D15*
X48260000Y-167005000D03*
X45720000Y-167005000D03*
%TD*%
D19*
%TO.C,REF\u002A\u002A*%
X151250000Y-195000000D03*
%TD*%
D26*
%TO.C,SW2*%
X117475000Y-135890000D03*
D15*
X120015000Y-135890000D03*
X122555000Y-135890000D03*
%TD*%
D22*
%TO.C,U8*%
X132715000Y-138430000D03*
D15*
X132715000Y-140970000D03*
X132715000Y-143510000D03*
X132715000Y-146050000D03*
X140335000Y-146050000D03*
X140335000Y-143510000D03*
X140335000Y-140970000D03*
X140335000Y-138430000D03*
%TD*%
D14*
%TO.C,U17*%
X41270000Y-163200000D03*
D15*
X41270000Y-160660000D03*
X41270000Y-158120000D03*
X41270000Y-155580000D03*
X33650000Y-155580000D03*
X33650000Y-158120000D03*
X33650000Y-160660000D03*
X33650000Y-163200000D03*
%TD*%
D16*
%TO.C,D6*%
X53975000Y-150490000D03*
D17*
X53975000Y-158110000D03*
%TD*%
D20*
%TO.C,J3*%
X106680000Y-129540000D03*
D21*
X101600000Y-124460000D03*
D20*
X104140000Y-129540000D03*
D21*
X111760000Y-124460000D03*
%TD*%
D26*
%TO.C,SW4*%
X65405000Y-167005000D03*
D15*
X67945000Y-167005000D03*
X70485000Y-167005000D03*
%TD*%
D16*
%TO.C,D2*%
X120015000Y-150495000D03*
D17*
X120015000Y-158115000D03*
%TD*%
D24*
%TO.C,D7*%
X57150000Y-158120000D03*
D17*
X57150000Y-150500000D03*
%TD*%
D18*
%TO.C,U13*%
X38735000Y-139705000D03*
D15*
X36195000Y-139705000D03*
X33655000Y-139705000D03*
X31115000Y-139705000D03*
X31115000Y-147325000D03*
X33655000Y-147325000D03*
X36195000Y-147325000D03*
X38735000Y-147325000D03*
%TD*%
D24*
%TO.C,D5*%
X29845000Y-165740000D03*
D17*
X29845000Y-158120000D03*
%TD*%
D20*
%TO.C,J4*%
X139700000Y-129540000D03*
D21*
X134620000Y-124460000D03*
D20*
X137160000Y-129540000D03*
D21*
X144780000Y-124460000D03*
%TD*%
D19*
%TO.C,A1*%
X28070000Y-184335000D03*
D27*
X31100000Y-184035000D03*
X31100000Y-179185000D03*
D19*
X28070000Y-178885000D03*
D28*
X27940000Y-190500000D03*
D15*
X30480000Y-190500000D03*
D29*
X33020000Y-190500000D03*
D15*
X35560000Y-190500000D03*
X38100000Y-190500000D03*
X40640000Y-190500000D03*
X43180000Y-190500000D03*
D29*
X45720000Y-190500000D03*
D15*
X48260000Y-190500000D03*
X50800000Y-190500000D03*
X53340000Y-190500000D03*
X55880000Y-190500000D03*
D29*
X58420000Y-190500000D03*
D15*
X60960000Y-190500000D03*
X63500000Y-190500000D03*
X66040000Y-190500000D03*
X68580000Y-190500000D03*
D29*
X71120000Y-190500000D03*
D15*
X73660000Y-190500000D03*
X76200000Y-190500000D03*
X76200000Y-172720000D03*
X73660000Y-172720000D03*
D30*
X71120000Y-172720000D03*
D15*
X68580000Y-172720000D03*
X66040000Y-172720000D03*
X63500000Y-172720000D03*
X60960000Y-172720000D03*
D30*
X58420000Y-172720000D03*
D15*
X55880000Y-172720000D03*
X53340000Y-172720000D03*
X50800000Y-172720000D03*
X48260000Y-172720000D03*
D30*
X45720000Y-172720000D03*
D15*
X43180000Y-172720000D03*
X40640000Y-172720000D03*
X38100000Y-172720000D03*
X35560000Y-172720000D03*
D30*
X33020000Y-172720000D03*
D15*
X30480000Y-172720000D03*
X27940000Y-172720000D03*
%TD*%
D31*
%TO.C,U2*%
X40640000Y-168275000D03*
X38740000Y-168275000D03*
X39690000Y-166400000D03*
%TD*%
D32*
%TO.C,R1*%
X88900000Y-157480000D03*
X87250000Y-157480000D03*
%TD*%
D33*
%TO.C,U3*%
X88900000Y-160020000D03*
X88900000Y-161920000D03*
X87025000Y-160970000D03*
%TD*%
D17*
X109220000Y-192405000D03*
X143510000Y-140335000D03*
X78105000Y-139700000D03*
X100330000Y-181610000D03*
X110490000Y-140335000D03*
X44450000Y-139700000D03*
X104140000Y-192405000D03*
X114300000Y-192405000D03*
X88900000Y-155575000D03*
%LPD*%
M02*
