%TF.GenerationSoftware,KiCad,Pcbnew,9.0.1*%
%TF.CreationDate,2025-06-22T18:16:10+09:00*%
%TF.ProjectId,SMU,534d552e-6b69-4636-9164-5f7063625858,rev?*%
%TF.SameCoordinates,Original*%
%TF.FileFunction,Soldermask,Bot*%
%TF.FilePolarity,Negative*%
%FSLAX46Y46*%
G04 Gerber Fmt 4.6, Leading zero omitted, Abs format (unit mm)*
G04 Created by KiCad (PCBNEW 9.0.1) date 2025-06-22 18:16:10*
%MOMM*%
%LPD*%
G01*
G04 APERTURE LIST*
G04 Aperture macros list*
%AMRoundRect*
0 Rectangle with rounded corners*
0 $1 Rounding radius*
0 $2 $3 $4 $5 $6 $7 $8 $9 X,Y pos of 4 corners*
0 Add a 4 corners polygon primitive as box body*
4,1,4,$2,$3,$4,$5,$6,$7,$8,$9,$2,$3,0*
0 Add four circle primitives for the rounded corners*
1,1,$1+$1,$2,$3*
1,1,$1+$1,$4,$5*
1,1,$1+$1,$6,$7*
1,1,$1+$1,$8,$9*
0 Add four rect primitives between the rounded corners*
20,1,$1+$1,$2,$3,$4,$5,0*
20,1,$1+$1,$4,$5,$6,$7,0*
20,1,$1+$1,$6,$7,$8,$9,0*
20,1,$1+$1,$8,$9,$2,$3,0*%
%AMFreePoly0*
4,1,37,0.603843,0.796157,0.639018,0.796157,0.711114,0.766294,0.766294,0.711114,0.796157,0.639018,0.796157,0.603843,0.800000,0.600000,0.800000,-0.600000,0.796157,-0.603843,0.796157,-0.639018,0.766294,-0.711114,0.711114,-0.766294,0.639018,-0.796157,0.603843,-0.796157,0.600000,-0.800000,0.000000,-0.800000,0.000000,-0.796148,-0.078414,-0.796148,-0.232228,-0.765552,-0.377117,-0.705537,
-0.507515,-0.618408,-0.618408,-0.507515,-0.705537,-0.377117,-0.765552,-0.232228,-0.796148,-0.078414,-0.796148,0.078414,-0.765552,0.232228,-0.705537,0.377117,-0.618408,0.507515,-0.507515,0.618408,-0.377117,0.705537,-0.232228,0.765552,-0.078414,0.796148,0.000000,0.796148,0.000000,0.800000,0.600000,0.800000,0.603843,0.796157,0.603843,0.796157,$1*%
%AMFreePoly1*
4,1,37,0.000000,0.796148,0.078414,0.796148,0.232228,0.765552,0.377117,0.705537,0.507515,0.618408,0.618408,0.507515,0.705537,0.377117,0.765552,0.232228,0.796148,0.078414,0.796148,-0.078414,0.765552,-0.232228,0.705537,-0.377117,0.618408,-0.507515,0.507515,-0.618408,0.377117,-0.705537,0.232228,-0.765552,0.078414,-0.796148,0.000000,-0.796148,0.000000,-0.800000,-0.600000,-0.800000,
-0.603843,-0.796157,-0.639018,-0.796157,-0.711114,-0.766294,-0.766294,-0.711114,-0.796157,-0.639018,-0.796157,-0.603843,-0.800000,-0.600000,-0.800000,0.600000,-0.796157,0.603843,-0.796157,0.639018,-0.766294,0.711114,-0.711114,0.766294,-0.639018,0.796157,-0.603843,0.796157,-0.600000,0.800000,0.000000,0.800000,0.000000,0.796148,0.000000,0.796148,$1*%
G04 Aperture macros list end*
%ADD10C,1.270000*%
%ADD11RoundRect,0.250000X0.550000X0.550000X-0.550000X0.550000X-0.550000X-0.550000X0.550000X-0.550000X0*%
%ADD12C,1.600000*%
%ADD13RoundRect,0.250001X-0.499999X0.499999X-0.499999X-0.499999X0.499999X-0.499999X0.499999X0.499999X0*%
%ADD14C,1.500000*%
%ADD15RoundRect,0.250000X-0.550000X0.550000X-0.550000X-0.550000X0.550000X-0.550000X0.550000X0.550000X0*%
%ADD16C,2.200000*%
%ADD17O,1.600000X2.500000*%
%ADD18O,3.500000X7.000000*%
%ADD19RoundRect,0.250000X-0.550000X-0.550000X0.550000X-0.550000X0.550000X0.550000X-0.550000X0.550000X0*%
%ADD20RoundRect,0.250000X0.550000X-0.550000X0.550000X0.550000X-0.550000X0.550000X-0.550000X-0.550000X0*%
%ADD21RoundRect,0.250001X0.499999X-0.499999X0.499999X0.499999X-0.499999X0.499999X-0.499999X-0.499999X0*%
%ADD22C,1.700000*%
%ADD23R,1.500000X1.500000*%
%ADD24C,1.850000*%
%ADD25RoundRect,0.200000X0.600000X-0.600000X0.600000X0.600000X-0.600000X0.600000X-0.600000X-0.600000X0*%
%ADD26FreePoly0,90.000000*%
%ADD27FreePoly1,90.000000*%
%ADD28RoundRect,0.150000X0.150000X-0.587500X0.150000X0.587500X-0.150000X0.587500X-0.150000X-0.587500X0*%
%ADD29RoundRect,0.200000X0.200000X0.275000X-0.200000X0.275000X-0.200000X-0.275000X0.200000X-0.275000X0*%
%ADD30RoundRect,0.150000X0.587500X0.150000X-0.587500X0.150000X-0.587500X-0.150000X0.587500X-0.150000X0*%
G04 APERTURE END LIST*
D10*
%TO.C,U16*%
X77470000Y-162565000D03*
X77470000Y-160025000D03*
X69850000Y-160025000D03*
X69850000Y-162565000D03*
%TD*%
%TO.C,U10*%
X143510000Y-162560000D03*
X143510000Y-160020000D03*
X135890000Y-160020000D03*
X135890000Y-162560000D03*
%TD*%
%TO.C,U9*%
X143510000Y-155575000D03*
X143510000Y-153035000D03*
X135890000Y-153035000D03*
X135890000Y-155575000D03*
%TD*%
%TO.C,U15*%
X77470000Y-155580000D03*
X77470000Y-153040000D03*
X69850000Y-153040000D03*
X69850000Y-155580000D03*
%TD*%
D11*
%TO.C,U11*%
X107315000Y-163195000D03*
D12*
X107315000Y-160655000D03*
X107315000Y-158115000D03*
X107315000Y-155575000D03*
X99695000Y-155575000D03*
X99695000Y-158115000D03*
X99695000Y-160655000D03*
X99695000Y-163195000D03*
%TD*%
D13*
%TO.C,D8*%
X60325000Y-154935000D03*
D14*
X60325000Y-162555000D03*
%TD*%
D13*
%TO.C,D4*%
X126365000Y-154935000D03*
D14*
X126365000Y-162555000D03*
%TD*%
D15*
%TO.C,C2*%
X147320000Y-179070000D03*
D12*
X147320000Y-181070000D03*
%TD*%
D16*
%TO.C,REF\u002A\u002A*%
X151250000Y-120000000D03*
%TD*%
D15*
%TO.C,C1*%
X147320000Y-172085000D03*
D12*
X147320000Y-174085000D03*
%TD*%
D17*
%TO.C,J2*%
X73660000Y-129540000D03*
D18*
X68580000Y-124460000D03*
D17*
X71120000Y-129540000D03*
D18*
X78740000Y-124460000D03*
%TD*%
D19*
%TO.C,U14*%
X66680000Y-138435000D03*
D12*
X66680000Y-140975000D03*
X66680000Y-143515000D03*
X66680000Y-146055000D03*
X74300000Y-146055000D03*
X74300000Y-143515000D03*
X74300000Y-140975000D03*
X74300000Y-138435000D03*
%TD*%
D20*
%TO.C,U6*%
X114935000Y-147320000D03*
D12*
X117475000Y-147320000D03*
X120015000Y-147320000D03*
X122555000Y-147320000D03*
X122555000Y-139700000D03*
X120015000Y-139700000D03*
X117475000Y-139700000D03*
X114935000Y-139700000D03*
%TD*%
D19*
%TO.C,U5*%
X88265000Y-172720000D03*
D12*
X88265000Y-175260000D03*
X88265000Y-177800000D03*
X88265000Y-180340000D03*
X88265000Y-182880000D03*
X88265000Y-185420000D03*
X88265000Y-187960000D03*
X95885000Y-187960000D03*
X95885000Y-185420000D03*
X95885000Y-182880000D03*
X95885000Y-180340000D03*
X95885000Y-177800000D03*
X95885000Y-175260000D03*
X95885000Y-172720000D03*
%TD*%
D21*
%TO.C,D3*%
X123190000Y-158120000D03*
D14*
X123190000Y-150500000D03*
%TD*%
D15*
%TO.C,U7*%
X104775000Y-139700000D03*
D12*
X102235000Y-139700000D03*
X99695000Y-139700000D03*
X97155000Y-139700000D03*
X97155000Y-147320000D03*
X99695000Y-147320000D03*
X102235000Y-147320000D03*
X104775000Y-147320000D03*
%TD*%
D16*
%TO.C,REF\u002A\u002A*%
X82750000Y-195000000D03*
%TD*%
D22*
%TO.C,U1*%
X119380000Y-182245000D03*
X119380000Y-184785000D03*
X119380000Y-187325000D03*
X139700000Y-174625000D03*
X139700000Y-177165000D03*
X139700000Y-179705000D03*
X139700000Y-182245000D03*
X139700000Y-184785000D03*
X139700000Y-187325000D03*
%TD*%
D23*
%TO.C,SW1*%
X51435000Y-135890000D03*
D12*
X53975000Y-135890000D03*
X56515000Y-135890000D03*
%TD*%
D20*
%TO.C,U12*%
X48895000Y-147320000D03*
D12*
X51435000Y-147320000D03*
X53975000Y-147320000D03*
X56515000Y-147320000D03*
X56515000Y-139700000D03*
X53975000Y-139700000D03*
X51435000Y-139700000D03*
X48895000Y-139700000D03*
%TD*%
D17*
%TO.C,J1*%
X40640000Y-129540000D03*
D18*
X35560000Y-124460000D03*
D17*
X38100000Y-129540000D03*
D18*
X45720000Y-124460000D03*
%TD*%
D16*
%TO.C,REF\u002A\u002A*%
X29250000Y-120000000D03*
%TD*%
D21*
%TO.C,D1*%
X95885000Y-165735000D03*
D14*
X95885000Y-158115000D03*
%TD*%
D23*
%TO.C,SW3*%
X50800000Y-167005000D03*
D12*
X48260000Y-167005000D03*
X45720000Y-167005000D03*
%TD*%
D16*
%TO.C,REF\u002A\u002A*%
X151250000Y-195000000D03*
%TD*%
D23*
%TO.C,SW2*%
X117475000Y-135890000D03*
D12*
X120015000Y-135890000D03*
X122555000Y-135890000D03*
%TD*%
D19*
%TO.C,U8*%
X132715000Y-138430000D03*
D12*
X132715000Y-140970000D03*
X132715000Y-143510000D03*
X132715000Y-146050000D03*
X140335000Y-146050000D03*
X140335000Y-143510000D03*
X140335000Y-140970000D03*
X140335000Y-138430000D03*
%TD*%
D11*
%TO.C,U17*%
X41270000Y-163200000D03*
D12*
X41270000Y-160660000D03*
X41270000Y-158120000D03*
X41270000Y-155580000D03*
X33650000Y-155580000D03*
X33650000Y-158120000D03*
X33650000Y-160660000D03*
X33650000Y-163200000D03*
%TD*%
D13*
%TO.C,D6*%
X53975000Y-150490000D03*
D14*
X53975000Y-158110000D03*
%TD*%
D17*
%TO.C,J3*%
X106680000Y-129540000D03*
D18*
X101600000Y-124460000D03*
D17*
X104140000Y-129540000D03*
D18*
X111760000Y-124460000D03*
%TD*%
D23*
%TO.C,SW4*%
X65405000Y-167005000D03*
D12*
X67945000Y-167005000D03*
X70485000Y-167005000D03*
%TD*%
D13*
%TO.C,D2*%
X120015000Y-150495000D03*
D14*
X120015000Y-158115000D03*
%TD*%
D21*
%TO.C,D7*%
X57150000Y-158120000D03*
D14*
X57150000Y-150500000D03*
%TD*%
D15*
%TO.C,U13*%
X38735000Y-139705000D03*
D12*
X36195000Y-139705000D03*
X33655000Y-139705000D03*
X31115000Y-139705000D03*
X31115000Y-147325000D03*
X33655000Y-147325000D03*
X36195000Y-147325000D03*
X38735000Y-147325000D03*
%TD*%
D21*
%TO.C,D5*%
X29845000Y-165740000D03*
D14*
X29845000Y-158120000D03*
%TD*%
D17*
%TO.C,J4*%
X139700000Y-129540000D03*
D18*
X134620000Y-124460000D03*
D17*
X137160000Y-129540000D03*
D18*
X144780000Y-124460000D03*
%TD*%
D16*
%TO.C,A1*%
X28070000Y-184335000D03*
D24*
X31100000Y-184035000D03*
X31100000Y-179185000D03*
D16*
X28070000Y-178885000D03*
D25*
X27940000Y-190500000D03*
D12*
X30480000Y-190500000D03*
D26*
X33020000Y-190500000D03*
D12*
X35560000Y-190500000D03*
X38100000Y-190500000D03*
X40640000Y-190500000D03*
X43180000Y-190500000D03*
D26*
X45720000Y-190500000D03*
D12*
X48260000Y-190500000D03*
X50800000Y-190500000D03*
X53340000Y-190500000D03*
X55880000Y-190500000D03*
D26*
X58420000Y-190500000D03*
D12*
X60960000Y-190500000D03*
X63500000Y-190500000D03*
X66040000Y-190500000D03*
X68580000Y-190500000D03*
D26*
X71120000Y-190500000D03*
D12*
X73660000Y-190500000D03*
X76200000Y-190500000D03*
X76200000Y-172720000D03*
X73660000Y-172720000D03*
D27*
X71120000Y-172720000D03*
D12*
X68580000Y-172720000D03*
X66040000Y-172720000D03*
X63500000Y-172720000D03*
X60960000Y-172720000D03*
D27*
X58420000Y-172720000D03*
D12*
X55880000Y-172720000D03*
X53340000Y-172720000D03*
X50800000Y-172720000D03*
X48260000Y-172720000D03*
D27*
X45720000Y-172720000D03*
D12*
X43180000Y-172720000D03*
X40640000Y-172720000D03*
X38100000Y-172720000D03*
X35560000Y-172720000D03*
D27*
X33020000Y-172720000D03*
D12*
X30480000Y-172720000D03*
X27940000Y-172720000D03*
%TD*%
D28*
%TO.C,U2*%
X40640000Y-168275000D03*
X38740000Y-168275000D03*
X39690000Y-166400000D03*
%TD*%
D29*
%TO.C,R1*%
X88900000Y-157480000D03*
X87250000Y-157480000D03*
%TD*%
D30*
%TO.C,U3*%
X88900000Y-160020000D03*
X88900000Y-161920000D03*
X87025000Y-160970000D03*
%TD*%
D14*
X109220000Y-192405000D03*
X143510000Y-140335000D03*
X78105000Y-139700000D03*
X100330000Y-181610000D03*
X110490000Y-140335000D03*
X44450000Y-139700000D03*
X104140000Y-192405000D03*
X114300000Y-192405000D03*
X88900000Y-155575000D03*
M02*
