%TF.GenerationSoftware,KiCad,Pcbnew,9.0.1*%
%TF.CreationDate,2025-09-14T15:37:00+09:00*%
%TF.ProjectId,SMU,534d552e-6b69-4636-9164-5f7063625858,rev?*%
%TF.SameCoordinates,Original*%
%TF.FileFunction,Soldermask,Bot*%
%TF.FilePolarity,Negative*%
%FSLAX46Y46*%
G04 Gerber Fmt 4.6, Leading zero omitted, Abs format (unit mm)*
G04 Created by KiCad (PCBNEW 9.0.1) date 2025-09-14 15:37:00*
%MOMM*%
%LPD*%
G01*
G04 APERTURE LIST*
G04 Aperture macros list*
%AMRoundRect*
0 Rectangle with rounded corners*
0 $1 Rounding radius*
0 $2 $3 $4 $5 $6 $7 $8 $9 X,Y pos of 4 corners*
0 Add a 4 corners polygon primitive as box body*
4,1,4,$2,$3,$4,$5,$6,$7,$8,$9,$2,$3,0*
0 Add four circle primitives for the rounded corners*
1,1,$1+$1,$2,$3*
1,1,$1+$1,$4,$5*
1,1,$1+$1,$6,$7*
1,1,$1+$1,$8,$9*
0 Add four rect primitives between the rounded corners*
20,1,$1+$1,$2,$3,$4,$5,0*
20,1,$1+$1,$4,$5,$6,$7,0*
20,1,$1+$1,$6,$7,$8,$9,0*
20,1,$1+$1,$8,$9,$2,$3,0*%
%AMFreePoly0*
4,1,37,0.603843,0.796157,0.639018,0.796157,0.711114,0.766294,0.766294,0.711114,0.796157,0.639018,0.796157,0.603843,0.800000,0.600000,0.800000,-0.600000,0.796157,-0.603843,0.796157,-0.639018,0.766294,-0.711114,0.711114,-0.766294,0.639018,-0.796157,0.603843,-0.796157,0.600000,-0.800000,0.000000,-0.800000,0.000000,-0.796148,-0.078414,-0.796148,-0.232228,-0.765552,-0.377117,-0.705537,
-0.507515,-0.618408,-0.618408,-0.507515,-0.705537,-0.377117,-0.765552,-0.232228,-0.796148,-0.078414,-0.796148,0.078414,-0.765552,0.232228,-0.705537,0.377117,-0.618408,0.507515,-0.507515,0.618408,-0.377117,0.705537,-0.232228,0.765552,-0.078414,0.796148,0.000000,0.796148,0.000000,0.800000,0.600000,0.800000,0.603843,0.796157,0.603843,0.796157,$1*%
%AMFreePoly1*
4,1,37,0.000000,0.796148,0.078414,0.796148,0.232228,0.765552,0.377117,0.705537,0.507515,0.618408,0.618408,0.507515,0.705537,0.377117,0.765552,0.232228,0.796148,0.078414,0.796148,-0.078414,0.765552,-0.232228,0.705537,-0.377117,0.618408,-0.507515,0.507515,-0.618408,0.377117,-0.705537,0.232228,-0.765552,0.078414,-0.796148,0.000000,-0.796148,0.000000,-0.800000,-0.600000,-0.800000,
-0.603843,-0.796157,-0.639018,-0.796157,-0.711114,-0.766294,-0.766294,-0.711114,-0.796157,-0.639018,-0.796157,-0.603843,-0.800000,-0.600000,-0.800000,0.600000,-0.796157,0.603843,-0.796157,0.639018,-0.766294,0.711114,-0.711114,0.766294,-0.639018,0.796157,-0.603843,0.796157,-0.600000,0.800000,0.000000,0.800000,0.000000,0.796148,0.000000,0.796148,$1*%
G04 Aperture macros list end*
%ADD10RoundRect,0.250001X0.499999X-0.499999X0.499999X0.499999X-0.499999X0.499999X-0.499999X-0.499999X0*%
%ADD11C,1.500000*%
%ADD12RoundRect,0.250001X-0.499999X-0.499999X0.499999X-0.499999X0.499999X0.499999X-0.499999X0.499999X0*%
%ADD13C,3.500000*%
%ADD14C,1.270000*%
%ADD15O,1.600000X2.500000*%
%ADD16O,3.500000X7.000000*%
%ADD17RoundRect,0.250000X-0.550000X-0.550000X0.550000X-0.550000X0.550000X0.550000X-0.550000X0.550000X0*%
%ADD18C,1.600000*%
%ADD19RoundRect,0.250001X-0.499999X0.499999X-0.499999X-0.499999X0.499999X-0.499999X0.499999X0.499999X0*%
%ADD20C,1.700000*%
%ADD21R,1.500000X1.500000*%
%ADD22RoundRect,0.250000X0.550000X-0.550000X0.550000X0.550000X-0.550000X0.550000X-0.550000X-0.550000X0*%
%ADD23RoundRect,0.250000X0.550000X0.550000X-0.550000X0.550000X-0.550000X-0.550000X0.550000X-0.550000X0*%
%ADD24RoundRect,0.250000X-0.550000X0.550000X-0.550000X-0.550000X0.550000X-0.550000X0.550000X0.550000X0*%
%ADD25C,2.200000*%
%ADD26C,1.850000*%
%ADD27RoundRect,0.200000X0.600000X-0.600000X0.600000X0.600000X-0.600000X0.600000X-0.600000X-0.600000X0*%
%ADD28FreePoly0,90.000000*%
%ADD29FreePoly1,90.000000*%
%ADD30C,1.800000*%
G04 APERTURE END LIST*
D10*
%TO.C,D3*%
X26797000Y-156210000D03*
D11*
X26797000Y-153670000D03*
%TD*%
D12*
%TO.C,D4*%
X26797000Y-151003000D03*
D11*
X29337000Y-151003000D03*
%TD*%
D12*
%TO.C,D7*%
X57531000Y-156210000D03*
D11*
X60071000Y-156210000D03*
%TD*%
D13*
%TO.C,REF\u002A\u002A*%
X83000000Y-196000000D03*
%TD*%
D14*
%TO.C,U10*%
X77220000Y-162565000D03*
X77220000Y-160025000D03*
X69600000Y-160025000D03*
X69600000Y-162565000D03*
%TD*%
D15*
%TO.C,J2*%
X73410000Y-129540000D03*
D16*
X68330000Y-124460000D03*
D15*
X70870000Y-129540000D03*
D16*
X78490000Y-124460000D03*
%TD*%
D17*
%TO.C,U8*%
X66430000Y-138435000D03*
D18*
X66430000Y-140975000D03*
X66430000Y-143515000D03*
X66430000Y-146055000D03*
X74050000Y-146055000D03*
X74050000Y-143515000D03*
X74050000Y-140975000D03*
X74050000Y-138435000D03*
%TD*%
D17*
%TO.C,U4*%
X88015000Y-172720000D03*
D18*
X88015000Y-175260000D03*
X88015000Y-177800000D03*
X88015000Y-180340000D03*
X88015000Y-182880000D03*
X88015000Y-185420000D03*
X88015000Y-187960000D03*
X95635000Y-187960000D03*
X95635000Y-185420000D03*
X95635000Y-182880000D03*
X95635000Y-180340000D03*
X95635000Y-177800000D03*
X95635000Y-175260000D03*
X95635000Y-172720000D03*
%TD*%
D10*
%TO.C,D1*%
X26797000Y-166497000D03*
D11*
X26797000Y-163957000D03*
%TD*%
D19*
%TO.C,D5*%
X29337000Y-153670000D03*
D11*
X29337000Y-156210000D03*
%TD*%
D20*
%TO.C,U1*%
X100330000Y-151765000D03*
X100330000Y-154305000D03*
X100330000Y-156845000D03*
X120650000Y-144145000D03*
X120650000Y-146685000D03*
X120650000Y-149225000D03*
X120650000Y-151765000D03*
X120650000Y-154305000D03*
X120650000Y-156845000D03*
%TD*%
D21*
%TO.C,SW2*%
X51185000Y-135890000D03*
D18*
X53725000Y-135890000D03*
X56265000Y-135890000D03*
%TD*%
D22*
%TO.C,U6*%
X48645000Y-147320000D03*
D18*
X51185000Y-147320000D03*
X53725000Y-147320000D03*
X56265000Y-147320000D03*
X56265000Y-139700000D03*
X53725000Y-139700000D03*
X51185000Y-139700000D03*
X48645000Y-139700000D03*
%TD*%
D15*
%TO.C,J1*%
X40390000Y-129540000D03*
D16*
X35310000Y-124460000D03*
D15*
X37850000Y-129540000D03*
D16*
X45470000Y-124460000D03*
%TD*%
D13*
%TO.C,REF\u002A\u002A*%
X122000000Y-196000000D03*
%TD*%
%TO.C,REF\u002A\u002A*%
X122000000Y-119000000D03*
%TD*%
D21*
%TO.C,SW1*%
X50546000Y-167005000D03*
D18*
X48006000Y-167005000D03*
X45466000Y-167005000D03*
%TD*%
D10*
%TO.C,D2*%
X26797000Y-161398670D03*
D11*
X26797000Y-158858670D03*
%TD*%
D23*
%TO.C,U11*%
X41020000Y-161290000D03*
D18*
X41020000Y-158750000D03*
X41020000Y-156210000D03*
X41020000Y-153670000D03*
X33400000Y-153670000D03*
X33400000Y-156210000D03*
X33400000Y-158750000D03*
X33400000Y-161290000D03*
%TD*%
D22*
%TO.C,U12*%
X107315000Y-176530000D03*
D18*
X109855000Y-176530000D03*
X112395000Y-176530000D03*
X114935000Y-176530000D03*
X114935000Y-168910000D03*
X112395000Y-168910000D03*
X109855000Y-168910000D03*
X107315000Y-168910000D03*
%TD*%
D12*
%TO.C,D6*%
X52451000Y-156210000D03*
D11*
X54991000Y-156210000D03*
%TD*%
D14*
%TO.C,U9*%
X77220000Y-155580000D03*
X77220000Y-153040000D03*
X69600000Y-153040000D03*
X69600000Y-155580000D03*
%TD*%
D13*
%TO.C,REF\u002A\u002A*%
X28000000Y-119000000D03*
%TD*%
D24*
%TO.C,U7*%
X38485000Y-139705000D03*
D18*
X35945000Y-139705000D03*
X33405000Y-139705000D03*
X30865000Y-139705000D03*
X30865000Y-147325000D03*
X33405000Y-147325000D03*
X35945000Y-147325000D03*
X38485000Y-147325000D03*
%TD*%
D25*
%TO.C,A1*%
X27816000Y-184335000D03*
D26*
X30846000Y-184035000D03*
X30846000Y-179185000D03*
D25*
X27816000Y-178885000D03*
D27*
X27686000Y-190500000D03*
D18*
X30226000Y-190500000D03*
D28*
X32766000Y-190500000D03*
D18*
X35306000Y-190500000D03*
X37846000Y-190500000D03*
X40386000Y-190500000D03*
X42926000Y-190500000D03*
D28*
X45466000Y-190500000D03*
D18*
X48006000Y-190500000D03*
X50546000Y-190500000D03*
X53086000Y-190500000D03*
X55626000Y-190500000D03*
D28*
X58166000Y-190500000D03*
D18*
X60706000Y-190500000D03*
X63246000Y-190500000D03*
X65786000Y-190500000D03*
X68326000Y-190500000D03*
D28*
X70866000Y-190500000D03*
D18*
X73406000Y-190500000D03*
X75946000Y-190500000D03*
X75946000Y-172720000D03*
X73406000Y-172720000D03*
D29*
X70866000Y-172720000D03*
D18*
X68326000Y-172720000D03*
X65786000Y-172720000D03*
X63246000Y-172720000D03*
X60706000Y-172720000D03*
D29*
X58166000Y-172720000D03*
D18*
X55626000Y-172720000D03*
X53086000Y-172720000D03*
X50546000Y-172720000D03*
X48006000Y-172720000D03*
D29*
X45466000Y-172720000D03*
D18*
X42926000Y-172720000D03*
X40386000Y-172720000D03*
X37846000Y-172720000D03*
X35306000Y-172720000D03*
D29*
X32766000Y-172720000D03*
D18*
X30226000Y-172720000D03*
X27686000Y-172720000D03*
%TD*%
D30*
X96774000Y-168148000D03*
X89408000Y-142748000D03*
X78105000Y-141605000D03*
X98935000Y-180465000D03*
X44200000Y-139700000D03*
X78740000Y-165100000D03*
D11*
X81026000Y-157734000D03*
X82740000Y-162496000D03*
D30*
X96774000Y-137564000D03*
X89408000Y-132620000D03*
X83570000Y-150495000D03*
D11*
X84074000Y-158750000D03*
X84328000Y-153924000D03*
D30*
X99822000Y-174625000D03*
M02*
